<?xml version="1.0" encoding="UTF-8" standalone="no"?>
<svg width="23px" height="34px" viewBox="0 0 23 34" version="1.1" xmlns="http://www.w3.org/2000/svg" xmlns:xlink="http://www.w3.org/1999/xlink">
    <!-- Generator: Sketch 43.2 (39069) - http://www.bohemiancoding.com/sketch -->
    <title>cursor</title>
    <desc>Created with Sketch.</desc>
    <defs></defs>
    <g id="Symbols" stroke="none" stroke-width="1" fill="none" fill-rule="evenodd">
        <g id="Banner-Copy-4" transform="translate(-895.000000, -30.000000)">
            <g id="cursor" transform="translate(896.000000, 31.000000)">
                <path d="M12.837175,32.5883452 C12.7377004,32.5305718 12.6647234,32.4363098 12.6347507,32.3246723 L10.2729883,23.5148686 C10.222165,23.3206976 10.0497134,23.1873408 9.85206725,23.1873408 C9.81514436,23.1873408 9.77822146,23.1916847 9.74216733,23.2016756 C9.69916301,23.2125353 9.65833063,23.2303451 9.62010457,23.2546708 L4.66114206,26.2845204 C4.59164013,26.326656 4.51301608,26.347941 4.43439202,26.347941 C4.35012094,26.347941 4.26584985,26.3231809 4.19287283,26.2745295 C4.05213142,26.1802676 3.9791544,26.0130285 4.00521762,25.8457895 L7.41254961,4.27543201 C7.4394816,4.10602106 7.5637163,3.96832037 7.72965215,3.92401289 C7.76657505,3.91402198 7.80436672,3.90924373 7.84172401,3.90924373 C7.97073696,3.90924373 8.09584043,3.9670172 8.17967713,4.07040132 L21.9037014,21.0523285 C22.0096919,21.1839478 22.0301081,21.3650872 21.9553935,21.5171226 C21.8824165,21.6661174 21.7308154,21.759945 21.5657483,21.759945 C21.5622732,21.759945 15.7319303,21.6239818 15.7319303,21.6239818 C15.492583,21.6239818 15.2975433,21.8155465 15.2936338,22.0514187 C15.2931994,22.0900791 15.2979776,22.129174 15.3075342,22.1669656 L17.6684278,30.9728598 C17.7305451,31.2048225 17.5932788,31.4428666 17.3617505,31.504984 L13.1668748,32.631784 C13.1299519,32.6413405 13.0921602,32.6465531 13.0543686,32.6465531 C12.9787852,32.6465531 12.9040706,32.6270057 12.837175,32.5883452 Z" id="Fill-1" fill="#D2F05A"></path>
                <path d="M8.83717503,29.5883452 C8.7377004,29.5305718 8.66472337,29.4363098 8.63475067,29.3246723 L6.2729883,20.5148686 C6.22216502,20.3206976 6.04971336,20.1873408 5.85206725,20.1873408 C5.81514436,20.1873408 5.77822146,20.1916847 5.74216733,20.2016756 C5.69916301,20.2125353 5.65833063,20.2303451 5.62010457,20.2546708 L0.66114206,23.2845204 C0.591640133,23.326656 0.513016078,23.347941 0.434392023,23.347941 C0.350120936,23.347941 0.265849849,23.3231809 0.192872825,23.2745295 C0.0521314227,23.1802676 -0.020845601,23.0130285 0.00521762174,22.8457895 L3.41254961,1.27543201 C3.4394816,1.10602106 3.5637163,0.968320365 3.72965215,0.924012887 C3.76657505,0.914021985 3.80436672,0.909243727 3.84172401,0.909243727 C3.97073696,0.909243727 4.09584043,0.967017204 4.17967713,1.07040132 L17.9037014,18.0523285 C18.0096919,18.1839478 18.0301081,18.3650872 17.9553935,18.5171226 C17.8824165,18.6661174 17.7308154,18.759945 17.5657483,18.759945 C17.5622732,18.759945 11.7319303,18.6239818 11.7319303,18.6239818 C11.492583,18.6239818 11.2975433,18.8155465 11.2936338,19.0514187 C11.2931994,19.0900791 11.2979776,19.129174 11.3075342,19.1669656 L13.6684278,27.9728598 C13.7305451,28.2048225 13.5932788,28.4428666 13.3617505,28.504984 L9.1668748,29.631784 C9.1299519,29.6413405 9.09216023,29.6465531 9.05436855,29.6465531 C8.97878521,29.6465531 8.90407064,29.6270057 8.83717503,29.5883452 Z" id="Fill-1" stroke="#373151" stroke-width="2"></path>
            </g>
        </g>
    </g>
</svg>
