<svg viewBox="0 0 32 34" xmlns="http://www.w3.org/2000/svg" width="32" height="34"><g fill="none" fill-rule="evenodd"><path d="M3 22.3375942c0-.4531649.14623706-.8106805.45996658-1.1248351L18.135111 6.55716966c.4072532-.4174558.9896508-.7847489 1.7310387-1.09167668C20.6117887 5.15643965 21.2868598 5 21.8735085 5h8.5208596c.4399865 0 .797077.15261368 1.124835.48079686C31.8469612 5.80898003 32 6.16649566 32 6.60605706v8.52085954c0 .5883492-.1564396 1.2634203-.4659181 2.0086341-.3082031.7447888-.6784719 1.337389-1.1001788 1.7599461L15.8186989 33.5302559C15.4769123 33.8507872 15.1091941 34 14.6624058 34c-.4535899 0-.8106804-.1462371-1.1252602-.4608168L3.47867132 23.5023894C3.15218857 23.157627 3 22.7873582 3 22.3375942" fill="#46CFDB"/><path d="M1 18.3375942c0-.4531649.14623706-.8106805.45996658-1.1248351L16.135111 2.55716966c.4072532-.4174558.9896508-.7847489 1.7310387-1.09167668C18.6117887 1.15643965 19.2868598 1 19.8735085 1h8.5208596c.4399865 0 .797077.15261368 1.124835.48079686C29.8469612 1.80898003 30 2.16649566 30 2.60605706v8.52085954c0 .5883492-.1564396 1.2634203-.4659181 2.0086341-.3082031.7447888-.6784719 1.337389-1.1001788 1.7599461L13.8186989 29.5302559C13.4769123 29.8507872 13.1091941 30 12.6624058 30c-.4535899 0-.8106804-.1462371-1.1252602-.4608168L1.47867132 19.5023894C1.15218857 19.157627 1 18.7873582 1 18.3375942z" stroke="#373151" stroke-width="2"/><path d="M20.8762636 5.8807117C21.4783664 5.2794177 22.1536595 5 23 5c.8475536 0 1.522038.2794177 2.1217145.87990295C25.721391 6.47877072 26 7.15325515 26 8c0 .84674484-.2794177 1.5208249-.8790942 2.12131015C24.5212293 10.72098665 23.8475536 11 23 11c-.8451274 0-1.5192074-.27901334-2.1205014-.87788112C20.2790133 9.52001618 20 8.8459361 20 7.99919128c0-.84674486.2790133-1.52042056.8762636-2.1184796z" stroke="#373151" stroke-width="2" fill="#F8F7F7"/></g></svg>
