<?xml version="1.0" encoding="UTF-8" standalone="no"?>
<svg width="32px" height="34px" viewBox="0 0 32 34" version="1.1" xmlns="http://www.w3.org/2000/svg" xmlns:xlink="http://www.w3.org/1999/xlink">
    <!-- Generator: Sketch 43.2 (39069) - http://www.bohemiancoding.com/sketch -->
    <title>Page 1</title>
    <desc>Created with Sketch.</desc>
    <defs></defs>
    <g id="Symbols" stroke="none" stroke-width="1" fill="none" fill-rule="evenodd">
        <g id="Banner-Copy-4" transform="translate(-199.000000, -34.000000)">
            <g id="Page-1" transform="translate(200.000000, 35.000000)">
                <path d="M2,21.3375942 C2,20.8844293 2.14623706,20.5269137 2.45996658,20.2127591 L17.135111,5.55716966 C17.5423642,5.13971386 18.1247618,4.77242077 18.8661497,4.46549298 C19.6117887,4.15643965 20.2868598,4 20.8735085,4 L29.3943681,4 C29.8343546,4 30.1914451,4.15261368 30.5192031,4.48079686 C30.8469612,4.80898003 31,5.16649565 31,5.60605705 L31,14.1269166 C31,14.7152658 30.8435604,15.3903369 30.5340819,16.1355507 C30.2258788,16.8803395 29.85561,17.4729397 29.4339031,17.8954968 L14.8186989,32.5302559 C14.4769123,32.8507872 14.1091941,33 13.6624058,33 C13.2088159,33 12.8517254,32.8537629 12.5371456,32.5391832 L2.47867132,22.5023894 C2.15218857,22.157627 2,21.7873582 2,21.3375942" id="Fill-1" fill="#46CFDB"></path>
                <path d="M0,17.3375942 C0,16.8844293 0.146237064,16.5269137 0.459966578,16.2127591 L15.135111,1.55716966 C15.5423642,1.13971386 16.1247618,0.772420769 16.8661497,0.465492978 C17.6117887,0.156439649 18.2868598,0 18.8735085,0 L27.3943681,0 C27.8343546,0 28.1914451,0.15261368 28.5192031,0.480796857 C28.8469612,0.808980035 29,1.16649565 29,1.60605705 L29,10.1269166 C29,10.7152658 28.8435604,11.3903369 28.5340819,12.1355507 C28.2258788,12.8803395 27.85561,13.4729397 27.4339031,13.8954968 L12.8186989,28.5302559 C12.4769123,28.8507872 12.1091941,29 11.6624058,29 C11.2088159,29 10.8517254,28.8537629 10.5371456,28.5391832 L0.478671318,18.5023894 C0.152188572,18.157627 0,17.7873582 0,17.3375942 Z" id="Stroke-3" stroke="#373151" stroke-width="2"></path>
                <path d="M19.8762636,4.88071169 C20.4783664,4.27941771 21.1536595,4 22,4 C22.8475536,4 23.522038,4.27941771 24.1217145,4.87990295 C24.721391,5.47877072 25,6.15325516 25,7 C25,7.84674484 24.7205823,8.52082491 24.1209058,9.12131015 C23.5212293,9.72098666 22.8475536,10 22,10 C21.1548726,10 20.4807926,9.72098666 19.8794986,9.12211888 C19.2790133,8.52001617 19,7.84593611 19,6.99919127 C19,6.15244642 19.2790133,5.47877072 19.8762636,4.88071169 Z" id="Stroke-5" stroke="#373151" stroke-width="2" fill="#F8F7F7"></path>
            </g>
        </g>
    </g>
</svg>