<?xml version="1.0" encoding="UTF-8" standalone="no"?>
<svg width="31px" height="35px" viewBox="0 0 31 35" version="1.1" xmlns="http://www.w3.org/2000/svg" xmlns:xlink="http://www.w3.org/1999/xlink">
    <!-- Generator: Sketch 43.2 (39069) - http://www.bohemiancoding.com/sketch -->
    <title>Group 2</title>
    <desc>Created with Sketch.</desc>
    <defs></defs>
    <g id="Symbols" stroke="none" stroke-width="1" fill="none" fill-rule="evenodd">
        <g id="Banner-Copy-4" transform="translate(-544.000000, -34.000000)">
            <g id="Group-2" transform="translate(545.000000, 35.000000)">
                <path d="M0.459966578,21.2127591 L15.135111,6.55716966 C15.5423642,6.13971386 16.1247618,5.77242077 16.8661497,5.46549298 C17.6117887,5.15643965 18.2868598,5 18.8735085,5 L27.3943681,5 C27.8343546,5 28.1914451,5.15261368 28.5192031,5.48079686 C28.8469612,5.80898003 29,6.16649565 29,6.60605705 L29,15.1269166 C29,15.7152658 28.8435604,16.3903369 28.5340819,17.1355507 C28.2258788,17.8803395 27.85561,18.4729397 27.4339031,18.8954968 L12.8186989,33.5302559 C12.4769123,33.8507872 12.1091941,34 11.6624058,34 C11.2088159,34 10.8517254,33.8537629 10.5371456,33.5391832 L0.478671318,23.5023894 C0.152188572,23.157627 0,22.7873582 0,22.3375942 C0,21.8844293 0.146237064,21.5269137 0.459966578,21.2127591 Z" id="Fill-1" fill="#96DCBE"></path>
                <path d="M0,17.3375942 C0,16.8844293 0.146237064,16.5269137 0.459966578,16.2127591 L15.135111,1.55716966 C15.5423642,1.13971386 16.1247618,0.772420769 16.8661497,0.465492978 C17.6117887,0.156439649 18.2868598,0 18.8735085,0 L27.3943681,0 C27.8343546,0 28.1914451,0.15261368 28.5192031,0.480796857 C28.8469612,0.808980035 29,1.16649565 29,1.60605705 L29,10.1269166 C29,10.7152658 28.8435604,11.3903369 28.5340819,12.1355507 C28.2258788,12.8803395 27.85561,13.4729397 27.4339031,13.8954968 L12.8186989,28.5302559 C12.4769123,28.8507872 12.1091941,29 11.6624058,29 C11.2088159,29 10.8517254,28.8537629 10.5371456,28.5391832 L0.478671318,18.5023894 C0.152188572,18.157627 0,17.7873582 0,17.3375942 Z" id="Stroke-3" stroke="#373151" stroke-width="2"></path>
                <path d="M19.8762636,4.88071169 C20.4783664,4.27941771 21.1536595,4 22,4 C22.8475536,4 23.522038,4.27941771 24.1217145,4.87990295 C24.721391,5.47877072 25,6.15325516 25,7 C25,7.84674484 24.7205823,8.52082491 24.1209058,9.12131015 C23.5212293,9.72098666 22.8475536,10 22,10 C21.1548726,10 20.4807926,9.72098666 19.8794986,9.12211888 C19.2790133,8.52001617 19,7.84593611 19,6.99919127 C19,6.15244642 19.2790133,5.47877072 19.8762636,4.88071169 Z" id="Stroke-5" stroke="#373151" stroke-width="2" fill="#F8F7F7"></path>
            </g>
        </g>
    </g>
</svg>