<svg viewBox="0 0 52 37" xmlns="http://www.w3.org/2000/svg"><g fill="none" fill-rule="evenodd"><path d="M0 33.4599c0-9.941 4.029-18 9-18s9 8.059 9 18" fill="#98D94D"/><path d="M34 34.4599c0-9.941 4.029-18 9-18s9 8.059 9 18" fill="#F6EE61"/><path d="M20 36.4599c0-9.941 4.029-18 9-18s9 8.059 9 18" fill="#FF48A6"/><path d="M31 9c0 2.761-2.239 5-5 5s-5-2.239-5-5 2.239-5 5-5 5 2.239 5 5zM17 35.4599c0-9.941 4.029-18 9-18s9 8.059 9 18M17 6c0 2.761-2.239 5-5 5S7 8.761 7 6s2.239-5 5-5 5 2.239 5 5zM3 32.4599c0-9.941 4.029-18 9-18 2.41 0 4.599 1.895 6.214 4.98M35.2144 6c0 2.761 2.239 5 5 5s5-2.239 5-5-2.239-5-5-5-5 2.239-5 5zm14 26.4599c0-9.941-4.029-18-9-18-2.41 0-4.599 1.895-6.214 4.98" stroke="#373151" stroke-width="2"/></g></svg>
