<svg viewBox="0 0 23 33" xmlns="http://www.w3.org/2000/svg" width="22" height="33"><g fill="none" fill-rule="evenodd"><path d="M13.837175 32.9412601c-.0994746-.0583016-.1724516-.1534253-.2024243-.2660832l-2.3617624-8.890335c-.0508233-.195946-.2232749-.3305218-.42092105-.3305218-.0369229 0-.0738458.0043836-.10989992.0144658-.04300432.0109589-.0838367.0289316-.12206276.0534797l-4.9589625 3.0575458c-.06950194.0425207-.148126.0640002-.22675005.0640002-.08427108 0-.16854217-.0249864-.2415192-.0740825-.1407414-.0951236-.21371842-.2638914-.1876552-.4326591l3.407332-21.76753436c.02693198-.17095955.15116668-.30991898.31710253-.35463147C8.76657505 4.00482194 8.80436672 4 8.841724 4c.12901296 0 .25411643.0583016.33795313.16263075L22.9037014 21.2997914c.1059905.1328224.1264067.3156176.0516921.4690429-.072977.1503567-.2245781.245042-.3896452.245042-.0034751 0-5.833818-.137206-5.833818-.137206-.2393473 0-.434387.1933158-.4382965.4313441-.0004344.0390138.0043438.078466.0139004.1166032l2.3608936 8.8863897c.0621173.2340831-.075149.4743032-.3066773.5369883l-4.1948757 1.1371002C14.1299519 32.9947397 14.0921602 33 14.0543686 33c-.0755834 0-.150298-.0197261-.2171936-.0587399z" fill="#D2F05A"/><path d="M9.83717503 29.9412601c-.09947463-.0583016-.17245166-.1534253-.20242436-.2660832l-2.36176237-8.890335c-.05082328-.195946-.22327494-.3305218-.42092105-.3305218-.0369229 0-.0738458.0043836-.10989992.0144658-.04300432.0109589-.0838367.0289316-.12206276.0534797l-4.9589625 3.0575458c-.06950194.0425207-.148126.0640002-.22675005.0640002-.08427108 0-.16854217-.0249864-.2415192-.0740825-.1407414-.0951236-.21371842-.2638914-.1876552-.4326591l3.407332-21.76753436c.02693198-.17095955.15116668-.30991898.31710253-.35463147C4.76657505 1.00482194 4.80436672 1 4.841724 1c.12901296 0 .25411643.0583016.33795313.16263075L18.9037014 18.2997914c.1059905.1328224.1264067.3156176.0516921.4690429-.072977.1503567-.2245781.245042-.3896452.245042-.0034751 0-5.833818-.137206-5.833818-.137206-.2393473 0-.434387.1933158-.4382965.4313441-.0004344.0390138.0043438.078466.0139004.1166032l2.3608936 8.8863897c.0621173.2340831-.075149.4743032-.3066773.5369883l-4.1948757 1.1371002C10.1299519 29.9947397 10.09216023 30 10.05436855 30c-.07558334 0-.1502979-.0197261-.21719352-.0587399z" stroke="#373151" stroke-width="2"/></g></svg>
