<svg viewBox="0 0 385 61" xmlns="http://www.w3.org/2000/svg" xmlns:xlink="http://www.w3.org/1999/xlink"><defs><path id="a" d="M48.5932058.49244262H.2452827V56.4816738h48.3479231V.49244262z"/><path id="c" d="M0 3.6991V7h6.601V.3982H0z"/><path id="e" d="M0 61h385V1H0z"/></defs><g fill="none" fill-rule="evenodd"><path d="M77.2920331 21.9446422c0 2.6670524 0 4.8612496.1399539 6.0275009.0835966.8055358.2517292 1.4166963 1.0886346 1.5279014.3907438.0560698 1.005038.1112051 1.2567672.1112051.1671932 0 .2226112.0831701.2226112.1663403C80 29.9168298 79.8609854 30 79.5538383 30c-1.5357357 0-3.2950218-.0831702-3.4349757-.0831702-.1390146 0-1.8983007.0831702-2.7352062.0831702-.3071471 0-.447101-.0551353-.447101-.2224101 0-.0831702.055418-.1663403.2235505-.1663403.2517291 0 .5861156-.0551353.8378447-.1112051.557937-.1112051.6978909-.7223656.8096662-1.5279014.1390146-1.1662513.1390146-3.3604485.1390146-6.0275009v-2.9165628c0-.1112051-.0835966-.1663403-.1671933-.1663403H62.9415934c-.0835966 0-.1671933.0271003-.1671933.1663403v2.9165628c0 2.6670524 0 4.8612496.1390146 6.0275009.0835967.8055358.2517292 1.4166963 1.0895739 1.5279014.3907438.0560698 1.0040988.1112051 1.2558279.1112051.1671932 0 .2235505.0831701.2235505.1663403 0 .1392399-.1399539.2224101-.447101.2224101-1.5357356 0-3.2940825-.0831702-3.4340364-.0831702-.1399539 0-1.8983007.0831702-2.7361455.0831702-.3071471 0-.4461617-.0551353-.4461617-.2224101 0-.0831702.055418-.1663403.2235505-.1663403.2507898 0 .5861156-.0551353.8369055-.1112051.5579369-.1112051.6978908-.7223656.8096661-1.5279014.1399539-1.1662513.1399539-3.3604485.1399539-6.0275009v-4.8883499c0-4.3341937 0-5.1116946-.0563573-6.0004005-.055418-.9447757-.2789685-1.38866147-1.2004099-1.5830367-.2235505-.05606977-.6978908-.08410466-.9486807-.08410466-.1117752 0-.2235505-.05513527-.2235505-.16634033C58 9.0560698 58.1390146 9 58.4461617 9c1.2567672 0 3.015114.08410466 3.1550679.08410466C61.7411835 9.08410466 63.4995304 9 64.3373751 9c.3071471 0 .447101.05606978.447101.2224101 0 .11120507-.1117752.16634034-.2235505.16634034-.1953718 0-.3625651.0280349-.6978908.08410467-.7542482.1383055-.9768594.6111606-1.0332167 1.5830367-.055418.8887059-.055418 1.6662068-.055418 6.0004005v.5831256c0 .13924.0835967.1663404.1671933.1663404h11.8378447c.0835967 0 .1671933-.0271004.1671933-.1663404v-.5831256c0-4.3341937 0-5.1116946-.055418-6.0004005-.0563573-.9447757-.2799078-1.3886614-1.2013492-1.5830367-.2226112-.0560697-.6978908-.0841046-.9486807-.0841046-.1117753 0-.2235505-.05513524-.2235505-.1663403 0-.16634032.1399539-.2224101.447101-.2224101 1.2558279 0 3.015114.08410466 3.1541286.08410466.1399539 0 1.89924-.08410466 2.7370848-.08410466.3071471 0 .4461617.05606977.4461617.2224101 0 .11120506-.1117752.16634033-.2235505.16634033-.1953719 0-.3625651.0280349-.6978909.08410468-.7533088.13830548-.9768593.6111606-1.0322773 1.5830367-.0563573.8887059-.0563573 1.6662068-.0563573 6.0004005v4.8883499zm17.2963726 7.0571763c2.2667374 0 6.8291743-1.1987775 6.8291743-8.2167609 0-5.8192059-3.5574651-8.8722974-7.5464597-8.8722974-4.2177921 0-7.2597383 2.6250252-7.2597383 7.9029096 0 5.6483633 3.414587 9.1861487 7.9770237 9.1861487M94.0139982 11C99.6962881 11 104 14.4514043 104 20.1007274 104 25.5216205 99.9550128 30 93.8711203 30 86.9550611 30 84 24.8363306 84 20.4712063 84 16.562942 87.0419462 11 94.0139982 11m13.1383118 8.1468697c0-3.8344051 0-4.5322805-.05697-5.3161685-.057936-.7848655-.201809-1.2491384-1.033186-1.3654509-.200844-.0293225-.631499-.058645-.86131-.058645-.085938 0-.200844-.1163126-.200844-.2033027 0-.145635.114906-.2033026.401687-.2033026 1.148092 0 2.668903.0576676 2.898714.0576676.229812 0 1.807593-.0576676 2.553998-.0576676.287747 0 .430655.0576676.430655.2033026 0 .0869901-.113941.2033027-.229812.2033027-.171876 0-.314784 0-.630533.058645-.660466.1163125-.80434.5522403-.86131 1.3654509-.05697.783888-.05697 1.4817634-.05697 5.3161685v3.4571223c0 3.5734348.774406 5.0561757 1.865528 6.0433664 1.23403 1.1328258 2.324186 1.3361284 3.759059 1.3361284 1.550744 0 3.042588-.696898 3.903898-1.7427337 1.176094-1.4240959 1.434873-3.4571223 1.434873-5.9847214v-3.109162c0-3.8344051-.028968-4.5322805-.05697-5.3161685-.028968-.7848655-.172841-1.2491384-1.005184-1.3654509-.200843-.0293225-.631498-.058645-.860344-.058645-.114906 0-.20181-.1163126-.20181-.2033027 0-.145635.114906-.2033026.402653-.2033026 1.119124 0 2.582965.0576676 2.725873.0576676.172842 0 1.377903-.0576676 2.124308-.0576676.286781 0 .401687.0576676.401687.2033026 0 .0869901-.085938.2033027-.200844.2033027-.171875 0-.315749 0-.631498.058645-.689435.1446576-.832343.5522403-.890278 1.3654509-.05697.783888-.028003 1.4817634-.028003 5.3161685v2.6439117c0 2.6722568-.344717 5.6651062-2.353153 7.4088173C118.058698 30.7966974 116.107232 31 114.615389 31c-.833308 0-3.473243-.0576676-5.252834-1.7427337-1.234029-1.1621482-2.210245-2.8765368-2.210245-6.4783168v-3.6320798zm19.205462 10.1976274c-.330893-.1705841-.357772-.2568344-.357772-.911379 0-1.1969636.109371-2.1648845.137177-2.5635529 0-.2568344.055612-.3986684.192789-.3986684.138103 0 .220595.085292.220595.2846263 0 .1993342 0 .5405023.082491.8826288.385578 1.7662161 2.204097 2.3929689 3.829827 2.3929689 2.396886 0 3.636111-1.3953395 3.636111-3.2190558 0-1.737466-.908333-2.5635529-3.057744-4.2157269l-1.102049-.854837c-2.61748-2.0220922-3.471128-3.5036821-3.471128-5.1836478C126.468069 12.7087158 128.64436 11 131.840208 11c.964871 0 1.928816.141834 2.507183.2846262.468996.1140422.660858.1140422.854574.1140422.191862 0 .247474.0287501.247474.1705841 0 .1140422-.110297.911379-.110297 2.5645112 0 .3699183-.027806.5405024-.192789.5405024s-.192789-.1140422-.220595-.3133764c-.027806-.2846262-.220595-.9401291-.357772-1.1960052-.16591-.2855846-.964872-1.1969636-3.141162-1.1969636-1.762907 0-3.222727.911379-3.222727 2.6210532 0 1.5381317.743349 2.4207606 3.140235 4.1016846l.688665.4849188C134.98137 21.25517 136 22.9351357 136 25.0147281c0 1.4240896-.523682 2.9622214-2.258782 4.1304348C132.721661 29.8284576 131.206229 30 129.884512 30c-1.129854 0-2.534989-.1715424-3.52674-.6555029m16.689978-10.359977c0-3.6436532 0-4.3068111-.055096-5.0517028-.054178-.8006192-.191001-1.1869969-.982553-1.2975232-.191001-.0278638-.600551-.0557275-.818182-.0557275-.081726 0-.191919-.1105264-.191919-.1931889 0-.1383901.110193-.1931888.382002-.1931888 1.091827 0 2.648301.0547987 2.785124.0547987.163453 0 5.185491.0278638 5.730946 0 .464646-.026935.900826-.1105263 1.091827-.1374613.109275-.0278638.218549-.1105263.327824-.1105263.081726 0 .109274.1105263.109274.2210526 0 .1653251-.135904.4411765-.191001 1.1043344-.027548.2210526-.081726 1.2696594-.136822 1.5455108-.02663.1105263-.109275.2489164-.217631.2489164-.136823 0-.191001-.1105263-.191001-.3037151 0-.1662539-.027548-.5517028-.136823-.828483-.163453-.3863777-.40955-.5526316-1.719927-.7179567-.40955-.0547987-3.192837-.0826625-3.466483-.0826625-.109274 0-.135904.0826625-.135904.2479876v6.3780186c0 .1653251 0 .2479876.135904.2479876.301194 0 3.466483 0 4.012856-.0547987.573003-.0557276.927457-.0826626 1.173554-.331579.163453-.1653251.272727-.3027864.355372-.3027864.080808 0 .135904.0547988.135904.1922601 0 .1383901-.135904.5247678-.191001 1.2975232-.055096.469969-.109274 1.3532508-.109274 1.5185759 0 .1931888-.054178.4421052-.218549.4421052-.109275 0-.163453-.0835913-.163453-.2210526 0-.2210526 0-.4690403-.109274-.7727554-.081727-.331579-.300276-.6074304-1.228651-.7179567C148.370064 21.0278638 145.804408 21 145.394858 21c-.136823 0-.163453.0826625-.163453.1653251v1.9597523c0 .801548-.027548 3.5340557 0 4.0040248.054178 1.5733746.491276 1.8770898 2.865932 1.8770898.628099 0 1.774105 0 2.401286-.2489165.628099-.2758514.955922-.6900928 1.092745-1.6281733.054178-.2758514.108357-.3594428.245179-.3594428.136823 0 .163453.1931889.163453.3594428 0 .165325-.191001 1.7665634-.326905 2.2634675C151.508724 30 151.263545 30 150.33517 30c-1.800735 0-3.193756-.0547988-4.176309-.0826625-1.010101-.0557276-1.637282-.0557276-1.991735-.0557276-.055097 0-.518825 0-1.037649.0278638-.464647.0278638-1.010101.0557275-1.392103.0557275-.245179 0-.382002-.0557275-.382002-.1941176 0-.0826625.054178-.1931889.191001-.1931889.217631 0 .518824-.0826625.736455-.1095975.464647-.0835913.518825-.5526316.628099-1.2427244.136823-.9659443.136823-2.8160991.136823-5.0804954v-4.1405573zm13.310022 10.359977c-.330893-.1705841-.357772-.2568344-.357772-.911379 0-1.1969636.109371-2.1648845.137177-2.5635529 0-.2568344.055612-.3986684.192789-.3986684.138103 0 .220595.085292.220595.2846263 0 .1993342 0 .5405023.082491.8826288.385578 1.7662161 2.204097 2.3929689 3.829827 2.3929689 2.396886 0 3.636111-1.3953395 3.636111-3.2190558 0-1.737466-.908333-2.5635529-3.057744-4.2157269l-1.102049-.854837c-2.61748-2.0220922-3.471128-3.5036821-3.471128-5.1836478C156.468069 12.7087158 158.64436 11 161.840208 11c.964871 0 1.928816.141834 2.507183.2846262.468996.1140422.660858.1140422.854574.1140422.191862 0 .247474.0287501.247474.1705841 0 .1140422-.110297.911379-.110297 2.5645112 0 .3699183-.027806.5405024-.192789.5405024s-.192789-.1140422-.220595-.3133764c-.027806-.2846262-.220595-.9401291-.357772-1.1960052-.16591-.2855846-.964872-1.1969636-3.141162-1.1969636-1.762907 0-3.222727.911379-3.222727 2.6210532 0 1.5381317.743349 2.4207606 3.140235 4.1016846l.688665.4849188C164.98137 21.25517 166 22.9351357 166 25.0147281c0 1.4240896-.523682 2.9622214-2.258782 4.1304348C162.721661 29.8284576 161.206229 30 159.884512 30c-1.129854 0-2.534989-.1715424-3.52674-.6555029m28.112925.8148792c1.813229 0 5.462872-1.0095249 5.462872-6.9191288 0-4.9010495-2.846444-7.4714554-6.036983-7.4714554-3.374182 0-5.807895 2.2102772-5.807895 6.6541285 0 4.7573864 2.731435 7.7364557 6.382006 7.7364557M184.011594 15C188.556258 15 192 17.9062671 192 22.6636535 192 27.2278711 188.763086 31 183.896586 31 178.36508 31 176 26.6512771 176 22.9762179 176 19.6845841 178.433714 15 184.011594 15m12.675679 5.8385132c0-3.0460592 0-3.5998881-.045455-4.2227126-.044545-.6694431-.157273-.9920438-.81-1.0843486-.157273-.0233093-.494545-.0466186-.674545-.0466186-.067273 0-.157273-.0923048-.157273-.1613003 0-.1156142.09-.1613004.314545-.1613004.9 0 2.137273.0456862 2.25.0456862.382728 0 4.68.0233093 5.13 0 .382728-.0223769.72-.0223769.9-.0923048.112728-.0233093.202728-.1156141.27-.1156141.09 0 .135455.0923048.135455.185542 0 .1379911-.090909.3692193-.158182.9221159-.022727.185542-.044545 1.0619716-.09 1.2922675-.021818.0923048-.09.207919-.18.207919s-.157273-.0923049-.157273-.2302959c0-.1622327-.067272-.4848334-.18-.7384386-.112727-.2545375-.584545-.5771382-1.35-.5771382l-3.24-.0466186c-.112727 0-.157272.0466186-.157272.2079189v5.3536798c0 .1156141 0 .1846096.134545.1846096l2.7-.0233093c.337273 0 .63 0 .9-.0223769.472727-.0466186.742727-.1156141.922727-.3468424.09-.1146817.18-.2069866.247273-.2069866.09 0 .112727.0689956.112727.1613004 0 .1156141-.134545.4382148-.18 1.0843486-.045454.3925286-.067272 1.1766534-.067272 1.3155768 0 .1846097-.045455.3925286-.18.3925286-.112728 0-.135455-.0923048-.135455-.185542-.022727-.2069866-.044545-.4839011-.134545-.7151293-.09-.2759821-.405455-.5305197-1.012728-.6228245-.494545-.0689955-2.835454-.0456862-3.172727-.0456862-.112727 0-.134545.0456862-.134545.1846096v1.5682497c0 1.9393336 0 3.4852063.09 4.2469542.067272.5762059.18.9454252.72 1.03773.291818.0466186.72.0923048.9.0923048.111818 0 .157272.0923049.157272.1613004 0 .0932372-.09.1622327-.314545.1622327-1.102727 0-2.385455-.0689955-2.475455-.0689955-.112727 0-1.35.0689955-1.957272.0689955-.202728 0-.315455-.0466186-.315455-.1622327 0-.0689955.045455-.1613004.158182-.1613004.179091 0 .427273-.0689955.607273-.0923048.382727-.0689955.427272-.4615241.517272-1.03773.112728-.8083665.112728-2.3542392.112728-4.2469542v-3.4609647zm19.793473-3.7831554c0-4.3332592 0-5.1107601-.057558-5.999466-.056599-.9447757-.284912-1.38959597-1.225984-1.5839712-.228313-.05513527-.712758-.08317016-.968891-.08317016-.114156 0-.228313-.05513527-.228313-.16634033C214 9.0551353 214.141976 9 214.456626 9c1.282582 0 2.993011.08317017 3.222283.08317017.626422 0 2.280252-.08317017 3.592572-.08317017 3.563794 0 4.846376 1.1662513 5.303002 1.5830367C227.201864 11.1661623 228 12.4165183 228 13.8883499c0 3.9445088-2.965191 6.6115611-7.014389 6.6115611-.142936 0-.455667 0-.598603-.0280349-.142935 0-.31369-.0551353-.31369-.1943752 0-.2224101.170755-.250445.769357-.250445 2.766616 0 4.933671-1.9717871 4.933671-4.5276344 0-.9158063-.085377-2.7773229-1.596272-4.2771894-1.511854-1.4998665-3.251062-1.38959593-3.906263-1.38959593-.485405 0-.97081.05606978-1.226942.16727483-.170756.0551353-.228313.2495105-.228313.5279904v11.4158063c0 2.6670524 0 4.8612496.142935 6.0284354.085378.8055358.257092 1.4157618 1.111827 1.5269669.400027.0560698 1.026449.1112051 1.283541.1112051.170755 0 .228313.0831701.228313.1672748 0 .1383054-.142935.2224101-.456626.2224101-1.568453 0-3.365219-.0841047-3.507195-.0841047-.085377 0-1.882143.0841047-2.737837.0841047-.313691 0-.455667-.0560698-.455667-.2224101 0-.0841047.056599-.1672748.228313-.1672748.256133 0 .598602-.0551353.854735-.1112051.569823-.1112051.712759-.7214311.826915-1.5269669.142936-1.1671858.142936-3.361383.142936-6.0284354v-4.8883499zm21.507144 5.1023408c.116217 0 .116217-.0581989.087895-.1736267l-2.525514-6.7171227c-.145515-.3753829-.29103-.3753829-.435568 0l-2.380976 6.7171227c-.028321.1154278 0 .1736267.086919.1736267h5.167244zm-2.844865-10.2071166c.319351-.8070247.435568-.950582.610381-.950582.261731 0 .347673.3453135.609405.8933531.46389 1.0378803 4.556863 11.1576986 6.124322 14.8775781.929733 2.1911885 1.626056 2.5083725 2.177841 2.6810292.377948.1154278.753943.1435573 1.015674.1435573.144539 0 .319352.0581989.319352.2017561 0 .1445273-.290053.2027262-.581083.2027262-.375995 0-2.263782 0-4.0334-.0581989-.494165-.0281295-.900435-.0281295-.900435-.1726567 0-.1154278.05762-.1154278.173837-.1736267.145515-.057229.40627-.2589851.232433-.6624975l-2.293081-5.6220135c-.058596-.1154278-.087895-.1445272-.232433-.1445272h-5.893842c-.116217 0-.202159.0581989-.260755.2017562l-1.451243 3.9206657c-.232433.6062385-.376971 1.211507-.376971 1.6441188 0 .4898407.434591.6624975.871136.6624975h.231456c.203135 0 .260755.0872983.260755.2017561 0 .1445273-.144538.2027262-.375995.2027262-.610381 0-2.004004-.0863284-2.294057-.0863284-.261731 0-1.538161.0863284-2.583134.0863284C226.17286 30 226 29.9418011 226 29.7972738c0-.1144578.11524-.2017561.231457-.2017561.174813 0 .550808-.0281295.753943-.057229 1.162166-.1445272 1.655354-1.0087808 2.148542-2.2493873l6.009083-15.3383194zm15.164512 8.9510033c0 .1403233.057587.2241406.171802.3079579.370479.1958877 1.653718.3635223 2.767074.3635223.598909 0 1.283239-.0273113 1.882148-.4190865.856133-.5603516 1.512629-1.8204364 1.512629-3.639931 0-2.9665672-1.654678-4.6749333-4.33633-4.6749333-.741918 0-1.540463.0847591-1.797687.1403234-.114215.0555643-.199636.1403233-.199636.2797049v7.6424423zm-2.168165-2.0153822c0-3.6954952 0-4.3669753-.056628-5.1232146-.057587-.8108617-.199636-1.2026369-1.027935-1.315649-.199636-.0273112-.626743-.0555643-.855173-.0555643-.085421 0-.199636-.1120703-.199636-.1958876 0-.1403233.114215-.1958876.399273-.1958876 1.14119 0 2.823701.0555643 2.96767.0555643.256264 0 2.366842-.0555643 3.137553-.0555643 1.59709 0 3.365983.1393816 4.678975 1.0350024.626743.4482812 1.740099 1.5962957 1.740099 3.2481557 0 1.7629885-.741917 3.4704128-3.080925 5.4302307 2.05299 2.5192277 3.794049 4.6749333 5.248131 6.1582169 1.341786 1.3439021 2.169125 1.5680427 2.795868 1.65186.485653.0838173.742877.0838173.884926.0838173.143009 0 .22843.1120703.22843.1958876C265 29.943494 264.856991 30 264.401091 30h-1.569256c-1.426248 0-2.053951-.1403233-2.681653-.4765343-1.084563-.5594098-1.997323-1.7074243-3.42453-3.4996076-1.054809-1.287396-2.167206-2.8262439-2.709487-3.4704128-.114215-.1120703-.170843-.1403233-.341685-.1403233l-3.195141-.0555643c-.114215 0-.171802.0555643-.171802.1958876v.5594098c0 2.2960289 0 4.1437765.114215 5.1232146.085421.6997332.22843 1.1470727.998181 1.2600847.342645.0555643.884927.1111286 1.112397.1111286.171802 0 .199636.1120703.199636.1958876 0 .1120703-.113255.1968294-.399273.1968294-1.36866 0-2.96575-.0847591-3.080925-.0847591-.028794 0-1.711305.0847591-2.481057.0847591-.257223 0-.400232-.056506-.400232-.1968294 0-.0838173.057587-.1958876.200596-.1958876.22747 0 .541321-.0555643.769751-.1111286.484694-.113012.542282-.5603515.656497-1.2600847.142049-.9794381.142049-2.8554387.142049-5.1514676v-4.198399zm21.166235 4.2206193c0 3.4888379.056075 4.9112248.5 5.3299604.388786.3915085 1.333645.5586272 3.250468.5586272 1.27757 0 2.360747-.0281661 2.943925-.7257459.305607-.3624035.5-.8646985.583178-1.3397663.028037-.1671187.111215-.3070103.250467-.3070103.111215 0 .166355.1117255.166355.3633424 0 .2506781-.166355 1.6740038-.360748 2.3715836-.166355.5586271-.250467.6421865-1.55514.6421865-1.750467 0-3.111215-.0281661-4.250467-.0835594-1.11215-.028166-1.94486-.0563321-2.66729-.0563321-.111215 0-.527103 0-1 .0281661-.5.028166-1.028037.0563321-1.416822.0563321-.249533 0-.388785-.0563321-.388785-.1962236 0-.0835594.056074-.1952848.194392-.1952848.22243 0 .528038-.0553933.750467-.1107866.471963-.1126643.527103-.5586272.639253-1.256207.138318-.9764239.138318-2.8466513.138318-5.1356144v-4.1854788c0-3.6831838 0-4.3535364-.056075-5.1074484-.05514-.8083664-.194393-1.1989359-1-1.3106614-.194393-.028166-.610281-.0563321-.83271-.0563321-.083178 0-.194393-.1117255-.194393-.1952848 0-.1398915.111215-.1952848.388785-.1952848 1.111215 0 2.639252.0553933 2.77757.0553933.111215 0 1.943925-.0553933 2.694393-.0553933.250467 0 .388785.0553933.388785.1952848 0 .0835593-.110281.1671187-.194393.1671187-.166355 0-.527103.0281661-.804673.0563322-.723364.1398915-.861682.502295-.917757 1.3388274-.027103.753912-.027103 1.4242646-.027103 5.1074484v4.2418109zm14.500529-.0216403c0 2.296149 0 4.171306.105825 5.1517371.079146.698828.158292 1.1471327.845709 1.2592089.343264.056509.846599.1120762 1.057359.1120762.131614 0 .184971.1120762.184971.1958978 0 .1120762-.105825.1958979-.369942.1958979-1.294798 0-2.802134-.0838217-2.907959-.0838217-.131614 0-1.585594.0838217-2.299689.0838217-.237439 0-.369942-.0555672-.369942-.1958979 0-.0838216.053357-.1958978.184971-.1958978.211649 0 .502445-.0555672.714095-.1120762.449088-.1120762.528235-.5603809.60827-1.2592089.104936-.9804311.131614-2.8555881.131614-5.1517371v-4.1986187c0-3.6956886 0-4.3672038-.053357-5.1234826-.052467-.811846-.237439-1.1753872-.739884-1.2874634-.264117-.056509-.555803-.0838217-.713206-.0838217-.105825 0-.184971-.1120762-.184971-.1968397 0-.1393888.105825-.194956.369942-.194956.766563 0 2.220543.0555672 2.352157.0555672.105825 0 1.613161-.0555672 2.326367-.0555672.264117 0 .369053.0555672.369053.194956 0 .0847635-.104936.1968397-.184082.1968397-.158292 0-.317474 0-.581592.0555672-.634949.1403307-.766563.4756174-.81992 1.3157179-.025789.7562788-.025789 1.427794-.025789 5.1234826v4.1986187zm15.181754-.9274835c.116217 0 .116217-.0581989.087895-.1736267l-2.525514-6.7171227c-.146492-.3753829-.29103-.3753829-.435568 0l-2.380976 6.7171227c-.028321.1154278 0 .1736267.086919.1736267h5.167244zm-2.844865-10.2071166c.319351-.8070247.435568-.950582.610381-.950582.260755 0 .347673.3453135.609405.8933531.464866 1.0378803 4.557839 11.1576986 6.125299 14.8775781.928756 2.1911885 1.625079 2.5083725 2.176864 2.6810292.377948.1154278.753943.1435573 1.015674.1435573.144539 0 .319352.0581989.319352.2017561 0 .1445273-.290053.2027262-.581083.2027262-.375995 0-2.263782 0-4.034377-.0581989-.493188-.0281295-.899458-.0281295-.899458-.1726567 0-.1154278.05762-.1154278.173837-.1736267.145515-.057229.40627-.2589851.232433-.6624975l-2.294057-5.6220135c-.05762-.1154278-.086919-.1445272-.231457-.1445272h-5.892866c-.117193 0-.203135.0581989-.261731.2017562l-1.451243 3.9206657c-.232433.6062385-.376971 1.211507-.376971 1.6441188 0 .4898407.434591.6624975.870159.6624975h.232433c.203135 0 .260755.0872983.260755.2017561 0 .1445273-.144538.2027262-.375995.2027262-.610381 0-2.004004-.0863284-2.294057-.0863284-.260755 0-1.538161.0863284-2.58411.0863284C287.17286 30 287 29.9418011 287 29.7972738c0-.1144578.11524-.2017561.231457-.2017561.174813 0 .550808-.0281295.754919-.057229 1.16119-.1445272 1.654378-1.0087808 2.148543-2.2493873l6.008106-15.3383194zm32.756853 14.8581909c.085157.8705121.256429 2.2045817 1.280235 2.5529817.710923.2322667 1.365394.2322667 1.620867.2322667.113862 0 .19902.0575787.19902.173712C332 29.913144 331.772275 30 331.488097 30c-.569313 0-3.356552-.0585546-4.266496-.1454107-.59706-.0575787-.710923-.1444347-.710923-.260568 0-.0868561.056453-.174688.171272-.2029894.141611-.0292773.170316-.4059787.113863-.8705121l-1.195078-12.4731111h-.056453l-6.02993 12.5892444c-.511903 1.0735015-.653513 1.3047923-.881238 1.3047923-.227725 0-.369336-.2312908-.853491-1.1310802-.65447-1.2179362-2.303084-4.379886-2.929807-5.7149314-.738671-1.5663363-2.757578-5.7139556-3.18528-6.7298783h-.113862l-.967353 11.1390416c-.027748.3776773-.027748.8422106-.027748 1.2481894 0 .3767014.226768.6089681.59706.6958241.426745.1161334.796081.1454107.967353.1454107.085158 0 .19902.086856.19902.173712 0 .1737121-.171272.2322667-.45545.2322667-.937691 0-2.132769-.086856-2.331789-.086856-.227725 0-1.422803.086856-2.104065.086856-.25643 0-.427702-.0585546-.427702-.2322667 0-.086856.113863-.173712.25643-.173712.19902 0 .370292-.0292773.739628-.0868561.824786-.1454106.85349-1.0452.966396-1.9732908l1.819887-16.0986184c.029661-.2615439.143524-.435256.285135-.435256.170315 0 .369335.086856.511902.3767014l7.565639 15.3159382 7.280504-15.2866609c.113862-.2322666.227725-.4059787.39804-.4059787.171272 0 .312883.2029894.370292.6665468l1.706025 15.1422261zm6.147125-7.8242528c0-3.6436532 0-4.3068111-.055101-5.0517028-.054183-.8006192-.191017-1.1869969-.982635-1.2975232-.191017-.0278638-.599683-.0557275-.819168-.0557275-.080815 0-.190099-.1105264-.190099-.1931889 0-.1383901.109284-.1931888.381115-.1931888 1.092837 0 2.648523.0547987 2.785357.0547987.162548 0 5.185924.0278638 5.732342 0 .463767-.026935.899984-.1105263 1.091001-.1374613.110202-.0278638.219485-.1105263.327851-.1105263.082651 0 .109283.1105263.109283.2210526 0 .1653251-.135915.4411765-.191016 1.1043344-.026633.2210526-.081734 1.2696594-.135916 1.5455108-.028469.1105263-.110202.2489164-.219486.2489164-.135916 0-.191017-.1105263-.191017-.3037151 0-.1662539-.026632-.5517028-.135916-.828483-.164384-.3863777-.409584-.5526316-1.719152-.7179567-.410502-.0547987-3.19494-.0826625-3.46769-.0826625-.109284 0-.135916.0826625-.135916.2479876v6.3780186c0 .1653251 0 .2479876.135916.2479876.3003 0 3.46769 0 4.013191-.0547987.573969-.0557276.927533-.0826626 1.173651-.331579.164385-.1653251.273669-.3027864.355402-.3027864.080815 0 .135916.0547988.135916.1922601 0 .1383901-.135916.5247678-.191017 1.2975232-.055101.469969-.109284 1.3532508-.109284 1.5185759 0 .1931888-.055101.4421052-.217649.4421052-.110202 0-.164385-.0835913-.164385-.2210526 0-.2210526 0-.4690403-.109283-.7727554-.081733-.331579-.299382-.6074304-1.227835-.7179567C340.369761 21.0278638 337.80389 21 337.394306 21c-.136834 0-.163466.0826625-.163466.1653251v1.9597523c0 .801548-.027551 3.5340557 0 4.0040248.055101 1.5733746.491317 1.8770898 2.866171 1.8770898.628152 0 1.774253 0 2.401486-.2489165.628152-.2758514.956003-.6900928 1.092837-1.6281733.054183-.2758514.109284-.3594428.2452-.3594428.136834 0 .163466.1931889.163466.3594428 0 .165325-.191017 1.7665634-.326933 2.2634675C343.508683 30 343.262565 30 342.335031 30c-1.800885 0-3.194022-.0547988-4.175739-.0826625-1.011104-.0557276-1.639255-.0557276-1.99282-.0557276-.055101 0-.519786 0-1.037736.0278638-.463767.0278638-1.010185.0557275-1.392219.0557275-.2452 0-.382034-.0557275-.382034-.1941176 0-.0826625.055101-.1931889.191017-.1931889.218567 0 .518868-.0826625.737435-.1095975.463767-.0835913.51795-.5526316.628152-1.2427244.135916-.9659443.135916-2.8160991.135916-5.0804954v-4.1405573zm16.427456 7.5088886c.057021 2.0124701.282253 2.615921.960799 2.7880592.451413.1150812 1.016868.1440933 1.2421.1440933.114041 0 .197672.0860691.197672.2011503 0 .1440932-.168211.2011503-.451414.2011503-1.413162 0-2.40152-.0860692-2.626752-.0860692-.226182 0-1.271561.0860692-2.401521.0860692-.254692 0-.395343-.0290121-.395343-.2011503 0-.1150812.085531-.2011503.197672-.2011503.197671 0 .649085-.0290121 1.016868-.1440933.621526-.1721382.706106-.8336133.706106-3.0472337V12.2359139c0-.9777065.141602-1.2359139.339273-1.2359139.283203 0 .706106.4883697.959848.7465771.395343.4023006 4.011404 4.3121596 7.853647 8.3370998 2.457591 2.5869089 5.112854 5.4900494 5.87598 6.2946506l-.254692-12.2450247c-.028511-1.5811574-.170112-2.1275513-.932288-2.2706775-.452364-.0870362-1.016869-.1160482-1.21454-.1160482-.169162 0-.198622-.1431262-.198622-.2291953 0-.1440933.198622-.1731053.480874-.1731053 1.12996 0 2.31694.0580241 2.599192.0580241.281302 0 1.101449-.0580241 2.118318-.0580241.254692 0 .452364.029012.452364.1731053 0 .0860691-.113091.2291953-.282252.2291953-.113091 0-.310763 0-.593966.0580241-.819197.1721383-.875267.661475-.875267 2.1275513l-.057021 14.3145518c0 1.6101695-.02756 1.7532957-.197671 1.7532957-.253742 0-.508435-.2011503-1.892136-1.4941212-.253742-.2301624-3.842243-3.8237899-6.468995-6.6118492-2.881445-3.0752786-5.678309-6.0654553-6.440485-6.9271135l.282252 11.5264926zm26.811212-3.658543c0 2.3792696 0 4.3223072.114389 5.33823.085551.7241255.19994 1.1886589.970862 1.3047922.343166.0585546.914149.1161334 1.142926.1161334.172064 0 .19994.1161333.19994.2029893 0 .1161334-.114389.2029894-.39988.2029894-1.370742 0-2.972184-.086856-3.114449-.086856-.114388 0-1.857134.086856-2.60018.086856-.285491 0-.39988-.0575787-.39988-.2029894 0-.086856.057675-.173712.19994-.173712.228778 0 .514269-.0585546.743046-.1161334.51523-.1161333.657495-.609944.743046-1.3340695.114389-1.0159228.114389-2.9589604.114389-5.33823V12.4794802l-3.628718.0575787c-1.571643.0292773-2.171462.2029894-2.543466.7836561-.285491.435256-.314329.6089681-.39988.7826801-.056714.2029894-.142265.2322667-.256654.2322667-.057675 0-.171102-.0585546-.171102-.2029893 0-.261544.513307-2.4651498.542145-2.6681391.057675-.1454107.172063-.4645334.257615-.4645334.172063 0 .427756.2029894 1.114088.2898454.714208.086856 1.686032.1161333 1.971523.1161333h9.485611c.828597 0 1.400541-.0575787 1.800421-.1161333.372003-.0585546.59982-.1161333.714208-.1161333.114389 0 .114389.1454106.114389.2908213 0 .7534028-.086512 2.5237043-.086512 2.8125738 0 .2029894-.113428.3200986-.227817.3200986-.114388 0-.172063-.0878319-.19994-.435256l-.028837-.261544c-.085551-.7543788-.627696-1.3047923-3.028898-1.3633469l-3.142325-.0575787v10.3553855zM59.6462166 58.1748319C59.114667 57.950048 59 57.7992315 59 57.0854947c0-1.7262248.1525654-3.715658.1904639-4.2411143 0-.4889529.1525654-.8261287.4178543-.8261287.3031874 0 .3410858.2997118.3410858.5264169 0 .4121037.114667 1.0874159.3051309 1.6503362.7210417 2.3650336 3.2271961 3.154659 5.3154962 3.154659 2.8861104 0 4.6333247-1.8021134 4.6333247-4.0547551 0-1.3890489-.3420575-2.7780979-3.3039648-4.5052833l-1.9367064-1.12488c-3.9492096-2.2901056-5.2406711-4.4303554-5.2406711-7.2459174 0-3.9039385 3.7976159-6.418828 8.4299689-6.418828 2.1650686 0 3.8734128.3006724 4.7470199.5254563.3041591.0749279.4557528.1873199.4557528.4130644 0 .4130643-.1136952 1.314121-.1136952 3.8290105 0 .6753122-.1525655 1.0134486-.4178544 1.0134486-.2273905 0-.3420575-.1882805-.3420575-.5629202 0-.3006725-.1515937-1.2766571-.8726354-2.1027858-.494623-.6003843-1.5567505-1.5014409-3.7218192-1.5014409-2.3924591 0-4.5575278 1.239193-4.5575278 3.4159462 0 1.4265129.5315496 2.5533141 3.532327 4.2046109l1.3672584.7512008C72.6337134 46.3880884 74 48.82805 74 51.7175793c0 2.3650336-.9115056 4.2795389-3.3408914 5.9692603C69.063488 58.8126801 66.8614926 59 65.0763799 59c-1.9367064 0-3.9871081-.1873199-5.4301633-.8251681m41.9869644-13.8363116c.075569 0 .188922-.0372507.188922-.2235046v-.6714689c0-4.8158555-.037785-5.9725395-.075569-6.9802205-.075569-1.0821825-.377844-1.4183946-1.438713-1.7164007-.26546-.0754567-.8331943-.1127074-1.286607-.1127074-.3788126 0-.5687034-.1117523-.5687034-.3362121 0-.2235046.2276751-.2980061.719841-.2980061 1.7787724 0 4.1262484.0745015 4.9972274.0745015.794441 0 2.990779-.0745015 4.278355-.0745015.492166 0 .718872.0745015.718872.2980061 0 .2244598-.226706.3362121-.605519.3362121-.264491 0-.567735.0372507-.984332.1127074-.870978.1490031-1.135469.5969674-1.211038 1.7164007-.075569 1.007681-.075569 1.9036097-.075569 6.71851v5.5981215c0 2.9112907 0 5.4118677.151138 6.7939667.113353.8949735.302275 1.4928961 1.32536 1.6418991.453413.0754567 1.173254.1127075 1.703204.1127075.341028 0 .52995.1862538.52995.3352569 0 .2244597-.26546.336212-.681088.336212-2.158554 0-4.354892-.1117523-5.262686-.1117523-.757626 0-3.105102.1117523-4.3917086.1117523-.4543814 0-.7188721-.1117523-.7188721-.336212 0-.1490031.1511375-.3352569.5289814-.3352569.5299503 0 .9087633-.0372508 1.2120063-.1127075.682057-.149003.870979-.7469256.984332-1.6791499.151138-1.3448482.151138-3.7709237.151138-6.6812592v-2.4270307c0-.1117523-.113353-.1862538-.188922-.1862538H89.0635753c-.1133531 0-.2267063.0372507-.2267063.1862538v2.4270307c0 2.9103355.0377844 5.336411.1889219 6.71851.1133532.8949735.3032439 1.4928961 1.2866068 1.6418991.4553503.0754567 1.2120068.1127075 1.7041726.1127075.3788127 0 .5299503.1862538.5299503.3352569 0 .2244597-.2644907.336212-.6810878.336212-2.1585541 0-4.4672769-.1117523-5.4138242-.1117523-.7576254 0-2.952995.1117523-4.278355.1117523-.4165971 0-.6442722-.1117523-.6442722-.336212 0-.1490031.114322-.3352569.530919-.3352569.4921659 0 .8700097-.0372508 1.1732536-.1127075.6820566-.149003.8709786-.7469256.9843317-1.6791499.1511376-1.3448482.1511376-3.8454252.1511376-6.7567159v-5.5981215c0-4.8149003 0-5.710829-.0377844-6.71851-.0755688-1.0821825-.3778439-1.4183946-1.4387132-1.7164007-.2644906-.0754567-.8322253-.1127074-1.3243911-.1127074-.3410283 0-.5677346-.1117523-.5677346-.3362121C81 34.0745015 81.2644907 34 81.7188721 34c1.7797415 0 3.9751111.0745015 4.883874.0745015.7954098 0 3.1041326-.0745015 4.4294926-.0745015.4543814 0 .6820566.0745015.6820566.2980061 0 .2244598-.1898908.3362121-.6064879.3362121-.2644907 0-.5677346.0372507-.9465473.1127074-.907794.1490031-1.1732536.5969674-1.2488223 1.7164007-.0755688 1.007681-.0755688 2.164365-.0755688 6.9802205v.6714689c0 .1862539.1133532.2235046.2267063.2235046h12.5696057zm35.515027 2.7618409c0-7.0573657-4.185488-11.4107047-9.444835-11.4107047-3.629129 0-7.888545 1.9518943-7.888545 9.8343964 0 6.5684315 3.704005 11.7497886 9.851441 11.7497886 2.296521 0 7.481939-1.0892953 7.481939-10.1734803M115 46.5c0-5.4426343 3.777934-12.5 13.666339-12.5C136.889458 34 142 38.6165373 142 45.9371014 142 53.2567048 136.740654 59 128.333661 59 118.851862 59 115 52.1674095 115 46.5m37.375319-3.3181637c0-4.8149003 0-5.710829-.038819-6.71851-.075697-1.0821825-.378486-1.4183946-1.441158-1.7164007-.264941-.0754567-.83364-.1127074-1.326642-.1127074-.341608 0-.5687-.1117523-.5687-.3362121 0-.2235046.26494-.2980061.757943-.2980061 1.744917 0 3.869292.0745015 4.816477.0745015 1.365461 0 4.020687-.0745015 5.537542-.0745015 4.171111 0 5.687966 1.343893 6.218817 1.7918574C167.051844 36.4633263 168 37.8817209 168 39.5981215c0 4.4786883-3.64123 7.6898954-8.38201 7.6898954-.151395 0-.83364 0-.985035-.0372508-.190213 0-.417305-.1117523-.417305-.3371672 0-.2607553.379457-.4097584 1.099551-.4097584 1.858463 0 4.474869-1.9045648 4.474869-5.1511124 0-1.0449317-.113545-3.1347952-1.972009-4.703148-1.214067-1.0449317-2.578557-1.1939348-3.3365-1.1939348-.493973 0-1.13837.0372508-1.442129.1490031-.189243.0745015-.26494.2617105-.26494.5969674v12.578342c0 2.9112907 0 5.4118677.151394 6.7939667.113546.8949735.30376 1.4928961 1.289764 1.6418991.493003.0745015 1.213097.1127075 1.706099.1127075.379456 0 .530851.1862538.530851.3352569 0 .2235046-.26494.336212-.606548.336212-2.23695 0-4.588416-.1127074-5.460875-.1127074-.757942 0-2.882317.1127074-4.209929.1127074-.417305 0-.644397-.1127074-.644397-.336212 0-.1490031.113546-.3352569.530851-.3352569.493002 0 .872459-.038206 1.176218-.1127075.682245-.149003.871489-.7469256.985034-1.6791499.152365-1.3448482.152365-3.8454252.152365-6.7567159v-5.5981215z" fill="#373151"/><mask id="b" fill="#fff"><use xlink:href="#a"/></mask><path d="M18.3611481 7.4803623s-1.4539808-.99236066-2.2728462.40554098c0 0-.4089615.40460656-.5908269 2.25383602 0 0 1.4558654.4289017 1.09025 2.3883935 0 0 3.7060962 2.9294262 5.7301731-.247623 0 0 1.1807115-1.1717705 1.4078077-5.34024587 0 0-1.7489231-.56439344-3.2038462 1.86885246 0 0-.9102692 1.7595246-1.1816538-.0214918 0 0-.0923462-3.99-.6831731-4.8917214 0 0-.2723269-.563459.3411154-.63167214 0 0 .2280384.09157377.3872884.45132787.1601923.35881967 1.2268847 2.2304754 3.9529808 1.5782459 0 0 .8424231-3.02006558-3.773-3.81059017 0 0-.1583077-.7662295.5700962-.9914262 0 0 1.295673.56439345 3.6815961.58681968 2.3868654.0214918 3.3875962-.06821314 4.86325-.51860658 0 0 .8885962-.2027705.7500769.969 0 0-4.3628846.47281966-3.7268269 3.7872295 0 0 2.7044231.72044262 3.9548654-1.6679508 0 0 .1828077-.405541.5248654-.3840492 0 0 .5446538.2027705.0433461.8802295 0 0-.5682115 1.938-.5898846 4.6880164 0 0 .1715.49337705-.2063654.6522295 0 0-.3627884.3849836-.7708077-.47281966 0 0-1.3409038-2.5678033-3.341423-2.07162296 0 0 .0678461 4.48431148 2.067423 6.12796718 0 0 1.7046347 1.8950164 5.0225-.563459 0 0-.3844615-1.7791475 1.0911924-2.3650328 0 0-.0669039-4.32732782-2.8853462-2.63695078 0 0 .3646731-5.0487049 3.6354231-.2709836 0 0 .2280384-4.2394918 2.7515384-4.95806558 0 0 1.1599808 2.0277049-.4551346 5.7467213 0 0 5.6830577-3.0424918 2.9569616 2.32204913 0 0-1.7074616-3.02099998-3.5930193.3831148 0 0 .909327 1.6202951-.3175577 2.0949836 0 0 0 4.5076721 5.0903462 1.8034426 0 0 1.3870769-.405541 2.842-2.2977541 0 0 .6143846-.4289016.1140192-1.1717705-.5003654-.7447377-1.3870769-.2261311-1.4775384-.1588524-.0914039.0691475-1.3899039.8718196-1.7046347 1.0587049 0 0-.9734038.2756557-.2958846-.6298033 0 0 .1856346-.184082.3656154-.3999344.3976539-.4784262.8744616-1.62963938.7698654-4.4235738 0 0-.0442885-.51860656.3185-.51860656 0 0 .3863462-.0672787.4551346.36162295.0678462.4270328.1818654 3.51437704 2.8184423 3.6059508 0 0 2.2040577-2.11834426-.3185-4.959 0 0-.5672692-.3606885-.3166154-.8120164 0 0 .2261539-.42890163.8179231-.11306556l3.5223462 2.0407869-7.5686154 12.67642624v37.5985082h-1.43325l-3.1369423-7.2361968h1.3635192v-4.6646557h-4.3628846v4.5992459h1.4992115l-2.9305769 7.2343279-3.0700385-7.1689181h1.568v-4.7328688h-4.6352115v4.667459h1.6358462l-3.0681539 7.3016066-3.0690961-7.1670492h1.5689423v-4.8020164h-4.7058846v4.7328688h1.7055769l-3.0003077 7.1689181-3.0690962-7.1689181h1.4992116v-4.6646557h-4.3628846v4.5992459h1.4313653l-3.13694227 7.3016066h-1.4323077V19.2223623L.2452827 6.23944426s3.06909615-1.77914754 3.43282692-1.938c.36373076-.1569836 1.74892307-.51860656.79625.72044263-.9555 1.240918-1.77342308 2.4126885-.84148077 4.3506885 0 0 .35336538 1.1007541 1.568.3840492 1.06857692-.6316722 1.43136538-1.0605738 1.70557692-2.9985738 0 0 0-.8559345.54559615-.6540984 0 0 .24971154-.15791807.24971154.7671639 0 .9232131-.02261538 2.9527869.70484616 4.0572787l.45325.5419672s.637 1.0344098-.4758654.4943115c0 0-1.95528845-1.5988033-2.70536537-1.1044918 0 0-1.04501923.677459-.09140385 1.6230983 0 0 1.06763462 1.7352295 3.90963462 2.6369508 0 0 3.79655768 1.5782459 3.88796158-2.2996229 0 0-1.11475-.3373279-.2977693-2.0501312 0 0-1.4982692-3.44896717-3.61280767-.4046065 0 0-1.63678846-3.06585248.1828077-3.22470494 0 0 1.15903847-.04578688 2.81749997.97086886 0 0-1.5227692-3.6975246-.47775-5.8382951 0 0 2.5696731.54009836 2.7063077 5.0935574 0 0 2.97675-5.0262787 3.7258846.11306556h-.0678461zm-8.3356539 11.5504426h28.8855v-.7774426s-13.1150384-5.8560492-28.8930384.0056066l.0075384.771836zm29.3396923.7559508c-.5333461 0-.964923.4289017-.964923.9559181 0 .5298196.4315769.9587213.964923.9587213.5314616 0 .9630385-.4289017.9630385-.9587213 0-.5270164-.4315769-.9559181-.9630385-.9559181zm-8.4204615.9400328c0 .5288853.4315769.9559181.9658654.9559181.5314615 0 .9630384-.4270328.9630384-.9559181 0-.5279508-.4315769-.9549836-.9630384-.9549836-.5342885 0-.9658654.4270328-.9658654.9549836zm-7.38675 0c0 .5288853.4315769.9559181.9639808.9559181.5324038 0 .9639807-.4270328.9639807-.9559181 0-.5279508-.4315769-.9549836-.9639807-.9549836-.5324039 0-.9639808.4270328-.9639808.9549836zm-7.4338654.0056066c0 .5270164.4315769.955918.9639808.955918.5342884 0 .9649231-.4289016.9649231-.955918 0-.5279508-.4306347-.9549836-.9649231-.9549836-.5324039 0-.9639808.4270328-.9639808.9549836zm-7.3876923 0c0 .5270164.43251924.955918.9658654.955918.5314615 0 .9649231-.4289016.9649231-.955918 0-.5279508-.4334616-.9549836-.9649231-.9549836-.53334616 0-.9658654.4270328-.9658654.9549836zm24.7874039 21.0414098h4.3638269v-4.6655901h-4.3638269v4.6655901zm0-7.4726065h4.3638269v-4.6646558h-4.3638269v4.6646558zm-.0339231-7.5389509h4.39775V22.095723h-4.39775v4.6665245zm-7.5695577 15.0115574h4.6012884v-4.6655901h-4.6012884v4.6655901zm0-7.4380328h4.6012884v-4.7338032h-4.6012884v4.7338032zm0-7.5735246h4.6012884v-4.6319508h-4.6012884v4.6319508zm-7.6044231 15.0461312h4.6700769v-4.6655902h-4.6700769v4.6655902zm0-7.4726066h4.7058846v-4.6992295h-4.7058846v4.6992295zm-.0348654-7.5735246h4.74075V22.095723h-4.74075v4.6665245zm-7.2265577 15.0115574h4.4316731v-4.6310164h-4.4316731v4.6310164zm0-7.4726065h4.4316731v-4.6646558h-4.4316731v4.6646558zm0-7.5389509h4.4316731V22.095723h-4.4316731v4.6665245zm6.0562116 15.4423279c-.5324039 0-.9639808.4289016-.9639808.955918 0 .5298197.4315769.9568525.9639808.9568525.5333461 0 .964923-.4270328.964923-.9568525 0-.5270164-.4315769-.955918-.964923-.955918zm-7.4084231 0c-.53334616 0-.9658654.4289016-.9658654.955918 0 .5298197.43251924.9568525.9658654.9568525.5314615 0 .9649231-.4270328.9649231-.9568525 0-.5270164-.4334616-.955918-.9649231-.955918zm7.3858077-7.4838197c-.5324039 0-.9639808.4270328-.9639808.9568525 0 .5270164.4315769.955918.9639808.955918.5342884 0 .9649231-.4289016.9649231-.955918 0-.5298197-.4306347-.9568525-.9649231-.9568525zm-7.3858077 0c-.53334616 0-.9658654.4270328-.9658654.9568525 0 .5270164.43251924.955918.9658654.955918.5314615 0 .9649231-.4289016.9649231-.955918 0-.5298197-.4334616-.9568525-.9649231-.9568525zm-.9658654-6.5064098c0 .5298197.43251924.9568525.9658654.9568525.5314615 0 .9649231-.4270328.9649231-.9568525 0-.5270164-.4334616-.955918-.9649231-.955918-.53334616 0-.9658654.4289016-.9658654.955918zm7.4103077 0c0 .5298197.4315769.9568525.9639808.9568525.5333461 0 .964923-.4270328.964923-.9568525 0-.5270164-.4315769-.955918-.964923-.955918-.5324039 0-.9639808.4289016-.9639808.955918zm22.2761538 14.9667049c0 .5270164.4334616.9559181.9649231.9559181.5324039 0 .9639808-.4289017.9639808-.9559181 0-.5298197-.4315769-.9568524-.9639808-.9568524-.5314615 0-.9649231.4270327-.9649231.9568524zm.9423077-8.4416065c-.5333461 0-.964923.4289016-.964923.9577868 0 .5279509.4315769.9549837.964923.9549837.5314616 0 .9630385-.4270328.9630385-.9549837 0-.5288852-.4315769-.9577868-.9630385-.9577868zm-.9423077-6.5120164c0 .5279508.4334616.9568524.9649231.9568524.5324039 0 .9639808-.4289016.9639808-.9568524 0-.5288853-.4315769-.9559181-.9639808-.9559181-.5314615 0-.9649231.4270328-.9649231.9559181zm-6.4906153 13.9790164c-.5324039 0-.9649231.4289016-.9649231.955918 0 .5298197.4325192.9568525.9649231.9568525.5333461 0 .964923-.4270328.964923-.9568525 0-.5270164-.4315769-.955918-.964923-.955918zm-8.3742885.955918c0 .5298197.4315769.9568525.9639808.9568525.5324038 0 .9639807-.4270328.9639807-.9568525 0-.5270164-.4315769-.955918-.9639807-.955918-.5324039 0-.9639808.4289016-.9639808.955918zm.9639808-8.4397377c-.5324039 0-.9639808.4289016-.9639808.9568524 0 .5270164.4315769.9559181.9639808.9559181.5324038 0 .9639807-.4289017.9639807-.9559181 0-.5279508-.4315769-.9568524-.9639807-.9568524zm-.9639808-6.5129508c0 .5288852.4315769.9577869.9639808.9577869.5324038 0 .9639807-.4289017.9639807-.9577869 0-.5279508-.4315769-.9549836-.9639807-.9549836-.5324039 0-.9639808.4270328-.9639808.9549836zm8.3526154 6.5129508c-.5342885 0-.9658654.4289016-.9658654.9568524 0 .5270164.4315769.9559181.9658654.9559181.5305192 0 .9630384-.4289017.9630384-.9559181 0-.5279508-.4325192-.9568524-.9630384-.9568524zm.0216731-7.4679344c-.5324039 0-.9649231.4270328-.9649231.9549836 0 .5288852.4325192.9577869.9649231.9577869.5333461 0 .964923-.4289017.964923-.9577869 0-.5279508-.4315769-.9549836-.964923-.9549836z" fill="#373151" mask="url(#b)"/><path d="M10 14.0009766C10 13.4482422 10.4477028 13 11 13c.5522972 0 1 .4482422 1 1.0009766C12 14.5517578 11.5522972 15 11 15c-.5522972 0-1-.4482422-1-.9990234m9-1.9999981C19 11.4471624 19.4474841 11 19.9995115 11 20.5525159 11 21 11.4471624 21 12.0009785 21 12.5528376 20.5525159 13 19.9995115 13 19.4474841 13 19 12.5528376 19 12.0009785M29 12c0-.5513196.4474841-1 .9995115-1C30.5525159 11 31 11.4486804 31 12s-.4474841 1-1.0004885 1C29.4474841 13 29 12.5513196 29 12m8 1.9995115C37 13.4484612 37.4486804 13 38 13c.5532747 0 1 .4484612 1 .9995115C39 14.5515388 38.5532747 15 38 15c-.5513196 0-1-.4484612-1-1.0004885m-6.132-9.856175s-.235.5007819-.286.75789174c-.054.25710985-.582-.0689807-.582-.0689807l.181-.48555238L30.551 4l.317.1433365zM7.566 7.13302194l-.354.137-.212-.084c.255-.385.566-.053.566-.053M0 20.9990909C0 19.3427273 1.34252386 18 2.99954552 18 4.6565672 18 6 19.3427273 6 20.9990909 6 22.6554545 4.6565672 24 2.99954552 24 1.34252386 24 0 22.6554545 0 20.9990909m.92895016 0c0 1.1436364.9280412 2.07 2.07059536 2.07 1.14346312 0 2.0696864-.9263636 2.0696864-2.07 0-1.1418182-.92622328-2.07-2.0696864-2.07-1.14255416 0-2.07059536.9281818-2.07059536 2.07M4.61449462 34H1.3826129C.61899404 34 0 33.3975875 0 32.6546434v-5.3102237C0 26.6024125.61899405 26 1.3826129 26h3.2318817C5.38004178 26 6 26.6024125 6 27.3444197v5.3102237C6 33.3975875 5.38004178 34 4.61449462 34zm-3.1383577-6.6443377c-.21693718 0-.39434357.1723855-.39434357.3841199v4.5204356c0 .2117344.1774064.3841199.39434356.3841199h3.1181103c.2169372 0 .3943436-.1723855.3943436-.3841199v-4.5204356c0-.2117344-.1774064-.3841199-.39434354-.3841199H1.4761369zM4.61449462 43H1.38357705C.6180299 43 0 42.3976581 0 41.6538642v-5.3067916C0 35.6023419.6180299 35 1.38357705 35h3.23091757C5.38004178 35 6 35.6023419 6 36.3470726v5.3067916C6 42.3976581 5.38004178 43 4.61449462 43zm-3.13932187-6.6435597c-.21790134 0-.39434357.1714286-.39434357.3840749v4.5199063c0 .2117096.17644223.384075.39434357.384075h3.11811023c.21693717 0 .39434357-.1723654.39434357-.384075v-4.5199063c0-.2126463-.1774064-.3840749-.39434357-.3840749H1.47517275zM4.61449462 52H1.38357705C.6180299 52 0 51.3975875 0 50.6546434v-5.3102237C0 44.6033493.6180299 44 1.38357705 44h3.23091757C5.38004178 44 6 44.6033493 6 45.3444197v5.3102237C6 51.3975875 5.38004178 52 4.61449462 52zm-3.13932187-6.642464c-.21790134 0-.39434357.1723855-.39434357.3841199v4.5185619c0 .2117344.17644223.3859937.39434357.3859937h3.11811023c.21693717 0 .39434357-.1742593.39434357-.3859937v-4.5185619c0-.2117344-.1774064-.3841199-.39434357-.3841199H1.47517275z" fill="#373151"/><g transform="translate(0 54)"><mask id="d" fill="#fff"><use xlink:href="#c"/></mask><path d="M0 3.6992C0 1.8772 1.477.3982 3.3.3982c1.823 0 3.301 1.479 3.301 3.301S5.123 7.0002 3.3 7.0002c-1.823 0-3.3-1.479-3.3-3.301m1.022 0c0 1.258 1.021 2.277 2.278 2.277 1.258 0 2.277-1.019 2.277-2.277 0-1.258-1.019-2.277-2.277-2.277-1.257 0-2.278 1.019-2.278 2.277" fill="#373151" mask="url(#d)"/></g><mask id="f" fill="#fff"><use xlink:href="#e"/></mask><path fill="#373151" mask="url(#f)" d="M3 54h1v-4H3m0-4h1v-6H3m0-3h1v-6H3m0-3h1v-6H3m1 0h4v-1H4m38-.0009091C42 19.3427273 43.3425239 18 44.9995455 18 46.6565672 18 48 19.3427273 48 20.9990909 48 22.6554545 46.6565672 24 44.9995455 24 43.3425239 24 42 22.6554545 42 20.9990909m.9289502 0c0 1.1436364.9280412 2.07 2.0705953 2.07 1.1434631 0 2.0705954-.9263636 2.0705954-2.07 0-1.1418182-.9271323-2.07-2.0705954-2.07-1.1425541 0-2.0705953.9281818-2.0705953 2.07M44.3845412 34C43.6199582 34 43 33.3975875 43 32.6546434v-5.3102237C43 26.6024125 43.6199582 26 44.3845412 26h3.2318817C48.3819701 26 49 26.6024125 49 27.3444197v5.3102237C49 33.3975875 48.3819701 34 47.6164229 34h-3.2318817zm3.1393219-6.6443377H44.406717c-.2169372 0-.3943435.1723855-.3943435.3841199v4.5204356c0 .2117344.1774063.3841199.3943435.3841199h3.1171461c.2179013 0 .3953077-.1723855.3953077-.3841199v-4.5204356c0-.2117344-.1774064-.3841199-.3953077-.3841199zM44.3840964 43C43.6207229 43 43 42.3976581 43 41.6538642v-5.3067916C43 35.6023419 43.6207229 35 44.3840964 35h3.2308434C48.3783133 35 49 35.6023419 49 36.3470726v5.3067916C49 42.3976581 48.3783133 43 47.6149398 43h-3.2308434zm3.1373494-6.6435597h-3.1142169c-.2187952 0-.3951807.1714286-.3951807.3840749v4.5199063c0 .2117096.1763855.384075.3951807.384075h3.1142169c.2187952 0 .3961446-.1723654.3961446-.384075v-4.5199063c0-.2126463-.1773494-.3840749-.3961446-.3840749zM44.3840964 52C43.6207229 52 43 51.3975875 43 50.6546434v-5.3102237C43 44.6033493 43.6207229 44 44.3840964 44h3.2308434C48.3783133 44 49 44.6033493 49 45.3444197v5.3102237C49 51.3975875 48.3783133 52 47.6149398 52h-3.2308434zm3.1373494-6.642464h-3.1142169c-.2187952 0-.3951807.1723855-.3951807.3841199v4.5185619c0 .2117344.1763855.3859937.3951807.3859937h3.1142169c.2187952 0 .3961446-.1742593.3961446-.3859937v-4.5185619c0-.2117344-.1773494-.3841199-.3961446-.3841199zM42 57c0-1.6558619 1.3425239-3 2.9995455-3C46.6565672 54 48 55.3441381 48 57s-1.3434328 3-3.0004545 3C43.3425239 60 42 58.6558619 42 57m.9289502 0c0 1.1432899.9280412 2.0693729 2.0705953 2.0693729 1.1434631 0 2.0705954-.926083 2.0705954-2.0693729 0-1.1432899-.9271323-2.0693729-2.0705954-2.0693729-1.1425541 0-2.0705953.926083-2.0705953 2.0693729"/><path fill="#373151" mask="url(#f)" d="M45 54h1v-4h-1m0-4h1v-6h-1m0-3h1v-6h-1m0-3h1v-6h-1m-5 0h4v-1h-4"/></g></svg>
