<svg xmlns="http://www.w3.org/2000/svg" id="Layer_1" data-name="Layer 1" viewBox="0 0 1297.86 193.562">
  <defs>
    <style>
      .cls-1{fill:#373151}
    </style>
  </defs>
  <path d="M207.792 71.422l-1.953 1.01a19.789 19.789 0 0 1 1.45 14.617 13.079 13.079 0 0 1-4.71-7.3l-1.953 1.01v.008a57.386 57.386 0 0 1-7.426 16.672l-.026.057.548 2.093a14.249 14.249 0 0 1 6.53-1.574 14.407 14.407 0 0 1 2.33.19 13.164 13.164 0 0 1-23.867.846 5.651 5.651 0 0 0 3.148-3.916c.55-2.5-1.039-3.672-.489-6.173a4.634 4.634 0 0 1 9.113.335 5.922 5.922 0 1 0-7.218-9.286 12.457 12.457 0 0 0 1.791-4.217 12.779 12.779 0 0 0-2.427-10.556A12.781 12.781 0 0 0 176 73.8a12.463 12.463 0 0 0-.143 4.579 5.922 5.922 0 1 0-10.447 5.4 4.634 4.634 0 0 1 8.414 3.519c-.55 2.5-2.483 2.9-3.033 5.4a5.641 5.641 0 0 0 .688 4.145s.12.184.3.484a15.309 15.309 0 0 1-24.7-12.09V84a20.858 20.858 0 0 1 12.239 6.664l1.637-1.637V70.709l-1.664-1.664a20.856 20.856 0 0 1-12.211 6.633v-.016a14.316 14.316 0 0 1 10.7-13.85l-1.688-1.693q-6.806-.489-13.738-.5t-13.738.5l-1.689 1.693a14.316 14.316 0 0 1 10.7 13.85v.015a20.858 20.858 0 0 1-12.211-6.633l-1.664 1.664v18.318l1.637 1.637A20.858 20.858 0 0 1 137.626 84v1.24a15.309 15.309 0 0 1-24.649 12.133c.15-.327.249-.527.249-.527a5.641 5.641 0 0 0 .688-4.145c-.55-2.5-2.483-2.9-3.033-5.4a4.634 4.634 0 0 1 8.414-3.519 5.922 5.922 0 1 0-10.447-5.4 12.451 12.451 0 0 0-.148-4.582 12.781 12.781 0 0 0-6.63-8.564 12.779 12.779 0 0 0-2.426 10.556 12.462 12.462 0 0 0 1.791 4.217 5.922 5.922 0 1 0-7.214 9.291 4.634 4.634 0 0 1 9.113-.335c.55 2.5-1.039 3.672-.489 6.173A5.652 5.652 0 0 0 106 99.054a13.164 13.164 0 0 1-23.867-.846 14.407 14.407 0 0 1 2.33-.19 14.249 14.249 0 0 1 6.53 1.574l.539-2.092-.027-.061a57.384 57.384 0 0 1-7.418-16.662l-.005-.011-1.953-1.01a13.079 13.079 0 0 1-4.71 7.3 19.789 19.789 0 0 1 1.45-14.617l-1.953-1.01c-3.412 1.169-8.021 3.039-11.362 4.526l19.63 44.087a140.9 140.9 0 0 1 114.34 0l19.63-44.087c-3.342-1.494-7.954-3.364-11.362-4.533z" class="cls-1" transform="translate(-59.354 -59.624)"/>
  <path d="M225.361 154.075a11.088 11.088 0 0 0-8.587-11.123v-6.376a11.47 11.47 0 1 0-13.984-13.985H81.923a11.469 11.469 0 0 0-22.569 2.863 11.067 11.067 0 0 0 8.587 11.125v6.372a11.5 11.5 0 0 0 0 22.25v6.372a11.5 11.5 0 0 0 0 22.25v6.372a11.5 11.5 0 0 0 0 22.25v6.372a11.466 11.466 0 1 0 14.311 11.125 11.088 11.088 0 0 0-8.587-11.123v-6.376a11.5 11.5 0 0 0 0-22.245v-6.378a11.5 11.5 0 0 0 0-22.245V165.2a11.5 11.5 0 0 0 0-22.245v-6.376a10.928 10.928 0 0 0 8.258-8.26h6.053V251.39h1.314a81.347 81.347 0 0 1 13-24.278v-1.482h-5.727v-17.172h14.311v17.172h-2.862v1.57a89.584 89.584 0 0 1 8.025 24.188h1.123a89.584 89.584 0 0 1 8.025-24.188v-1.57h-2.862v-17.172h14.311v17.172h-2.862v1.57a89.581 89.581 0 0 1 8.028 24.19h1.123a89.581 89.581 0 0 1 8.025-24.188v-1.572h-2.862v-17.172h14.311v17.172h-2.862v1.57a89.584 89.584 0 0 1 8.025 24.188h1.123A89.587 89.587 0 0 1 176.7 227.2v-1.57h-2.862v-17.172h14.311v17.172h-5.724v1.482a81.345 81.345 0 0 1 13 24.278h1.314V128.316h6.05a10.9 10.9 0 0 0 8.26 8.262v6.372a11.5 11.5 0 0 0 0 22.25v6.372a11.5 11.5 0 0 0 0 22.25v6.372a11.5 11.5 0 0 0 0 22.25v6.372a11.453 11.453 0 1 0 5.724 0v-6.376a11.5 11.5 0 0 0 0-22.245v-6.375a11.5 11.5 0 0 0 0-22.245V165.2a11.088 11.088 0 0 0 8.588-11.125zM76.527 239.941A5.725 5.725 0 1 1 68 234.835a2.869 2.869 0 0 0 5.6 0 5.423 5.423 0 0 1 2.927 5.106zm0-28.622a5.423 5.423 0 0 1-2.924 5.106 2.869 2.869 0 0 0-5.6 0 5.92 5.92 0 0 1 0-10.212 2.869 2.869 0 0 0 5.6 0 5.423 5.423 0 0 1 2.924 5.106zm0-28.622A5.423 5.423 0 0 1 73.6 187.8a2.869 2.869 0 0 0-5.6 0 5.92 5.92 0 0 1 0-10.212 2.869 2.869 0 0 0 5.6 0 5.423 5.423 0 0 1 2.927 5.112zM73.6 130.56a2.869 2.869 0 0 0-5.6 0 5.725 5.725 0 1 1 5.6 0zm37.271 69.311H96.563V182.7h14.311v17.173zm0-25.76H96.563v-17.173h14.311v17.173zm0-25.76H96.563v-17.173h14.311v17.173zm25.76 51.52h-14.308V182.7h14.311v17.173zm0-25.76h-14.308v-17.173h14.311v17.173zm0-25.76h-14.308v-17.173h14.311v17.173zm25.76 51.52h-14.309V182.7h14.311v17.173zm0-25.76h-14.309v-17.173h14.311v17.173zm0-25.76h-14.309v-17.173h14.311v17.173zm25.759 51.52h-14.308V182.7h14.311v17.173zm0-25.76h-14.308v-17.173h14.311v17.173zm0-25.76h-14.308v-17.173h14.311v17.173zm20.035-22.9a5.725 5.725 0 1 1 8.525 5.106 2.869 2.869 0 0 0-5.6 0 5.423 5.423 0 0 1-2.923-5.103zm11.449 114.487a5.725 5.725 0 1 1-8.525-5.106 2.869 2.869 0 0 0 5.6 0 5.423 5.423 0 0 1 2.927 5.109zm0-28.622a5.423 5.423 0 0 1-2.924 5.106 2.869 2.869 0 0 0-5.6 0 5.92 5.92 0 0 1 0-10.212 2.869 2.869 0 0 0 5.6 0 5.423 5.423 0 0 1 2.926 5.109zm0-28.622a5.423 5.423 0 0 1-2.924 5.106 2.869 2.869 0 0 0-5.6 0 5.92 5.92 0 0 1 0-10.212 2.869 2.869 0 0 0 5.6 0 5.423 5.423 0 0 1 2.926 5.112zM76.527 154.075a5.423 5.423 0 0 1-2.924 5.106 2.869 2.869 0 0 0-5.6 0 5.92 5.92 0 0 1 0-10.212 2.869 2.869 0 0 0 5.6 0 5.423 5.423 0 0 1 2.924 5.106zm143.109 0a5.423 5.423 0 0 1-2.924 5.106 2.869 2.869 0 0 0-5.6 0 5.92 5.92 0 0 1 0-10.212 2.869 2.869 0 0 0 5.6 0 5.423 5.423 0 0 1 2.924 5.106zm91.874 22.683c-.106 8.586-.424 17.278-.53 19.081h-3.816L306.1 191.7c-1.8-7.1-5.618-11.766-14.734-11.766-8.692 0-14.1 5.936-14.1 12.826 0 4.77 1.484 9.01 11.13 13.78l8.8 4.24c11.873 5.936 17.385 11.766 17.385 20.564 0 12.19-9.646 21.836-24.911 21.836-8.8 0-14.734-3.6-17.915-3.6a7.479 7.479 0 0 0-4.876 2.12l-.53-.106s-.636-16.218-1.166-23.427h4.028l1.8 5.512c2.65 8.162 8.162 15.371 18.657 15.371 9.116 0 14.946-5.937 14.946-13.887 0-8.162-5.83-11.766-15.371-16.43l-5.512-2.544c-11.024-5.3-16.43-10.388-16.43-20.671 0-8.9 7.632-19.716 23.957-19.716 4.982 0 14.522 1.484 17.384 1.378a5.24 5.24 0 0 0 2.544-.53zM378.5 251.6v-4.134l5.088-.424c2.968-.212 3.816-2.12 3.816-4.77V214.6h-41.021v27.667c0 2.65.954 4.558 3.922 4.77l4.982.424v4.139H327.2v-4.134l4.982-.424c2.968-.212 3.922-2.12 3.922-4.77v-55.55c0-2.65-.954-4.452-3.922-4.771l-4.982-.424v-4.134h28.091v4.134l-4.982.424c-2.968.318-3.922 2.12-3.922 4.771v23.214h41.023v-23.214c0-2.65-.848-4.452-3.816-4.771l-5.088-.424v-4.134h28.2v4.134l-4.982.424c-2.968.318-3.922 2.12-3.922 4.771v55.545c0 2.65.954 4.558 3.922 4.77l4.982.424v4.139H378.5zm39.538-37.105c0-23.533 19.61-38.691 39.115-38.691s39.115 15.158 39.115 38.691-19.611 38.691-39.115 38.691-39.115-15.159-39.115-38.691zm39.115 33.921c14.522 0 27.667-12.3 27.667-33.921 0-21.73-13.145-33.921-27.667-33.921s-27.667 12.19-27.667 33.921c0 21.624 13.144 33.921 27.667 33.921zm50.455 3.184v-4.134l5.088-.424c2.862-.212 3.816-2.226 3.816-4.77v-55.55c0-2.544-.954-4.558-3.816-4.771l-5.088-.424v-4.134h26.5c12.827 0 28.2 5.937 28.2 21.2 0 7.1-4.77 20.247-26.289 22.155a37.561 37.561 0 0 1-4.77.212v-4.134l2.226-.212c11.13-1.06 17.915-7.844 17.915-17.7 0-11.448-9.646-17.384-22.791-17.384h-1.8v60.74c0 2.65 1.06 4.452 4.028 4.664l6.36.53v4.136h-29.579zm-186.854-95.27v-5.856l5.168-.574c2.986-.23 3.9-2.182 3.9-4.938v-27.33h-37.661v27.33c0 2.756 1.033 4.708 4.019 4.938l5.167.574v5.856h-34.679v-5.856l5.167-.574c2.986-.23 3.9-2.3 3.9-4.938V87.315c0-2.641-.919-4.593-3.9-4.938l-5.167-.574v-5.856h34.679V81.8l-5.167.574c-2.986.345-4.019 2.182-4.019 4.938v23.541h37.665V87.315c0-2.756-.919-4.593-3.9-4.938l-5.168-.574v-5.856h34.565V81.8l-5.168.574c-2.986.345-3.9 2.3-3.9 4.938v57.646c0 2.641.919 4.708 3.9 4.938l5.168.574v5.856h-34.569zm37.581-26.871c0-15.732 11.6-28.479 28.134-28.479s28.019 12.746 28.019 28.479c0 15.847-11.483 28.593-28.019 28.593s-28.134-12.746-28.134-28.593zm39.847 0c0-13.78-4.134-22.737-11.713-22.737s-11.6 8.957-11.6 22.737c0 14.01 4.019 22.967 11.6 22.967s11.713-8.958 11.713-22.967zm61.238 19.177a20.189 20.189 0 0 1-16.88 9.416c-8.153 0-16.881-4.593-16.881-19.177v-27.33L419 109.363v-3.675c4.938-2.067 14.239-4.134 21.359-4.708v36.287c0 7.809 3.79 10.794 8.957 10.794 3.9 0 7.12-1.837 10.105-4.364v-32.152l-7.235-2.182v-3.675c4.938-2.067 14.813-4.134 21.933-4.708v46.507l7.235 1.837v3.56c-2.412 1.378-15.732 4.593-21.933 5.168v-9.416zm60.974-30.775l-.689-2.526c-1.378-5.971-4.593-9.3-9.876-9.3-4.823 0-8.038 3.215-8.038 7.235 0 4.479 3.215 6.545 9.417 9.187l2.641 1.033c9.646 3.9 15.847 8.268 15.847 17 0 10.22-8.727 17.569-20.785 17.569-7.12 0-11.943-2.412-16.421-2.412a7.364 7.364 0 0 0-3.56 1.263l-.459-.23c-.459-7.579-.574-15.043-.459-18.832h5.053l.689 2.182c2.871 9.3 7.924 12.861 13.436 12.861 5.168 0 8.5-3.33 8.5-7.694 0-4.938-3.445-6.775-10.794-9.99l-3.445-1.493c-8.5-3.675-12.861-8.383-12.861-16.076 0-7.349 5.971-16.651 20.9-16.651 4.019 0 11.713 1.378 12.976 1.378a5.467 5.467 0 0 0 3.56-1.033l.689.23s-.919 13.895-1.148 16.306H520.4zm16.06 12.057c0-14.124 9.646-28.938 27.675-28.938 14.01 0 23.311 9.072 22.967 23.2a21.344 21.344 0 0 1-7.694 1.263 73.082 73.082 0 0 1-8.727 0l-18.832-.574a26.654 26.654 0 0 0-.23 2.756c0 10.679 6.546 19.407 17 19.407a17.5 17.5 0 0 0 15.273-8.842l3.33 2.3c-3.215 11.139-13.32 17.569-24.459 17.569-15.857-.007-26.302-12.064-26.302-28.141zm36.057-11.024c.23-6.89-2.182-12.172-8.727-12.172-6.316 0-10.794 5.627-11.6 12.517zm55.645-1.033l-.689-2.526c-1.378-5.971-4.593-9.3-9.876-9.3-4.823 0-8.038 3.215-8.038 7.235 0 4.479 3.215 6.545 9.416 9.187l2.641 1.033c9.646 3.9 15.847 8.268 15.847 17 0 10.22-8.727 17.569-20.785 17.569-7.12 0-11.943-2.412-16.421-2.412a7.364 7.364 0 0 0-3.56 1.263l-.459-.23c-.459-7.579-.574-15.043-.459-18.832h5.053l.689 2.182c2.871 9.3 7.923 12.861 13.435 12.861 5.168 0 8.5-3.33 8.5-7.694 0-4.938-3.445-6.775-10.794-9.99l-3.445-1.493c-8.5-3.675-12.861-8.383-12.861-16.076 0-7.349 5.971-16.651 20.9-16.651 4.019 0 11.713 1.378 12.976 1.378a5.467 5.467 0 0 0 3.56-1.033l.689.23s-.919 13.895-1.148 16.306h-5.168zm39.466 11.6c0-15.732 11.6-28.479 28.134-28.479s28.019 12.746 28.019 28.479c0 15.847-11.483 28.593-28.019 28.593s-28.133-12.748-28.133-28.595zm39.847 0c0-13.78-4.134-22.737-11.713-22.737s-11.6 8.957-11.6 22.737c0 14.01 4.019 22.967 11.6 22.967s11.714-8.96 11.714-22.969zm23.08 26.871v-4.938l2.986-.345c3.1-.459 4.019-2.411 4.019-5.167v-37.093h-6.774V102.7h6.775v-.919c0-17.8 10.45-29.742 26.871-29.742 5.742 0 14.125 1.952 14.125 7.809 0 4.134-3.789 7.464-6.661 7.464-1.722 0-2.526-.8-3.445-2.182-3.33-3.675-5.053-5.512-8.268-5.512-7.694 0-7.924 9.646-7.924 18.6v4.482h11.139v6.086h-11.138v37.094c0 2.871.919 4.593 3.9 4.938l4.708.574v4.938H730.55zm67.314 0v-5.856l5.282-.574c2.871-.23 3.789-2.3 3.789-4.938V87.315c0-2.526-.919-4.708-3.789-4.938l-5.282-.574v-5.856H832.2c17.684 0 31.694 8.612 31.694 23.541 0 9.531-6.545 23.77-31.809 25.033-2.067.115-3.33.115-4.479.115v-5.856l1.952-.23c11.368-1.493 17.225-8.383 17.225-18.488 0-11.483-8.727-18.258-21.933-18.258h-1.493v63.158c0 2.756 1.148 4.708 4.134 4.938l6.545.574v5.856h-36.171zm97.6-4.708c-3.675 3.33-8.612 6.431-14.124 6.431-9.646 0-14.239-7.235-14.239-13.321 0-6.66 4.479-9.646 8.383-11.254l19.522-7.579v-4.251c0-9.761-6.086-12.861-13.78-12.861a31.785 31.785 0 0 0-3.445.345l1.033 8.153c.344 2.756-2.182 4.479-6.086 4.479-2.3 0-4.479-1.033-4.479-4.019 0-6.545 8.727-16.766 22.048-16.766 11.713 0 19.407 5.856 19.407 19.751v24.23c0 3.56 1.608 4.708 3.79 4.708a10.132 10.132 0 0 0 3.33-.8l.689 3.56c-2.526 3.33-7.693 5.627-12.057 5.627-5.162-.005-8.607-2.302-9.985-6.436zm-5.512-2.641a10.98 10.98 0 0 0 5.053-1.263v-17.228l-8.727 4.019c-2.985 1.378-4.593 2.871-4.593 6.316.006 5.053 3.566 8.153 8.274 8.153zm40.237-37.436l-7.349-2.182v-3.675c4.938-2.067 14.7-4.134 21.818-4.708l-.345 13.435c3.9-8.5 9.761-13.435 15.273-13.435 3.675 0 8.5 2.3 8.5 8.727 0 5.857-4.249 8.957-7.464 8.957a4.269 4.269 0 0 1-3.215-1.378l-1.033-.918c-1.263-1.378-2.067-2.067-3.675-2.067-2.641 0-5.971 3.215-7.924 5.282v26.3c0 2.756 1.264 4.823 4.249 5.052l4.249.459v4.938H923.19v-4.938l2.985-.345c2.986-.459 4.019-2.411 4.019-5.167v-34.339zm39.994 44.785v-4.938l2.986-.345c2.986-.459 3.9-2.3 3.9-5.167V86.1l-7.349-2.182v-3.671C972.256 79.1 985 76 991.778 75.539v70.341c0 2.871.918 4.708 3.9 5.167l2.986.345v4.938h-28.475zm35.1 0v-4.938l2.986-.345c2.986-.459 4.019-2.411 4.019-5.167v-34.337l-7.349-2.182v-3.675c4.938-2.067 14.813-4.134 21.933-4.708v44.9c0 2.756.919 4.708 3.9 5.167l2.986.345v4.938h-28.479zm13.665-80.791a8.845 8.845 0 1 1 0 17.684 8.843 8.843 0 1 1 .011-17.686zm50.8 76.083c-3.675 3.33-8.612 6.431-14.124 6.431-9.646 0-14.239-7.235-14.239-13.321 0-6.66 4.479-9.646 8.383-11.254l19.533-7.58v-4.25c0-9.761-6.086-12.861-13.78-12.861a31.789 31.789 0 0 0-3.444.345l1.033 8.153c.344 2.756-2.182 4.479-6.086 4.479-2.3 0-4.479-1.033-4.479-4.019 0-6.545 8.727-16.766 22.048-16.766 11.713 0 19.407 5.856 19.407 19.751v24.23c0 3.56 1.608 4.708 3.79 4.708a10.128 10.128 0 0 0 3.33-.8l.689 3.56c-2.526 3.33-7.693 5.627-12.057 5.627-5.166-.005-8.611-2.302-9.989-6.436zm-5.512-2.641a10.98 10.98 0 0 0 5.053-1.263v-17.228l-8.727 4.019c-2.985 1.378-4.593 2.871-4.593 6.316.014 5.053 3.574 8.153 8.282 8.153zm33.232 7.349v-4.938l2.985-.345c2.986-.459 4.019-2.411 4.019-5.167v-34.337l-7.349-2.182v-3.675c4.938-2.067 14.814-4.134 21.933-4.708v9.42c4.478-5.971 10.909-9.416 17.339-9.416 6.086 0 11.828 2.641 14.469 9.187 5.4-6.086 11.943-9.187 18.373-9.187 8.613 0 16.766 5.512 16.766 19.751v25.145c0 2.756 1.033 4.593 4.019 5.167l2.986.345v4.938h-27.789v-4.938l2.411-.345c2.871-.919 3.9-2.411 3.9-5.167v-22.622c0-7.235-2.527-11.713-9.3-11.713a16.566 16.566 0 0 0-10.1 3.9c.23.919.459 4.594.459 10.909v19.526c0 2.756.8 4.708 3.9 5.167l3.1.345v4.938h-28.019v-4.938l2.412-.345c2.871-.919 4.019-2.411 4.019-5.167v-22.622c0-7.235-2.412-11.713-9.187-11.713a15.476 15.476 0 0 0-9.76 3.9v30.435c0 2.756 1.033 4.708 4.019 5.167l3.445.345v4.938h-29.053zm99.28-26.412c0-14.124 9.646-28.938 27.675-28.938 14.009 0 23.311 9.072 22.966 23.2a21.344 21.344 0 0 1-7.694 1.263 73.073 73.073 0 0 1-8.727 0l-18.833-.574a26.729 26.729 0 0 0-.23 2.756c0 10.679 6.545 19.407 17 19.407a17.5 17.5 0 0 0 15.272-8.842l3.331 2.3c-3.215 11.139-13.321 17.569-24.46 17.569-15.835-.009-26.285-12.066-26.285-28.143zm36.058-11.024c.23-6.89-2.182-12.172-8.727-12.172-6.316 0-10.794 5.627-11.6 12.517zm62.272 4.938c0-7.349-2.986-12.4-10.22-12.4a15.762 15.762 0 0 0-10.1 4.019v30.427c0 2.756 1.033 4.708 4.019 5.167l3.445.345v4.938h-29.053v-4.938l2.985-.345c2.986-.459 4.019-2.411 4.019-5.167v-34.335l-7.349-2.182v-3.675c4.938-2.067 14.814-4.134 21.933-4.708v9.531a21.592 21.592 0 0 1 17.339-9.531c8.613 0 17.684 5.167 17.684 19.407v25.493c0 2.756.919 4.708 3.9 5.167l2.871.345v4.938h-28.478v-4.938l3.1-.345c2.986-.459 3.9-2.411 3.9-5.167v-22.048zm30.2 20.211l.459-35.254h-7.579v-5.4c8.957-2.526 13.206-8.153 16.651-16.88h5.512V102.7h15.5v6.086h-15.5v29.974c0 6.89.8 11.368 8.842 11.368a21.359 21.359 0 0 0 6.775-1.378l1.263 4.593c-2.756 2.182-10.45 4.708-17.684 4.708-8.483.001-14.455-3.903-14.225-14.008z" class="cls-1" transform="translate(-59.354 -59.624)"/>
</svg>
