<?xml version="1.0" encoding="UTF-8" standalone="no"?>
<svg width="385px" height="61px" viewBox="0 0 385 61" version="1.1" xmlns="http://www.w3.org/2000/svg" xmlns:xlink="http://www.w3.org/1999/xlink">
    <!-- Generator: Sketch 43.2 (39069) - http://www.bohemiancoding.com/sketch -->
    <title>Page 1</title>
    <desc>Created with Sketch.</desc>
    <defs>
        <polygon id="path-1" points="48.5932058 0.492442623 0.245282692 0.492442623 0.245282692 56.4816738 48.5932058 56.4816738 48.5932058 0.492442623"></polygon>
        <polygon id="path-3" points="0 3.6991 0 7 6.601 7 6.601 0.3982 0 0.3982"></polygon>
        <polygon id="path-5" points="0 61 385 61 385 1 0 1"></polygon>
    </defs>
    <g id="Symbols" stroke="none" stroke-width="1" fill="none" fill-rule="evenodd">
        <g id="Header" transform="translate(-130.000000, -23.000000)">
            <g id="Page-1" transform="translate(130.000000, 23.000000)">
                <path d="M77.2920331,21.9446422 C77.2920331,24.6116946 77.2920331,26.8058918 77.431987,27.9721431 C77.5155836,28.7776789 77.6837162,29.3888394 78.5206216,29.5000445 C78.9113654,29.5561143 79.5256596,29.6112496 79.7773888,29.6112496 C79.944582,29.6112496 80,29.6944197 80,29.7775899 C80,29.9168298 79.8609854,30 79.5538383,30 C78.0181026,30 76.2588165,29.9168298 76.1188626,29.9168298 C75.979848,29.9168298 74.2205619,30 73.3836564,30 C73.0765093,30 72.9365554,29.9448647 72.9365554,29.7775899 C72.9365554,29.6944197 72.9919734,29.6112496 73.1601059,29.6112496 C73.411835,29.6112496 73.7462215,29.5561143 73.9979506,29.5000445 C74.5558876,29.3888394 74.6958415,28.7776789 74.8076168,27.9721431 C74.9466314,26.8058918 74.9466314,24.6116946 74.9466314,21.9446422 L74.9466314,19.0280794 C74.9466314,18.9168743 74.8630348,18.8617391 74.7794381,18.8617391 L62.9415934,18.8617391 C62.8579968,18.8617391 62.7744001,18.8888394 62.7744001,19.0280794 L62.7744001,21.9446422 C62.7744001,24.6116946 62.7744001,26.8058918 62.9134147,27.9721431 C62.9970114,28.7776789 63.1651439,29.3888394 64.0029886,29.5000445 C64.3937324,29.5561143 65.0070874,29.6112496 65.2588165,29.6112496 C65.4260097,29.6112496 65.482367,29.6944197 65.482367,29.7775899 C65.482367,29.9168298 65.3424131,30 65.035266,30 C63.4995304,30 61.7411835,29.9168298 61.6012296,29.9168298 C61.4612757,29.9168298 59.7029289,30 58.8650841,30 C58.557937,30 58.4189224,29.9448647 58.4189224,29.7775899 C58.4189224,29.6944197 58.4743404,29.6112496 58.6424729,29.6112496 C58.8932627,29.6112496 59.2285885,29.5561143 59.4793784,29.5000445 C60.0373153,29.3888394 60.1772692,28.7776789 60.2890445,27.9721431 C60.4289984,26.8058918 60.4289984,24.6116946 60.4289984,21.9446422 L60.4289984,17.0562923 C60.4289984,12.7220986 60.4289984,11.9445977 60.3726411,11.0558918 C60.3172231,10.1111161 60.0936726,9.66723033 59.1722312,9.47285511 C58.9486807,9.41678533 58.4743404,9.38875044 58.2235505,9.38875044 C58.1117753,9.38875044 58,9.33361517 58,9.22241011 C58,9.05606978 58.1390146,9 58.4461617,9 C59.7029289,9 61.4612757,9.08410466 61.6012296,9.08410466 C61.7411835,9.08410466 63.4995304,9 64.3373751,9 C64.6445222,9 64.7844761,9.05606978 64.7844761,9.22241011 C64.7844761,9.33361517 64.6727009,9.38875044 64.5609256,9.38875044 C64.3655538,9.38875044 64.1983605,9.41678533 63.8630348,9.47285511 C63.1087866,9.61116056 62.8861754,10.0840157 62.8298181,11.0558918 C62.7744001,11.9445977 62.7744001,12.7220986 62.7744001,17.0562923 L62.7744001,17.6394179 C62.7744001,17.7786579 62.8579968,17.8057583 62.9415934,17.8057583 L74.7794381,17.8057583 C74.8630348,17.8057583 74.9466314,17.7786579 74.9466314,17.6394179 L74.9466314,17.0562923 C74.9466314,12.7220986 74.9466314,11.9445977 74.8912134,11.0558918 C74.8348561,10.1111161 74.6113056,9.66723033 73.6898642,9.47285511 C73.467253,9.41678533 72.9919734,9.38875044 72.7411835,9.38875044 C72.6294082,9.38875044 72.517633,9.33361517 72.517633,9.22241011 C72.517633,9.05606978 72.6575869,9 72.964734,9 C74.2205619,9 75.979848,9.08410466 76.1188626,9.08410466 C76.2588165,9.08410466 78.0181026,9 78.8559474,9 C79.1630945,9 79.3021091,9.05606978 79.3021091,9.22241011 C79.3021091,9.33361517 79.1903339,9.38875044 79.0785586,9.38875044 C78.8831867,9.38875044 78.7159935,9.41678533 78.3806677,9.47285511 C77.6273589,9.61116056 77.4038084,10.0840157 77.3483904,11.0558918 C77.2920331,11.9445977 77.2920331,12.7220986 77.2920331,17.0562923 L77.2920331,21.9446422 Z" id="Fill-1" fill="#373151"></path>
                <path d="M94.5884057,29.0018185 C96.8551431,29.0018185 101.41758,27.803041 101.41758,20.7850576 C101.41758,14.9658517 97.8601149,11.9127602 93.8711203,11.9127602 C89.6533282,11.9127602 86.611382,14.5377854 86.611382,19.8156698 C86.611382,25.4640331 90.025969,29.0018185 94.5884057,29.0018185 M94.0139982,11 C99.6962881,11 104,14.4514043 104,20.1007274 C104,25.5216205 99.9550128,30 93.8711203,30 C86.9550611,30 84,24.8363306 84,20.4712063 C84,16.562942 87.0419462,11 94.0139982,11" id="Fill-3" fill="#373151"></path>
                <path d="M107.15231,19.1468697 C107.15231,15.3124646 107.15231,14.6145892 107.09534,13.8307012 C107.037404,13.0458357 106.893531,12.5815628 106.062154,12.4652503 C105.86131,12.4359278 105.430655,12.4066053 105.200844,12.4066053 C105.114906,12.4066053 105,12.2902927 105,12.2033026 C105,12.0576676 105.114906,12 105.401687,12 C106.549779,12 108.07059,12.0576676 108.300401,12.0576676 C108.530213,12.0576676 110.107994,12 110.854399,12 C111.142146,12 111.285054,12.0576676 111.285054,12.2033026 C111.285054,12.2902927 111.171113,12.4066053 111.055242,12.4066053 C110.883366,12.4066053 110.740458,12.4066053 110.424709,12.4652503 C109.764243,12.5815628 109.620369,13.0174906 109.563399,13.8307012 C109.506429,14.6145892 109.506429,15.3124646 109.506429,19.1468697 L109.506429,22.603992 C109.506429,26.1774268 110.280835,27.6601677 111.371957,28.6473584 C112.605987,29.7801842 113.696143,29.9834868 115.131016,29.9834868 C116.68176,29.9834868 118.173604,29.2865888 119.034914,28.2407531 C120.211008,26.8166572 120.469787,24.7836308 120.469787,22.2560317 L120.469787,19.1468697 C120.469787,15.3124646 120.440819,14.6145892 120.412817,13.8307012 C120.383849,13.0458357 120.239976,12.5815628 119.407633,12.4652503 C119.20679,12.4359278 118.776135,12.4066053 118.547289,12.4066053 C118.432383,12.4066053 118.345479,12.2902927 118.345479,12.2033026 C118.345479,12.0576676 118.460385,12 118.748132,12 C119.867256,12 121.331097,12.0576676 121.474005,12.0576676 C121.646847,12.0576676 122.851908,12 123.598313,12 C123.885094,12 124,12.0576676 124,12.2033026 C124,12.2902927 123.914062,12.4066053 123.799156,12.4066053 C123.627281,12.4066053 123.483407,12.4066053 123.167658,12.4652503 C122.478223,12.6099079 122.335315,13.0174906 122.27738,13.8307012 C122.22041,14.6145892 122.249377,15.3124646 122.249377,19.1468697 L122.249377,21.7907814 C122.249377,24.4630382 121.90466,27.4558876 119.896224,29.1995987 C118.058698,30.7966974 116.107232,31 114.615389,31 C113.782081,31 111.142146,30.9423324 109.362555,29.2572663 C108.128526,28.0951181 107.15231,26.3807295 107.15231,22.7789495 L107.15231,19.1468697 Z" id="Fill-5" fill="#373151"></path>
                <path d="M126.357772,29.3444971 C126.026879,29.173913 126,29.0876627 126,28.4331181 C126,27.2361545 126.109371,26.2682336 126.137177,25.8695652 C126.137177,25.6127308 126.192789,25.4708968 126.329966,25.4708968 C126.468069,25.4708968 126.550561,25.5561888 126.550561,25.7555231 C126.550561,25.9548573 126.550561,26.2960254 126.633052,26.6381519 C127.01863,28.404368 128.837149,29.0311208 130.462879,29.0311208 C132.859765,29.0311208 134.09899,27.6357813 134.09899,25.812065 C134.09899,24.074599 133.190657,23.2485121 131.041246,21.5963381 L129.939197,20.7415011 C127.321717,18.7194089 126.468069,17.237819 126.468069,15.5578533 C126.468069,12.7087158 128.64436,11 131.840208,11 C132.805079,11 133.769024,11.141834 134.347391,11.2846262 C134.816387,11.3986684 135.008249,11.3986684 135.201965,11.3986684 C135.393827,11.3986684 135.449439,11.4274185 135.449439,11.5692525 C135.449439,11.6832947 135.339142,12.4806315 135.339142,14.1337637 C135.339142,14.503682 135.311336,14.6742661 135.146353,14.6742661 C134.98137,14.6742661 134.953564,14.5602239 134.925758,14.3608897 C134.897952,14.0762635 134.705163,13.4207606 134.567986,13.1648845 C134.402076,12.8792999 133.603114,11.9679209 131.426824,11.9679209 C129.663917,11.9679209 128.204097,12.8792999 128.204097,14.5889741 C128.204097,16.1271058 128.947446,17.0097347 131.344332,18.6906587 L132.032997,19.1755775 C134.98137,21.25517 136,22.9351357 136,25.0147281 C136,26.4388177 135.476318,27.9769495 133.741218,29.1451629 C132.721661,29.8284576 131.206229,30 129.884512,30 C128.754658,30 127.349523,29.8284576 126.357772,29.3444971" id="Fill-7" fill="#373151"></path>
                <path d="M143.04775,18.9845201 C143.04775,15.3408669 143.04775,14.677709 142.992654,13.9328173 C142.938476,13.1321981 142.801653,12.7458204 142.010101,12.6352941 C141.8191,12.6074303 141.40955,12.5795666 141.191919,12.5795666 C141.110193,12.5795666 141,12.4690402 141,12.3863777 C141,12.2479876 141.110193,12.1931889 141.382002,12.1931889 C142.473829,12.1931889 144.030303,12.2479876 144.167126,12.2479876 C144.330579,12.2479876 149.352617,12.2758514 149.898072,12.2479876 C150.362718,12.2210526 150.798898,12.1374613 150.989899,12.1105263 C151.099174,12.0826625 151.208448,12 151.317723,12 C151.399449,12 151.426997,12.1105263 151.426997,12.2210526 C151.426997,12.3863777 151.291093,12.6622291 151.235996,13.325387 C151.208448,13.5464396 151.15427,14.5950464 151.099174,14.8708978 C151.072544,14.9814241 150.989899,15.1198142 150.881543,15.1198142 C150.74472,15.1198142 150.690542,15.0092879 150.690542,14.8160991 C150.690542,14.6498452 150.662994,14.2643963 150.553719,13.9876161 C150.390266,13.6012384 150.144169,13.4349845 148.833792,13.2696594 C148.424242,13.2148607 145.640955,13.1869969 145.367309,13.1869969 C145.258035,13.1869969 145.231405,13.2696594 145.231405,13.4349845 L145.231405,19.8130031 C145.231405,19.9783282 145.231405,20.0609907 145.367309,20.0609907 C145.668503,20.0609907 148.833792,20.0609907 149.380165,20.006192 C149.953168,19.9504644 150.307622,19.9235294 150.553719,19.674613 C150.717172,19.5092879 150.826446,19.3718266 150.909091,19.3718266 C150.989899,19.3718266 151.044995,19.4266254 151.044995,19.5640867 C151.044995,19.7024768 150.909091,20.0888545 150.853994,20.8616099 C150.798898,21.3315789 150.74472,22.2148607 150.74472,22.3801858 C150.74472,22.5733746 150.690542,22.822291 150.526171,22.822291 C150.416896,22.822291 150.362718,22.7386997 150.362718,22.6012384 C150.362718,22.3801858 150.362718,22.1321981 150.253444,21.828483 C150.171717,21.496904 149.953168,21.2210526 149.024793,21.1105263 C148.370064,21.0278638 145.804408,21 145.394858,21 C145.258035,21 145.231405,21.0826625 145.231405,21.1653251 L145.231405,23.1250774 C145.231405,23.9266254 145.203857,26.6591331 145.231405,27.1291022 C145.285583,28.7024768 145.722681,29.006192 148.097337,29.006192 C148.725436,29.006192 149.871442,29.006192 150.498623,28.7572755 C151.126722,28.4814241 151.454545,28.0671827 151.591368,27.1291022 C151.645546,26.8532508 151.699725,26.7696594 151.836547,26.7696594 C151.97337,26.7696594 152,26.9628483 152,27.1291022 C152,27.2944272 151.808999,28.8956656 151.673095,29.3925697 C151.508724,30 151.263545,30 150.33517,30 C148.534435,30 147.141414,29.9452012 146.158861,29.9173375 C145.14876,29.8616099 144.521579,29.8616099 144.167126,29.8616099 C144.112029,29.8616099 143.648301,29.8616099 143.129477,29.8894737 C142.66483,29.9173375 142.119376,29.9452012 141.737374,29.9452012 C141.492195,29.9452012 141.355372,29.8894737 141.355372,29.7510836 C141.355372,29.6684211 141.40955,29.5578947 141.546373,29.5578947 C141.764004,29.5578947 142.065197,29.4752322 142.282828,29.4482972 C142.747475,29.3647059 142.801653,28.8956656 142.910927,28.2055728 C143.04775,27.2396285 143.04775,25.3894737 143.04775,23.1250774 L143.04775,18.9845201 Z" id="Fill-9" fill="#373151"></path>
                <path d="M156.357772,29.3444971 C156.026879,29.173913 156,29.0876627 156,28.4331181 C156,27.2361545 156.109371,26.2682336 156.137177,25.8695652 C156.137177,25.6127308 156.192789,25.4708968 156.329966,25.4708968 C156.468069,25.4708968 156.550561,25.5561888 156.550561,25.7555231 C156.550561,25.9548573 156.550561,26.2960254 156.633052,26.6381519 C157.01863,28.404368 158.837149,29.0311208 160.462879,29.0311208 C162.859765,29.0311208 164.09899,27.6357813 164.09899,25.812065 C164.09899,24.074599 163.190657,23.2485121 161.041246,21.5963381 L159.939197,20.7415011 C157.321717,18.7194089 156.468069,17.237819 156.468069,15.5578533 C156.468069,12.7087158 158.64436,11 161.840208,11 C162.805079,11 163.769024,11.141834 164.347391,11.2846262 C164.816387,11.3986684 165.008249,11.3986684 165.201965,11.3986684 C165.393827,11.3986684 165.449439,11.4274185 165.449439,11.5692525 C165.449439,11.6832947 165.339142,12.4806315 165.339142,14.1337637 C165.339142,14.503682 165.311336,14.6742661 165.146353,14.6742661 C164.98137,14.6742661 164.953564,14.5602239 164.925758,14.3608897 C164.897952,14.0762635 164.705163,13.4207606 164.567986,13.1648845 C164.402076,12.8792999 163.603114,11.9679209 161.426824,11.9679209 C159.663917,11.9679209 158.204097,12.8792999 158.204097,14.5889741 C158.204097,16.1271058 158.947446,17.0097347 161.344332,18.6906587 L162.032997,19.1755775 C164.98137,21.25517 166,22.9351357 166,25.0147281 C166,26.4388177 165.476318,27.9769495 163.741218,29.1451629 C162.721661,29.8284576 161.206229,30 159.884512,30 C158.754658,30 157.349523,29.8284576 156.357772,29.3444971" id="Fill-11" fill="#373151"></path>
                <path d="M184.470697,30.1593763 C186.283926,30.1593763 189.933569,29.1498514 189.933569,23.2402475 C189.933569,18.339198 187.087125,15.7687921 183.896586,15.7687921 C180.522404,15.7687921 178.088691,17.9790693 178.088691,22.4229206 C178.088691,27.180307 180.820126,30.1593763 184.470697,30.1593763 M184.011594,15 C188.556258,15 192,17.9062671 192,22.6636535 C192,27.2278711 188.763086,31 183.896586,31 C178.36508,31 176,26.6512771 176,22.9762179 C176,19.6845841 178.433714,15 184.011594,15" id="Fill-13" fill="#373151"></path>
                <path d="M196.687273,20.8385132 C196.687273,17.792454 196.687273,17.2386251 196.641818,16.6158006 C196.597273,15.9463575 196.484545,15.6237568 195.831818,15.531452 C195.674545,15.5081427 195.337273,15.4848334 195.157273,15.4848334 C195.09,15.4848334 195,15.3925286 195,15.3235331 C195,15.2079189 195.09,15.1622327 195.314545,15.1622327 C196.214545,15.1622327 197.451818,15.2079189 197.564545,15.2079189 C197.947273,15.2079189 202.244545,15.2312282 202.694545,15.2079189 C203.077273,15.185542 203.414545,15.185542 203.594545,15.1156141 C203.707273,15.0923048 203.797273,15 203.864545,15 C203.954545,15 204,15.0923048 204,15.185542 C204,15.3235331 203.909091,15.5547613 203.841818,16.1076579 C203.819091,16.2931999 203.797273,17.1696295 203.751818,17.3999254 C203.73,17.4922302 203.661818,17.6078444 203.571818,17.6078444 C203.481818,17.6078444 203.414545,17.5155395 203.414545,17.3775485 C203.414545,17.2153158 203.347273,16.8927151 203.234545,16.6391099 C203.121818,16.3845724 202.65,16.0619717 201.884545,16.0619717 L198.644545,16.0153531 C198.531818,16.0153531 198.487273,16.0619717 198.487273,16.223272 L198.487273,21.5769518 C198.487273,21.6925659 198.487273,21.7615614 198.621818,21.7615614 L201.321818,21.7382521 C201.659091,21.7382521 201.951818,21.7382521 202.221818,21.7158752 C202.694545,21.6692566 202.964545,21.6002611 203.144545,21.3690328 C203.234545,21.2543511 203.324545,21.1620462 203.391818,21.1620462 C203.481818,21.1620462 203.504545,21.2310418 203.504545,21.3233466 C203.504545,21.4389607 203.37,21.7615614 203.324545,22.4076952 C203.279091,22.8002238 203.257273,23.5843486 203.257273,23.723272 C203.257273,23.9078817 203.211818,24.1158006 203.077273,24.1158006 C202.964545,24.1158006 202.941818,24.0234958 202.941818,23.9302586 C202.919091,23.723272 202.897273,23.4463575 202.807273,23.2151293 C202.717273,22.9391472 202.401818,22.6846096 201.794545,22.5923048 C201.3,22.5233093 198.959091,22.5466186 198.621818,22.5466186 C198.509091,22.5466186 198.487273,22.5923048 198.487273,22.7312282 L198.487273,24.2994779 C198.487273,26.2388115 198.487273,27.7846842 198.577273,28.5464321 C198.644545,29.122638 198.757273,29.4918573 199.297273,29.5841621 C199.589091,29.6307807 200.017273,29.6764669 200.197273,29.6764669 C200.309091,29.6764669 200.354545,29.7687718 200.354545,29.8377673 C200.354545,29.9310045 200.264545,30 200.04,30 C198.937273,30 197.654545,29.9310045 197.564545,29.9310045 C197.451818,29.9310045 196.214545,30 195.607273,30 C195.404545,30 195.291818,29.9533814 195.291818,29.8377673 C195.291818,29.7687718 195.337273,29.6764669 195.45,29.6764669 C195.629091,29.6764669 195.877273,29.6074714 196.057273,29.5841621 C196.44,29.5151666 196.484545,29.122638 196.574545,28.5464321 C196.687273,27.7380656 196.687273,26.1921929 196.687273,24.2994779 L196.687273,20.8385132 Z" id="Fill-15" fill="#373151"></path>
                <path d="M216.480746,17.0553578 C216.480746,12.7220986 216.480746,11.9445977 216.423188,11.0558918 C216.366589,10.1111161 216.138276,9.66629583 215.197204,9.47192061 C214.968891,9.41678533 214.484446,9.38875044 214.228313,9.38875044 C214.114157,9.38875044 214,9.33361517 214,9.22241011 C214,9.05513528 214.141976,9 214.456626,9 C215.739208,9 217.449637,9.08317017 217.678909,9.08317017 C218.305331,9.08317017 219.959161,9 221.271481,9 C224.835275,9 226.117857,10.1662513 226.574483,10.5830367 C227.201864,11.1661623 228,12.4165183 228,13.8883499 C228,17.8328587 225.034809,20.499911 220.985611,20.499911 C220.842675,20.499911 220.529944,20.499911 220.387008,20.4718761 C220.244073,20.4718761 220.073318,20.4167408 220.073318,20.2775009 C220.073318,20.0550908 220.244073,20.0270559 220.842675,20.0270559 C223.609291,20.0270559 225.776346,18.0552688 225.776346,15.4994215 C225.776346,14.5836152 225.690969,12.7220986 224.180074,11.2222321 C222.66822,9.72236561 220.929012,9.83263617 220.273811,9.83263617 C219.788406,9.83263617 219.303001,9.88870595 219.046869,9.999911 C218.876113,10.0550463 218.818556,10.2494215 218.818556,10.5279014 L218.818556,21.9437077 C218.818556,24.6107601 218.818556,26.8049573 218.961491,27.9721431 C219.046869,28.7776789 219.218583,29.3879049 220.073318,29.49911 C220.473345,29.5551798 221.099767,29.6103151 221.356859,29.6103151 C221.527614,29.6103151 221.585172,29.6934852 221.585172,29.7775899 C221.585172,29.9158953 221.442237,30 221.128546,30 C219.560093,30 217.763327,29.9158953 217.621351,29.9158953 C217.535974,29.9158953 215.739208,30 214.883514,30 C214.569823,30 214.427847,29.9439302 214.427847,29.7775899 C214.427847,29.6934852 214.484446,29.6103151 214.65616,29.6103151 C214.912293,29.6103151 215.254762,29.5551798 215.510895,29.49911 C216.080718,29.3879049 216.223654,28.7776789 216.33781,27.9721431 C216.480746,26.8049573 216.480746,24.6107601 216.480746,21.9437077 L216.480746,17.0553578 Z" id="Fill-17" fill="#373151"></path>
                <path d="M237.98789,22.1576986 C238.104107,22.1576986 238.104107,22.0994997 238.075785,21.9840719 L235.550271,15.2669492 C235.404756,14.8915663 235.259241,14.8915663 235.114703,15.2669492 L232.733727,21.9840719 C232.705406,22.0994997 232.733727,22.1576986 232.820646,22.1576986 L237.98789,22.1576986 Z M235.143025,11.950582 C235.462376,11.1435573 235.578593,11 235.753406,11 C236.015137,11 236.101079,11.3453135 236.362811,11.8933531 C236.826701,12.9312334 240.919674,23.0510517 242.487133,26.7709312 C243.416866,28.9621197 244.113189,29.2793037 244.664974,29.4519604 C245.042922,29.5673882 245.418917,29.5955177 245.680648,29.5955177 C245.825187,29.5955177 246,29.6537166 246,29.7972738 C246,29.9418011 245.709947,30 245.418917,30 C245.042922,30 243.155135,30 241.385517,29.9418011 C240.891352,29.9136716 240.485082,29.9136716 240.485082,29.7691444 C240.485082,29.6537166 240.542702,29.6537166 240.658919,29.5955177 C240.804434,29.5382887 241.065189,29.3365326 240.891352,28.9330202 L238.598271,23.3110067 C238.539675,23.1955789 238.510376,23.1664795 238.365838,23.1664795 L232.471996,23.1664795 C232.355779,23.1664795 232.269837,23.2246784 232.211241,23.3682357 L230.759998,27.2889014 C230.527565,27.8951399 230.383027,28.5004084 230.383027,28.9330202 C230.383027,29.4228609 230.817618,29.5955177 231.254163,29.5955177 L231.485619,29.5955177 C231.688754,29.5955177 231.746374,29.682816 231.746374,29.7972738 C231.746374,29.9418011 231.601836,30 231.370379,30 C230.759998,30 229.366375,29.9136716 229.076322,29.9136716 C228.814591,29.9136716 227.538161,30 226.493188,30 C226.17286,30 226,29.9418011 226,29.7972738 C226,29.682816 226.11524,29.5955177 226.231457,29.5955177 C226.40627,29.5955177 226.782265,29.5673882 226.9854,29.5382887 C228.147566,29.3937615 228.640754,28.5295079 229.133942,27.2889014 L235.143025,11.950582 Z" id="Fill-19" fill="#373151"></path>
                <path d="M250.307537,20.9015853 C250.307537,21.0419086 250.365124,21.1257259 250.479339,21.2095432 C250.849818,21.4054309 252.133057,21.5730655 253.246413,21.5730655 C253.845322,21.5730655 254.529652,21.5457542 255.128561,21.153979 C255.984694,20.5936274 256.64119,19.3335426 256.64119,17.514048 C256.64119,14.5474808 254.986512,12.8391147 252.30486,12.8391147 C251.562942,12.8391147 250.764397,12.9238738 250.507173,12.9794381 C250.392958,13.0350024 250.307537,13.1197614 250.307537,13.259143 L250.307537,20.9015853 Z M248.139372,18.8862031 C248.139372,15.1907079 248.139372,14.5192278 248.082744,13.7629885 C248.025157,12.9521268 247.883108,12.5603516 247.054809,12.4473395 C246.855173,12.4200283 246.428066,12.3917752 246.199636,12.3917752 C246.114215,12.3917752 246,12.2797049 246,12.1958876 C246,12.0555643 246.114215,12 246.399273,12 C247.540463,12 249.222974,12.0555643 249.366943,12.0555643 C249.623207,12.0555643 251.733785,12 252.504496,12 C254.101586,12 255.870479,12.1393816 257.183471,13.0350024 C257.810214,13.4832836 258.92357,14.6312981 258.92357,16.2831581 C258.92357,18.0461466 258.181653,19.7535709 255.842645,21.7133888 C257.895635,24.2326165 259.636694,26.3883221 261.090776,27.8716057 C262.432562,29.2155078 263.259901,29.4396484 263.886644,29.5234657 C264.372297,29.607283 264.629521,29.607283 264.77157,29.607283 C264.914579,29.607283 265,29.7193533 265,29.8031706 C265,29.943494 264.856991,30 264.401091,30 L262.831835,30 C261.405587,30 260.777884,29.8596767 260.150182,29.5234657 C259.065619,28.9640559 258.152859,27.8160414 256.725652,26.0238581 C255.670843,24.7364621 254.558446,23.1976142 254.016165,22.5534453 C253.90195,22.441375 253.845322,22.413122 253.67448,22.413122 L250.479339,22.3575577 C250.365124,22.3575577 250.307537,22.413122 250.307537,22.5534453 L250.307537,23.1128551 C250.307537,25.408884 250.307537,27.2566316 250.421752,28.2360697 C250.507173,28.9358029 250.650182,29.3831424 251.419933,29.4961544 C251.762578,29.5517187 252.30486,29.607283 252.53233,29.607283 C252.704132,29.607283 252.731966,29.7193533 252.731966,29.8031706 C252.731966,29.9152409 252.618711,30 252.332693,30 C250.964033,30 249.366943,29.9152409 249.251768,29.9152409 C249.222974,29.9152409 247.540463,30 246.770711,30 C246.513488,30 246.370479,29.943494 246.370479,29.8031706 C246.370479,29.7193533 246.428066,29.607283 246.571075,29.607283 C246.798545,29.607283 247.112396,29.5517187 247.340826,29.4961544 C247.82552,29.3831424 247.883108,28.9358029 247.997323,28.2360697 C248.139372,27.2566316 248.139372,25.380631 248.139372,23.0846021 L248.139372,18.8862031 Z" id="Fill-21" fill="#373151"></path>
                <path d="M269.305607,23.1068224 C269.305607,26.5956603 269.361682,28.0180472 269.805607,28.4367828 C270.194393,28.8282913 271.139252,28.99541 273.056075,28.99541 C274.333645,28.99541 275.416822,28.9672439 276,28.2696641 C276.305607,27.9072606 276.5,27.4049656 276.583178,26.9298978 C276.611215,26.7627791 276.694393,26.6228875 276.833645,26.6228875 C276.94486,26.6228875 277,26.734613 277,26.9862299 C277,27.236908 276.833645,28.6602337 276.639252,29.3578135 C276.472897,29.9164406 276.388785,30 275.084112,30 C273.333645,30 271.972897,29.9718339 270.833645,29.9164406 C269.721495,29.8882746 268.888785,29.8601085 268.166355,29.8601085 C268.05514,29.8601085 267.639252,29.8601085 267.166355,29.8882746 C266.666355,29.9164406 266.138318,29.9446067 265.749533,29.9446067 C265.5,29.9446067 265.360748,29.8882746 265.360748,29.7483831 C265.360748,29.6648237 265.416822,29.5530983 265.55514,29.5530983 C265.77757,29.5530983 266.083178,29.497705 266.305607,29.4423117 C266.77757,29.3296474 266.83271,28.8836845 266.94486,28.1861047 C267.083178,27.2096808 267.083178,25.3394534 267.083178,23.0504903 L267.083178,18.8650115 C267.083178,15.1818277 267.083178,14.5114751 267.027103,13.7575631 C266.971963,12.9491967 266.83271,12.5586272 266.027103,12.4469017 C265.83271,12.4187357 265.416822,12.3905696 265.194393,12.3905696 C265.111215,12.3905696 265,12.2788441 265,12.1952848 C265,12.0553933 265.111215,12 265.388785,12 C266.5,12 268.028037,12.0553933 268.166355,12.0553933 C268.27757,12.0553933 270.11028,12 270.860748,12 C271.111215,12 271.249533,12.0553933 271.249533,12.1952848 C271.249533,12.2788441 271.139252,12.3624035 271.05514,12.3624035 C270.888785,12.3624035 270.528037,12.3905696 270.250467,12.4187357 C269.527103,12.5586272 269.388785,12.9210307 269.33271,13.7575631 C269.305607,14.5114751 269.305607,15.1818277 269.305607,18.8650115 L269.305607,23.1068224 Z" id="Fill-23" fill="#373151"></path>
                <path d="M283.806136,23.0851821 C283.806136,25.3813311 283.806136,27.2564881 283.911961,28.2369192 C283.991107,28.9357472 284.070253,29.3840519 284.75767,29.4961281 C285.100934,29.5526371 285.604269,29.6082043 285.815029,29.6082043 C285.946643,29.6082043 286,29.7202805 286,29.8041021 C286,29.9161783 285.894175,30 285.630058,30 C284.33526,30 282.827924,29.9161783 282.722099,29.9161783 C282.590485,29.9161783 281.136505,30 280.42241,30 C280.184971,30 280.052468,29.9444328 280.052468,29.8041021 C280.052468,29.7202805 280.105825,29.6082043 280.237439,29.6082043 C280.449088,29.6082043 280.739884,29.5526371 280.951534,29.4961281 C281.400622,29.3840519 281.479769,28.9357472 281.559804,28.2369192 C281.66474,27.2564881 281.691418,25.3813311 281.691418,23.0851821 L281.691418,18.8865634 C281.691418,15.1908748 281.691418,14.5193596 281.638061,13.7630808 C281.585594,12.9512348 281.400622,12.5876936 280.898177,12.4756174 C280.63406,12.4191084 280.342374,12.3917957 280.184971,12.3917957 C280.079146,12.3917957 280,12.2797195 280,12.194956 C280,12.0555672 280.105825,12 280.369942,12 C281.136505,12 282.590485,12.0555672 282.722099,12.0555672 C282.827924,12.0555672 284.33526,12 285.048466,12 C285.312583,12 285.417519,12.0555672 285.417519,12.194956 C285.417519,12.2797195 285.312583,12.3917957 285.233437,12.3917957 C285.075145,12.3917957 284.915963,12.3917957 284.651845,12.4473629 C284.016896,12.5876936 283.885282,12.9229803 283.831925,13.7630808 C283.806136,14.5193596 283.806136,15.1908748 283.806136,18.8865634 L283.806136,23.0851821 Z" id="Fill-25" fill="#373151"></path>
                <path d="M298.98789,22.1576986 C299.104107,22.1576986 299.104107,22.0994997 299.075785,21.9840719 L296.550271,15.2669492 C296.403779,14.8915663 296.259241,14.8915663 296.114703,15.2669492 L293.733727,21.9840719 C293.705406,22.0994997 293.733727,22.1576986 293.820646,22.1576986 L298.98789,22.1576986 Z M296.143025,11.950582 C296.462376,11.1435573 296.578593,11 296.753406,11 C297.014161,11 297.101079,11.3453135 297.362811,11.8933531 C297.827677,12.9312334 301.92065,23.0510517 303.48811,26.7709312 C304.416866,28.9621197 305.113189,29.2793037 305.664974,29.4519604 C306.042922,29.5673882 306.418917,29.5955177 306.680648,29.5955177 C306.825187,29.5955177 307,29.6537166 307,29.7972738 C307,29.9418011 306.709947,30 306.418917,30 C306.042922,30 304.155135,30 302.38454,29.9418011 C301.891352,29.9136716 301.485082,29.9136716 301.485082,29.7691444 C301.485082,29.6537166 301.542702,29.6537166 301.658919,29.5955177 C301.804434,29.5382887 302.065189,29.3365326 301.891352,28.9330202 L299.597295,23.3110067 C299.539675,23.1955789 299.510376,23.1664795 299.365838,23.1664795 L293.472972,23.1664795 C293.355779,23.1664795 293.269837,23.2246784 293.211241,23.3682357 L291.759998,27.2889014 C291.527565,27.8951399 291.383027,28.5004084 291.383027,28.9330202 C291.383027,29.4228609 291.817618,29.5955177 292.253186,29.5955177 L292.485619,29.5955177 C292.688754,29.5955177 292.746374,29.682816 292.746374,29.7972738 C292.746374,29.9418011 292.601836,30 292.370379,30 C291.759998,30 290.366375,29.9136716 290.076322,29.9136716 C289.815567,29.9136716 288.538161,30 287.492212,30 C287.17286,30 287,29.9418011 287,29.7972738 C287,29.682816 287.11524,29.5955177 287.231457,29.5955177 C287.40627,29.5955177 287.782265,29.5673882 287.986376,29.5382887 C289.147566,29.3937615 289.640754,28.5295079 290.134919,27.2889014 L296.143025,11.950582 Z" id="Fill-27" fill="#373151"></path>
                <path d="M328.899878,26.8087729 C328.985035,27.679285 329.156307,29.0133546 330.180113,29.3617546 C330.891036,29.5940213 331.545507,29.5940213 331.80098,29.5940213 C331.914842,29.5940213 332,29.6516 332,29.7677333 C332,29.913144 331.772275,30 331.488097,30 C330.918784,30 328.131545,29.9414454 327.221601,29.8545893 C326.624541,29.7970106 326.510678,29.7101546 326.510678,29.5940213 C326.510678,29.5071652 326.567131,29.4193333 326.68195,29.3910319 C326.823561,29.3617546 326.852266,28.9850532 326.795813,28.5205198 L325.600735,16.0474087 L325.544282,16.0474087 L319.514352,28.6366531 C319.002449,29.7101546 318.860839,29.9414454 318.633114,29.9414454 C318.405389,29.9414454 318.263778,29.7101546 317.779623,28.8103652 C317.125153,27.592429 315.476539,24.4304792 314.849816,23.0954338 C314.111145,21.5290975 312.092238,17.3814782 311.664536,16.3655555 L311.550674,16.3655555 L310.583321,27.5045971 C310.555573,27.8822744 310.555573,28.3468077 310.555573,28.7527865 C310.555573,29.1294879 310.782341,29.3617546 311.152633,29.4486106 C311.579378,29.564744 311.948714,29.5940213 312.119986,29.5940213 C312.205144,29.5940213 312.319006,29.6808773 312.319006,29.7677333 C312.319006,29.9414454 312.147734,30 311.863556,30 C310.925865,30 309.730787,29.913144 309.531767,29.913144 C309.304042,29.913144 308.108964,30 307.427702,30 C307.171272,30 307,29.9414454 307,29.7677333 C307,29.6808773 307.113863,29.5940213 307.25643,29.5940213 C307.45545,29.5940213 307.626722,29.564744 307.996058,29.5071652 C308.820844,29.3617546 308.849548,28.4619652 308.962454,27.5338744 L310.782341,11.435256 C310.812002,11.1737121 310.925865,11 311.067476,11 C311.237791,11 311.436811,11.086856 311.579378,11.3767014 L319.145017,26.6926396 L326.425521,11.4059787 C326.539383,11.1737121 326.653246,11 326.823561,11 C326.994833,11 327.136444,11.2029894 327.193853,11.6665468 L328.899878,26.8087729 Z" id="Fill-29" fill="#373151"></path>
                <path d="M335.047003,18.9845201 C335.047003,15.3408669 335.047003,14.677709 334.991902,13.9328173 C334.937719,13.1321981 334.800885,12.7458204 334.009267,12.6352941 C333.81825,12.6074303 333.409584,12.5795666 333.190099,12.5795666 C333.109284,12.5795666 333,12.4690402 333,12.3863777 C333,12.2479876 333.109284,12.1931889 333.381115,12.1931889 C334.473952,12.1931889 336.029638,12.2479876 336.166472,12.2479876 C336.32902,12.2479876 341.352396,12.2758514 341.898814,12.2479876 C342.362581,12.2210526 342.798798,12.1374613 342.989815,12.1105263 C343.100017,12.0826625 343.2093,12 343.317666,12 C343.400317,12 343.426949,12.1105263 343.426949,12.2210526 C343.426949,12.3863777 343.291034,12.6622291 343.235933,13.325387 C343.2093,13.5464396 343.154199,14.5950464 343.100017,14.8708978 C343.071548,14.9814241 342.989815,15.1198142 342.880531,15.1198142 C342.744615,15.1198142 342.689514,15.0092879 342.689514,14.8160991 C342.689514,14.6498452 342.662882,14.2643963 342.553598,13.9876161 C342.389214,13.6012384 342.144014,13.4349845 340.834446,13.2696594 C340.423944,13.2148607 337.639506,13.1869969 337.366756,13.1869969 C337.257472,13.1869969 337.23084,13.2696594 337.23084,13.4349845 L337.23084,19.8130031 C337.23084,19.9783282 337.23084,20.0609907 337.366756,20.0609907 C337.667056,20.0609907 340.834446,20.0609907 341.379947,20.006192 C341.953916,19.9504644 342.30748,19.9235294 342.553598,19.674613 C342.717983,19.5092879 342.827267,19.3718266 342.909,19.3718266 C342.989815,19.3718266 343.044916,19.4266254 343.044916,19.5640867 C343.044916,19.7024768 342.909,20.0888545 342.853899,20.8616099 C342.798798,21.3315789 342.744615,22.2148607 342.744615,22.3801858 C342.744615,22.5733746 342.689514,22.822291 342.526966,22.822291 C342.416764,22.822291 342.362581,22.7386997 342.362581,22.6012384 C342.362581,22.3801858 342.362581,22.1321981 342.253298,21.828483 C342.171565,21.496904 341.953916,21.2210526 341.025463,21.1105263 C340.369761,21.0278638 337.80389,21 337.394306,21 C337.257472,21 337.23084,21.0826625 337.23084,21.1653251 L337.23084,23.1250774 C337.23084,23.9266254 337.203289,26.6591331 337.23084,27.1291022 C337.285941,28.7024768 337.722157,29.006192 340.097011,29.006192 C340.725163,29.006192 341.871264,29.006192 342.498497,28.7572755 C343.126649,28.4814241 343.4545,28.0671827 343.591334,27.1291022 C343.645517,26.8532508 343.700618,26.7696594 343.836534,26.7696594 C343.973368,26.7696594 344,26.9628483 344,27.1291022 C344,27.2944272 343.808983,28.8956656 343.673067,29.3925697 C343.508683,30 343.262565,30 342.335031,30 C340.534146,30 339.141009,29.9452012 338.159292,29.9173375 C337.148188,29.8616099 336.520037,29.8616099 336.166472,29.8616099 C336.111371,29.8616099 335.646686,29.8616099 335.128736,29.8894737 C334.664969,29.9173375 334.118551,29.9452012 333.736517,29.9452012 C333.491317,29.9452012 333.354483,29.8894737 333.354483,29.7510836 C333.354483,29.6684211 333.409584,29.5578947 333.5455,29.5578947 C333.764067,29.5578947 334.064368,29.4752322 334.282935,29.4482972 C334.746702,29.3647059 334.800885,28.8956656 334.911087,28.2055728 C335.047003,27.2396285 335.047003,25.3894737 335.047003,23.1250774 L335.047003,18.9845201 Z" id="Fill-31" fill="#373151"></path>
                <path d="M351.474459,26.4934087 C351.53148,28.5058788 351.756712,29.1093297 352.435258,29.2814679 C352.886671,29.3965491 353.452126,29.4255612 353.677358,29.4255612 C353.791399,29.4255612 353.87503,29.5116303 353.87503,29.6267115 C353.87503,29.7708047 353.706819,29.8278618 353.423616,29.8278618 C352.010454,29.8278618 351.022096,29.7417926 350.796864,29.7417926 C350.570682,29.7417926 349.525303,29.8278618 348.395343,29.8278618 C348.140651,29.8278618 348,29.7988497 348,29.6267115 C348,29.5116303 348.085531,29.4255612 348.197672,29.4255612 C348.395343,29.4255612 348.846757,29.3965491 349.21454,29.2814679 C349.836066,29.1093297 349.920646,28.4478546 349.920646,26.2342342 L349.920646,12.2359139 C349.920646,11.2582074 350.062248,11 350.259919,11 C350.543122,11 350.966025,11.4883697 351.219767,11.7465771 C351.61511,12.1488777 355.231171,16.0587367 359.073414,20.0836769 C361.531005,22.6705858 364.186268,25.5737263 364.949394,26.3783275 L364.694702,14.1333028 C364.666191,12.5521454 364.52459,12.0057515 363.762414,11.8626253 C363.31005,11.7755891 362.745545,11.7465771 362.547874,11.7465771 C362.378712,11.7465771 362.349252,11.6034509 362.349252,11.5173818 C362.349252,11.3732885 362.547874,11.3442765 362.830126,11.3442765 C363.960086,11.3442765 365.147066,11.4023006 365.429318,11.4023006 C365.71062,11.4023006 366.530767,11.3442765 367.547636,11.3442765 C367.802328,11.3442765 368,11.3732885 368,11.5173818 C368,11.6034509 367.886909,11.7465771 367.717748,11.7465771 C367.604657,11.7465771 367.406985,11.7465771 367.123782,11.8046012 C366.304585,11.9767395 366.248515,12.4660762 366.248515,13.9321525 L366.191494,28.2467043 C366.191494,29.8568738 366.163934,30 365.993823,30 C365.740081,30 365.485388,29.7988497 364.101687,28.5058788 C363.847945,28.2757164 360.259444,24.6820889 357.632692,21.8940296 C354.751247,18.818751 351.954383,15.8285743 351.192207,14.9669161 L351.474459,26.4934087 Z" id="Fill-33" fill="#373151"></path>
                <path d="M378.285671,22.8348657 C378.285671,25.2141353 378.285671,27.1571729 378.40006,28.1730957 C378.485611,28.8972212 378.6,29.3617546 379.370922,29.4778879 C379.714088,29.5364425 380.285071,29.5940213 380.513848,29.5940213 C380.685912,29.5940213 380.713788,29.7101546 380.713788,29.7970106 C380.713788,29.913144 380.599399,30 380.313908,30 C378.943166,30 377.341724,29.913144 377.199459,29.913144 C377.085071,29.913144 375.342325,30 374.599279,30 C374.313788,30 374.199399,29.9424213 374.199399,29.7970106 C374.199399,29.7101546 374.257074,29.6232986 374.399339,29.6232986 C374.628117,29.6232986 374.913608,29.564744 375.142385,29.5071652 C375.657615,29.3910319 375.79988,28.8972212 375.885431,28.1730957 C375.99982,27.1571729 375.99982,25.2141353 375.99982,22.8348657 L375.99982,12.4794802 L372.371102,12.5370589 C370.799459,12.5663362 370.19964,12.7400483 369.827636,13.320715 C369.542145,13.755971 369.513307,13.9296831 369.427756,14.1033951 C369.371042,14.3063845 369.285491,14.3356618 369.171102,14.3356618 C369.113427,14.3356618 369,14.2771072 369,14.1326725 C369,13.8711285 369.513307,11.6675227 369.542145,11.4645334 C369.59982,11.3191227 369.714208,11 369.79976,11 C369.971823,11 370.227516,11.2029894 370.913848,11.2898454 C371.628056,11.3767014 372.59988,11.4059787 372.885371,11.4059787 L382.370982,11.4059787 C383.199579,11.4059787 383.771523,11.3484 384.171403,11.2898454 C384.543406,11.2312908 384.771223,11.1737121 384.885611,11.1737121 C385,11.1737121 385,11.3191227 385,11.4645334 C385,12.2179362 384.913488,13.9882377 384.913488,14.2771072 C384.913488,14.4800966 384.80006,14.5972058 384.685671,14.5972058 C384.571283,14.5972058 384.513608,14.5093739 384.485731,14.1619498 L384.456894,13.9004058 C384.371343,13.146027 383.829198,12.5956135 381.427996,12.5370589 L378.285671,12.4794802 L378.285671,22.8348657 Z" id="Fill-35" fill="#373151"></path>
                <path d="M59.6462166,58.1748319 C59.114667,57.950048 59,57.7992315 59,57.0854947 C59,55.3592699 59.1525654,53.3698367 59.1904639,52.8443804 C59.1904639,52.3554275 59.3430293,52.0182517 59.6083182,52.0182517 C59.9115056,52.0182517 59.949404,52.3179635 59.949404,52.5446686 C59.949404,52.9567723 60.064071,53.6320845 60.2545349,54.1950048 C60.9755766,56.5600384 63.481731,57.3496638 65.5700311,57.3496638 C68.4561415,57.3496638 70.2033558,55.5475504 70.2033558,53.2949087 C70.2033558,51.9058598 69.8612983,50.5168108 66.899391,48.7896254 L64.9626846,47.6647454 C61.013475,45.3746398 59.7220135,43.23439 59.7220135,40.418828 C59.7220135,36.5148895 63.5196294,34 68.1519824,34 C70.317051,34 72.0253952,34.3006724 72.8990023,34.5254563 C73.2031614,34.6003842 73.3547551,34.7127762 73.3547551,34.9385207 C73.3547551,35.351585 73.2410599,36.2526417 73.2410599,38.7675312 C73.2410599,39.4428434 73.0884944,39.7809798 72.8232055,39.7809798 C72.595815,39.7809798 72.481148,39.5926993 72.481148,39.2180596 C72.481148,38.9173871 72.3295543,37.9414025 71.6085126,37.1152738 C71.1138896,36.5148895 70.0517621,35.6138329 67.8866934,35.6138329 C65.4942343,35.6138329 63.3291656,36.8530259 63.3291656,39.0297791 C63.3291656,40.456292 63.8607152,41.5830932 66.8614926,43.23439 L68.228751,43.9855908 C72.6337134,46.3880884 74,48.82805 74,51.7175793 C74,54.0826129 73.0884944,55.9971182 70.6591086,57.6868396 C69.063488,58.8126801 66.8614926,59 65.0763799,59 C63.1396735,59 61.0892718,58.8126801 59.6462166,58.1748319" id="Fill-37" fill="#373151"></path>
                <path d="M101.633181,44.3385203 C101.70875,44.3385203 101.822103,44.3012696 101.822103,44.1150157 L101.822103,43.4435468 C101.822103,38.6276913 101.784318,37.4710073 101.746534,36.4633263 C101.670965,35.3811438 101.36869,35.0449317 100.307821,34.7469256 C100.042361,34.6714689 99.4746267,34.6342182 99.021214,34.6342182 C98.6424014,34.6342182 98.4525106,34.5224659 98.4525106,34.2980061 C98.4525106,34.0745015 98.6801857,34 99.1723516,34 C100.951124,34 103.2986,34.0745015 104.169579,34.0745015 C104.96402,34.0745015 107.160358,34 108.447934,34 C108.9401,34 109.166806,34.0745015 109.166806,34.2980061 C109.166806,34.5224659 108.9401,34.6342182 108.561287,34.6342182 C108.296796,34.6342182 107.993552,34.6714689 107.576955,34.7469256 C106.705977,34.8959287 106.441486,35.343893 106.365917,36.4633263 C106.290348,37.4710073 106.290348,38.366936 106.290348,43.1818363 L106.290348,48.7799578 C106.290348,51.6912485 106.290348,54.1918255 106.441486,55.5739245 C106.554839,56.468898 106.743761,57.0668206 107.766846,57.2158236 C108.220259,57.2912803 108.9401,57.3285311 109.47005,57.3285311 C109.811078,57.3285311 110,57.5147849 110,57.663788 C110,57.8882477 109.73454,58 109.318912,58 C107.160358,58 104.96402,57.8882477 104.056226,57.8882477 C103.2986,57.8882477 100.951124,58 99.6645174,58 C99.210136,58 98.9456453,57.8882477 98.9456453,57.663788 C98.9456453,57.5147849 99.0967828,57.3285311 99.4746267,57.3285311 C100.004577,57.3285311 100.38339,57.2912803 100.686633,57.2158236 C101.36869,57.0668206 101.557612,56.468898 101.670965,55.5366737 C101.822103,54.1918255 101.822103,51.76575 101.822103,48.8554145 L101.822103,46.4283838 C101.822103,46.3166315 101.70875,46.24213 101.633181,46.24213 L89.0635753,46.24213 C88.9502222,46.24213 88.836869,46.2793807 88.836869,46.4283838 L88.836869,48.8554145 C88.836869,51.76575 88.8746534,54.1918255 89.0257909,55.5739245 C89.1391441,56.468898 89.3290348,57.0668206 90.3123977,57.2158236 C90.767748,57.2912803 91.5244045,57.3285311 92.0165703,57.3285311 C92.395383,57.3285311 92.5465206,57.5147849 92.5465206,57.663788 C92.5465206,57.8882477 92.2820299,58 91.8654328,58 C89.7068787,58 87.3981559,57.8882477 86.4516086,57.8882477 C85.6939832,57.8882477 83.4986136,58 82.1732536,58 C81.7566565,58 81.5289814,57.8882477 81.5289814,57.663788 C81.5289814,57.5147849 81.6433034,57.3285311 82.0599004,57.3285311 C82.5520663,57.3285311 82.9299101,57.2912803 83.233154,57.2158236 C83.9152106,57.0668206 84.1041326,56.468898 84.2174857,55.5366737 C84.3686233,54.1918255 84.3686233,51.6912485 84.3686233,48.7799578 L84.3686233,43.1818363 C84.3686233,38.366936 84.3686233,37.4710073 84.3308389,36.4633263 C84.2552701,35.3811438 83.952995,35.0449317 82.8921257,34.7469256 C82.6276351,34.6714689 82.0599004,34.6342182 81.5677346,34.6342182 C81.2267063,34.6342182 81,34.5224659 81,34.2980061 C81,34.0745015 81.2644907,34 81.7188721,34 C83.4986136,34 85.6939832,34.0745015 86.6027461,34.0745015 C87.3981559,34.0745015 89.7068787,34 91.0322387,34 C91.4866201,34 91.7142953,34.0745015 91.7142953,34.2980061 C91.7142953,34.5224659 91.5244045,34.6342182 91.1078074,34.6342182 C90.8433167,34.6342182 90.5400728,34.6714689 90.1612601,34.7469256 C89.2534661,34.8959287 88.9880065,35.343893 88.9124378,36.4633263 C88.836869,37.4710073 88.836869,38.6276913 88.836869,43.4435468 L88.836869,44.1150157 C88.836869,44.3012696 88.9502222,44.3385203 89.0635753,44.3385203 L101.633181,44.3385203 Z" id="Fill-39" fill="#373151"></path>
                <path d="M137.148208,47.1003612 C137.148208,40.0429955 132.96272,35.6896565 127.703373,35.6896565 C124.074244,35.6896565 119.814828,37.6415508 119.814828,45.5240529 C119.814828,52.0924844 123.518833,57.2738415 129.666269,57.2738415 C131.96279,57.2738415 137.148208,56.1845462 137.148208,47.1003612 M115,46.5 C115,41.0573657 118.777934,34 128.666339,34 C136.889458,34 142,38.6165373 142,45.9371014 C142,53.2567048 136.740654,59 128.333661,59 C118.851862,59 115,52.1674095 115,46.5" id="Fill-41" fill="#373151"></path>
                <path d="M152.375319,43.1818363 C152.375319,38.366936 152.375319,37.4710073 152.3365,36.4633263 C152.260803,35.3811438 151.958014,35.0449317 150.895342,34.7469256 C150.630401,34.6714689 150.061702,34.6342182 149.5687,34.6342182 C149.227092,34.6342182 149,34.5224659 149,34.2980061 C149,34.0745015 149.26494,34 149.757943,34 C151.50286,34 153.627235,34.0745015 154.57442,34.0745015 C155.939881,34.0745015 158.595107,34 160.111962,34 C164.283073,34 165.799928,35.343893 166.330779,35.7918574 C167.051844,36.4633263 168,37.8817209 168,39.5981215 C168,44.0768098 164.35877,47.2880169 159.61799,47.2880169 C159.466595,47.2880169 158.78435,47.2880169 158.632955,47.2507661 C158.442742,47.2507661 158.21565,47.1390138 158.21565,46.9135989 C158.21565,46.6528436 158.595107,46.5038405 159.315201,46.5038405 C161.173664,46.5038405 163.79007,44.5992757 163.79007,41.3527281 C163.79007,40.3077964 163.676525,38.2179329 161.818061,36.6495801 C160.603994,35.6046484 159.239504,35.4556453 158.481561,35.4556453 C157.987588,35.4556453 157.343191,35.4928961 157.039432,35.6046484 C156.850189,35.6791499 156.774492,35.8663589 156.774492,36.2016158 L156.774492,48.7799578 C156.774492,51.6912485 156.774492,54.1918255 156.925886,55.5739245 C157.039432,56.468898 157.229646,57.0668206 158.21565,57.2158236 C158.708653,57.2903251 159.428747,57.3285311 159.921749,57.3285311 C160.301205,57.3285311 160.4526,57.5147849 160.4526,57.663788 C160.4526,57.8872926 160.18766,58 159.846052,58 C157.609102,58 155.257636,57.8872926 154.385177,57.8872926 C153.627235,57.8872926 151.50286,58 150.175248,58 C149.757943,58 149.530851,57.8872926 149.530851,57.663788 C149.530851,57.5147849 149.644397,57.3285311 150.061702,57.3285311 C150.554704,57.3285311 150.934161,57.2903251 151.23792,57.2158236 C151.920165,57.0668206 152.109409,56.468898 152.222954,55.5366737 C152.375319,54.1918255 152.375319,51.6912485 152.375319,48.7799578 L152.375319,43.1818363 Z" id="Fill-43" fill="#373151"></path>
                <g id="Group-47">
                    <mask id="mask-2" fill="white">
                        <use xlink:href="#path-1"></use>
                    </mask>
                    <g id="Clip-46"></g>
                    <path d="M18.3611481,7.4803623 C18.3611481,7.4803623 16.9071673,6.48800164 16.0883019,7.88590328 C16.0883019,7.88590328 15.6793404,8.29050984 15.497475,10.1397393 C15.497475,10.1397393 16.9533404,10.568641 16.587725,12.5281328 C16.587725,12.5281328 20.2938212,15.457559 22.3178981,12.2805098 C22.3178981,12.2805098 23.4986096,11.1087393 23.7257058,6.94026393 C23.7257058,6.94026393 21.9767827,6.37587049 20.5218596,8.80911639 C20.5218596,8.80911639 19.6115904,10.568641 19.3402058,8.78762459 C19.3402058,8.78762459 19.2478596,4.79762459 18.6570327,3.89590328 C18.6570327,3.89590328 18.3847058,3.33244426 18.9981481,3.26423115 C18.9981481,3.26423115 19.2261865,3.35580492 19.3854365,3.71555902 C19.5456288,4.07437869 20.6123212,5.94603443 23.3384173,5.29380492 C23.3384173,5.29380492 24.1808404,2.27373934 19.5654173,1.48321475 C19.5654173,1.48321475 19.4071096,0.716985246 20.1355135,0.491788525 C20.1355135,0.491788525 21.4311865,1.05618197 23.8171096,1.0786082 C26.203975,1.1001 27.2047058,1.01039508 28.6803596,0.560001639 C28.6803596,0.560001639 29.5689558,0.357231148 29.4304365,1.52900164 C29.4304365,1.52900164 25.0675519,2.00182131 25.7036096,5.31623115 C25.7036096,5.31623115 28.4080327,6.03667377 29.658475,3.64828033 C29.658475,3.64828033 29.8412827,3.24273934 30.1833404,3.26423115 C30.1833404,3.26423115 30.7279942,3.46700164 30.2266865,4.14446066 C30.2266865,4.14446066 29.658475,6.08246066 29.6368019,8.83247705 C29.6368019,8.83247705 29.8083019,9.3258541 29.4304365,9.48470656 C29.4304365,9.48470656 29.0676481,9.86969016 28.6596288,9.01188689 C28.6596288,9.01188689 27.318725,6.44408361 25.3182058,6.94026393 C25.3182058,6.94026393 25.3860519,11.4245754 27.3856288,13.0682311 C27.3856288,13.0682311 29.0902635,14.9632475 32.4081288,12.5047721 C32.4081288,12.5047721 32.0236673,10.7256246 33.4993212,10.1397393 C33.4993212,10.1397393 33.4324173,5.81241148 30.613975,7.50278852 C30.613975,7.50278852 30.9786481,2.45408361 34.2493981,7.23180492 C34.2493981,7.23180492 34.4774365,2.99231311 37.0009365,2.27373934 C37.0009365,2.27373934 38.1609173,4.30144426 36.5458019,8.02046066 C36.5458019,8.02046066 42.2288596,4.97796885 39.5027635,10.3425098 C39.5027635,10.3425098 37.7953019,7.32150984 35.9097442,10.7256246 C35.9097442,10.7256246 36.8190712,12.3459197 35.5921865,12.8206082 C35.5921865,12.8206082 35.5921865,17.3282803 40.6825327,14.6240508 C40.6825327,14.6240508 42.0696096,14.2185098 43.5245327,12.3262967 C43.5245327,12.3262967 44.1389173,11.8973951 43.6385519,11.1545262 C43.1381865,10.4097885 42.251475,10.9283951 42.1610135,10.9956738 C42.0696096,11.0648213 40.7711096,11.8674934 40.4563788,12.0543787 C40.4563788,12.0543787 39.482975,12.3300344 40.1604942,11.4245754 C40.1604942,11.4245754 40.3461288,11.2404934 40.5261096,11.024641 C40.9237635,10.5462148 41.4005712,9.39500164 41.295975,6.60106721 C41.295975,6.60106721 41.2516865,6.08246066 41.614475,6.08246066 C41.614475,6.08246066 42.0008212,6.01518197 42.0696096,6.44408361 C42.1374558,6.87111639 42.251475,9.95846066 44.8880519,10.0500344 C44.8880519,10.0500344 47.0921096,7.93169016 44.5695519,5.09103443 C44.5695519,5.09103443 44.0022827,4.7303459 44.2529365,4.27901803 C44.2529365,4.27901803 44.4790904,3.85011639 45.0708596,4.16595246 L48.5932058,6.20673934 L41.0245904,18.8831656 L41.0245904,56.4816738 L39.5913404,56.4816738 L36.4543981,49.245477 L37.8179173,49.245477 L37.8179173,44.5808213 L33.4550327,44.5808213 L33.4550327,49.1800672 L34.9542442,49.1800672 L32.0236673,56.4143951 L28.9536288,49.245477 L30.5216288,49.245477 L30.5216288,44.5126082 L25.8864173,44.5126082 L25.8864173,49.1800672 L27.5222635,49.1800672 L24.4541096,56.4816738 L21.3850135,49.3146246 L22.9539558,49.3146246 L22.9539558,44.5126082 L18.2480712,44.5126082 L18.2480712,49.245477 L19.9536481,49.245477 L16.9533404,56.4143951 L13.8842442,49.245477 L15.3834558,49.245477 L15.3834558,44.5808213 L11.0205712,44.5808213 L11.0205712,49.1800672 L12.4519365,49.1800672 L9.31499423,56.4816738 L7.88268654,56.4816738 L7.88268654,19.2223623 L0.245282692,6.23944426 C0.245282692,6.23944426 3.31437885,4.46029672 3.67810962,4.30144426 C4.04184038,4.14446066 5.42703269,3.7828377 4.47435962,5.02188689 C3.51885962,6.26280492 2.70093654,7.43457541 3.63287885,9.37257541 C3.63287885,9.37257541 3.98624423,10.4733295 5.20087885,9.75662459 C6.26945577,9.12495246 6.63224423,8.69605082 6.90645577,6.75805082 C6.90645577,6.75805082 6.90645577,5.90211639 7.45205192,6.10395246 C7.45205192,6.10395246 7.70176346,5.94603443 7.70176346,6.87111639 C7.70176346,7.79432951 7.67914808,9.82390328 8.40660962,10.9283951 L8.85985962,11.4703623 C8.85985962,11.4703623 9.49685962,12.5047721 8.38399423,11.9646738 C8.38399423,11.9646738 6.42870577,10.3658705 5.67862885,10.860182 C5.67862885,10.860182 4.63360962,11.537641 5.587225,12.4832803 C5.587225,12.4832803 6.65485962,14.2185098 9.49685962,15.1202311 C9.49685962,15.1202311 13.2934173,16.698477 13.3848212,12.8206082 C13.3848212,12.8206082 12.2700712,12.4832803 13.0870519,10.770477 C13.0870519,10.770477 11.5887827,7.32150984 9.47424423,10.3658705 C9.47424423,10.3658705 7.83745577,7.30001803 9.65705192,7.14116557 C9.65705192,7.14116557 10.8160904,7.09537869 12.4745519,8.11203443 C12.4745519,8.11203443 10.9517827,4.41450984 11.9968019,2.27373934 C11.9968019,2.27373934 14.566475,2.8138377 14.7031096,7.36729672 C14.7031096,7.36729672 17.6798596,2.34101803 18.4289942,7.4803623 L18.3611481,7.4803623 Z M10.0254942,19.0308049 L38.9109942,19.0308049 L38.9109942,18.2533623 C38.9109942,18.2533623 25.7959558,12.3973131 10.0179558,18.2589689 L10.0254942,19.0308049 Z M39.3651865,19.7867557 C38.8318404,19.7867557 38.4002635,20.2156574 38.4002635,20.7426738 C38.4002635,21.2724934 38.8318404,21.7013951 39.3651865,21.7013951 C39.8966481,21.7013951 40.328225,21.2724934 40.328225,20.7426738 C40.328225,20.2156574 39.8966481,19.7867557 39.3651865,19.7867557 L39.3651865,19.7867557 Z M30.944725,20.7267885 C30.944725,21.2556738 31.3763019,21.6827066 31.9105904,21.6827066 C32.4420519,21.6827066 32.8736288,21.2556738 32.8736288,20.7267885 C32.8736288,20.1988377 32.4420519,19.7718049 31.9105904,19.7718049 C31.3763019,19.7718049 30.944725,20.1988377 30.944725,20.7267885 L30.944725,20.7267885 Z M23.557975,20.7267885 C23.557975,21.2556738 23.9895519,21.6827066 24.5219558,21.6827066 C25.0543596,21.6827066 25.4859365,21.2556738 25.4859365,20.7267885 C25.4859365,20.1988377 25.0543596,19.7718049 24.5219558,19.7718049 C23.9895519,19.7718049 23.557975,20.1988377 23.557975,20.7267885 L23.557975,20.7267885 Z M16.1241096,20.7323951 C16.1241096,21.2594115 16.5556865,21.6883131 17.0880904,21.6883131 C17.6223788,21.6883131 18.0530135,21.2594115 18.0530135,20.7323951 C18.0530135,20.2044443 17.6223788,19.7774115 17.0880904,19.7774115 C16.5556865,19.7774115 16.1241096,20.2044443 16.1241096,20.7323951 L16.1241096,20.7323951 Z M8.73641731,20.7323951 C8.73641731,21.2594115 9.16893654,21.6883131 9.70228269,21.6883131 C10.2337442,21.6883131 10.6672058,21.2594115 10.6672058,20.7323951 C10.6672058,20.2044443 10.2337442,19.7774115 9.70228269,19.7774115 C9.16893654,19.7774115 8.73641731,20.2044443 8.73641731,20.7323951 L8.73641731,20.7323951 Z M33.5238212,41.7738049 L37.8876481,41.7738049 L37.8876481,37.1082148 L33.5238212,37.1082148 L33.5238212,41.7738049 Z M33.5238212,34.3011984 L37.8876481,34.3011984 L37.8876481,29.6365426 L33.5238212,29.6365426 L33.5238212,34.3011984 Z M33.4898981,26.7622475 L37.8876481,26.7622475 L37.8876481,22.095723 L33.4898981,22.095723 L33.4898981,26.7622475 Z M25.9203404,41.7738049 L30.5216288,41.7738049 L30.5216288,37.1082148 L25.9203404,37.1082148 L25.9203404,41.7738049 Z M25.9203404,34.3357721 L30.5216288,34.3357721 L30.5216288,29.6019689 L25.9203404,29.6019689 L25.9203404,34.3357721 Z M25.9203404,26.7622475 L30.5216288,26.7622475 L30.5216288,22.1302967 L25.9203404,22.1302967 L25.9203404,26.7622475 Z M18.3159173,41.8083787 L22.9859942,41.8083787 L22.9859942,37.1427885 L18.3159173,37.1427885 L18.3159173,41.8083787 Z M18.3159173,34.3357721 L23.0218019,34.3357721 L23.0218019,29.6365426 L18.3159173,29.6365426 L18.3159173,34.3357721 Z M18.2810519,26.7622475 L23.0218019,26.7622475 L23.0218019,22.095723 L18.2810519,22.095723 L18.2810519,26.7622475 Z M11.0544942,41.7738049 L15.4861673,41.7738049 L15.4861673,37.1427885 L11.0544942,37.1427885 L11.0544942,41.7738049 Z M11.0544942,34.3011984 L15.4861673,34.3011984 L15.4861673,29.6365426 L11.0544942,29.6365426 L11.0544942,34.3011984 Z M11.0544942,26.7622475 L15.4861673,26.7622475 L15.4861673,22.095723 L11.0544942,22.095723 L11.0544942,26.7622475 Z M17.1107058,42.2045754 C16.5783019,42.2045754 16.146725,42.633477 16.146725,43.1604934 C16.146725,43.6903131 16.5783019,44.1173459 17.1107058,44.1173459 C17.6440519,44.1173459 18.0756288,43.6903131 18.0756288,43.1604934 C18.0756288,42.633477 17.6440519,42.2045754 17.1107058,42.2045754 L17.1107058,42.2045754 Z M9.70228269,42.2045754 C9.16893654,42.2045754 8.73641731,42.633477 8.73641731,43.1604934 C8.73641731,43.6903131 9.16893654,44.1173459 9.70228269,44.1173459 C10.2337442,44.1173459 10.6672058,43.6903131 10.6672058,43.1604934 C10.6672058,42.633477 10.2337442,42.2045754 9.70228269,42.2045754 L9.70228269,42.2045754 Z M17.0880904,34.7207557 C16.5556865,34.7207557 16.1241096,35.1477885 16.1241096,35.6776082 C16.1241096,36.2046246 16.5556865,36.6335262 17.0880904,36.6335262 C17.6223788,36.6335262 18.0530135,36.2046246 18.0530135,35.6776082 C18.0530135,35.1477885 17.6223788,34.7207557 17.0880904,34.7207557 L17.0880904,34.7207557 Z M9.70228269,34.7207557 C9.16893654,34.7207557 8.73641731,35.1477885 8.73641731,35.6776082 C8.73641731,36.2046246 9.16893654,36.6335262 9.70228269,36.6335262 C10.2337442,36.6335262 10.6672058,36.2046246 10.6672058,35.6776082 C10.6672058,35.1477885 10.2337442,34.7207557 9.70228269,34.7207557 L9.70228269,34.7207557 Z M8.73641731,28.2143459 C8.73641731,28.7441656 9.16893654,29.1711984 9.70228269,29.1711984 C10.2337442,29.1711984 10.6672058,28.7441656 10.6672058,28.2143459 C10.6672058,27.6873295 10.2337442,27.2584279 9.70228269,27.2584279 C9.16893654,27.2584279 8.73641731,27.6873295 8.73641731,28.2143459 L8.73641731,28.2143459 Z M16.146725,28.2143459 C16.146725,28.7441656 16.5783019,29.1711984 17.1107058,29.1711984 C17.6440519,29.1711984 18.0756288,28.7441656 18.0756288,28.2143459 C18.0756288,27.6873295 17.6440519,27.2584279 17.1107058,27.2584279 C16.5783019,27.2584279 16.146725,27.6873295 16.146725,28.2143459 L16.146725,28.2143459 Z M38.4228788,43.1810508 C38.4228788,43.7080672 38.8563404,44.1369689 39.3878019,44.1369689 C39.9202058,44.1369689 40.3517827,43.7080672 40.3517827,43.1810508 C40.3517827,42.6512311 39.9202058,42.2241984 39.3878019,42.2241984 C38.8563404,42.2241984 38.4228788,42.6512311 38.4228788,43.1810508 L38.4228788,43.1810508 Z M39.3651865,34.7394443 C38.8318404,34.7394443 38.4002635,35.1683459 38.4002635,35.6972311 C38.4002635,36.225182 38.8318404,36.6522148 39.3651865,36.6522148 C39.8966481,36.6522148 40.328225,36.225182 40.328225,35.6972311 C40.328225,35.1683459 39.8966481,34.7394443 39.3651865,34.7394443 L39.3651865,34.7394443 Z M38.4228788,28.2274279 C38.4228788,28.7553787 38.8563404,29.1842803 39.3878019,29.1842803 C39.9202058,29.1842803 40.3517827,28.7553787 40.3517827,28.2274279 C40.3517827,27.6985426 39.9202058,27.2715098 39.3878019,27.2715098 C38.8563404,27.2715098 38.4228788,27.6985426 38.4228788,28.2274279 L38.4228788,28.2274279 Z M31.9322635,42.2064443 C31.3998596,42.2064443 30.9673404,42.6353459 30.9673404,43.1623623 C30.9673404,43.692182 31.3998596,44.1192148 31.9322635,44.1192148 C32.4656096,44.1192148 32.8971865,43.692182 32.8971865,43.1623623 C32.8971865,42.6353459 32.4656096,42.2064443 31.9322635,42.2064443 L31.9322635,42.2064443 Z M23.557975,43.1623623 C23.557975,43.692182 23.9895519,44.1192148 24.5219558,44.1192148 C25.0543596,44.1192148 25.4859365,43.692182 25.4859365,43.1623623 C25.4859365,42.6353459 25.0543596,42.2064443 24.5219558,42.2064443 C23.9895519,42.2064443 23.557975,42.6353459 23.557975,43.1623623 L23.557975,43.1623623 Z M24.5219558,34.7226246 C23.9895519,34.7226246 23.557975,35.1515262 23.557975,35.679477 C23.557975,36.2064934 23.9895519,36.6353951 24.5219558,36.6353951 C25.0543596,36.6353951 25.4859365,36.2064934 25.4859365,35.679477 C25.4859365,35.1515262 25.0543596,34.7226246 24.5219558,34.7226246 L24.5219558,34.7226246 Z M23.557975,28.2096738 C23.557975,28.738559 23.9895519,29.1674607 24.5219558,29.1674607 C25.0543596,29.1674607 25.4859365,28.738559 25.4859365,28.2096738 C25.4859365,27.681723 25.0543596,27.2546902 24.5219558,27.2546902 C23.9895519,27.2546902 23.557975,27.681723 23.557975,28.2096738 L23.557975,28.2096738 Z M31.9105904,34.7226246 C31.3763019,34.7226246 30.944725,35.1515262 30.944725,35.679477 C30.944725,36.2064934 31.3763019,36.6353951 31.9105904,36.6353951 C32.4411096,36.6353951 32.8736288,36.2064934 32.8736288,35.679477 C32.8736288,35.1515262 32.4411096,34.7226246 31.9105904,34.7226246 L31.9105904,34.7226246 Z M31.9322635,27.2546902 C31.3998596,27.2546902 30.9673404,27.681723 30.9673404,28.2096738 C30.9673404,28.738559 31.3998596,29.1674607 31.9322635,29.1674607 C32.4656096,29.1674607 32.8971865,28.738559 32.8971865,28.2096738 C32.8971865,27.681723 32.4656096,27.2546902 31.9322635,27.2546902 L31.9322635,27.2546902 Z" id="Fill-45" fill="#373151" mask="url(#mask-2)"></path>
                </g>
                <path d="M10,14.0009766 C10,13.4482422 10.4477028,13 11,13 C11.5522972,13 12,13.4482422 12,14.0009766 C12,14.5517578 11.5522972,15 11,15 C10.4477028,15 10,14.5517578 10,14.0009766" id="Fill-48" fill="#373151"></path>
                <path d="M19,12.0009785 C19,11.4471624 19.4474841,11 19.9995115,11 C20.5525159,11 21,11.4471624 21,12.0009785 C21,12.5528376 20.5525159,13 19.9995115,13 C19.4474841,13 19,12.5528376 19,12.0009785" id="Fill-50" fill="#373151"></path>
                <path d="M29,12 C29,11.4486804 29.4474841,11 29.9995115,11 C30.5525159,11 31,11.4486804 31,12 C31,12.5513196 30.5525159,13 29.9995115,13 C29.4474841,13 29,12.5513196 29,12" id="Fill-52" fill="#373151"></path>
                <path d="M37,13.9995115 C37,13.4484612 37.4486804,13 38,13 C38.5532747,13 39,13.4484612 39,13.9995115 C39,14.5515388 38.5532747,15 38,15 C37.4486804,15 37,14.5515388 37,13.9995115" id="Fill-54" fill="#373151"></path>
                <path d="M30.868,4.1433365 C30.868,4.1433365 30.633,4.6441184 30.582,4.90122824 C30.528,5.15833809 30,4.83224755 30,4.83224755 L30.181,4.34669516 L30.551,4 L30.868,4.1433365 Z" id="Fill-56" fill="#373151"></path>
                <path d="M7.566,7.13302194 L7.212,7.27002194 L7,7.18602194 C7.255,6.80102194 7.566,7.13302194 7.566,7.13302194" id="Fill-58" fill="#373151"></path>
                <path d="M0,20.9990909 C0,19.3427273 1.34252386,18 2.99954552,18 C4.65656719,18 6,19.3427273 6,20.9990909 C6,22.6554545 4.65656719,24 2.99954552,24 C1.34252386,24 0,22.6554545 0,20.9990909 M0.928950159,20.9990909 C0.928950159,22.1427273 1.85699136,23.0690909 2.99954552,23.0690909 C4.14300864,23.0690909 5.06923193,22.1427273 5.06923193,20.9990909 C5.06923193,19.8572727 4.14300864,18.9290909 2.99954552,18.9290909 C1.85699136,18.9290909 0.928950159,19.8572727 0.928950159,20.9990909" id="Fill-60" fill="#373151"></path>
                <path d="M4.61449462,34 L1.38261289,34 C0.618994054,34 0,33.3975875 0,32.6546434 L0,27.3444197 C0,26.6024125 0.618994054,26 1.38261289,26 L4.61449462,26 C5.38004178,26 6,26.6024125 6,27.3444197 L6,32.6546434 C6,33.3975875 5.38004178,34 4.61449462,34 L4.61449462,34 Z M1.47613691,27.3556623 C1.25919974,27.3556623 1.08179335,27.5280478 1.08179335,27.7397822 L1.08179335,32.2602178 C1.08179335,32.4719522 1.25919974,32.6443377 1.47613691,32.6443377 L4.59424715,32.6443377 C4.81118432,32.6443377 4.98859071,32.4719522 4.98859071,32.2602178 L4.98859071,27.7397822 C4.98859071,27.5280478 4.81118432,27.3556623 4.59424715,27.3556623 L1.47613691,27.3556623 Z" id="Fill-62" fill="#373151"></path>
                <path d="M4.61449462,43 L1.38357705,43 C0.618029889,43 0,42.3976581 0,41.6538642 L0,36.3470726 C0,35.6023419 0.618029889,35 1.38357705,35 L4.61449462,35 C5.38004178,35 6,35.6023419 6,36.3470726 L6,41.6538642 C6,42.3976581 5.38004178,43 4.61449462,43 L4.61449462,43 Z M1.47517275,36.3564403 C1.25727141,36.3564403 1.08082918,36.5278689 1.08082918,36.7405152 L1.08082918,41.2604215 C1.08082918,41.4721311 1.25727141,41.6444965 1.47517275,41.6444965 L4.59328298,41.6444965 C4.81022015,41.6444965 4.98762655,41.4721311 4.98762655,41.2604215 L4.98762655,36.7405152 C4.98762655,36.5278689 4.81022015,36.3564403 4.59328298,36.3564403 L1.47517275,36.3564403 Z" id="Fill-64" fill="#373151"></path>
                <path d="M4.61449462,52 L1.38357705,52 C0.618029889,52 0,51.3975875 0,50.6546434 L0,45.3444197 C0,44.6033493 0.618029889,44 1.38357705,44 L4.61449462,44 C5.38004178,44 6,44.6033493 6,45.3444197 L6,50.6546434 C6,51.3975875 5.38004178,52 4.61449462,52 L4.61449462,52 Z M1.47517275,45.357536 C1.25727141,45.357536 1.08082918,45.5299215 1.08082918,45.7416559 L1.08082918,50.2602178 C1.08082918,50.4719522 1.25727141,50.6462115 1.47517275,50.6462115 L4.59328298,50.6462115 C4.81022015,50.6462115 4.98762655,50.4719522 4.98762655,50.2602178 L4.98762655,45.7416559 C4.98762655,45.5299215 4.81022015,45.357536 4.59328298,45.357536 L1.47517275,45.357536 Z" id="Fill-66" fill="#373151"></path>
                <g id="Group-70" transform="translate(0.000000, 54.000000)">
                    <mask id="mask-4" fill="white">
                        <use xlink:href="#path-3"></use>
                    </mask>
                    <g id="Clip-69"></g>
                    <path d="M0,3.6992 C0,1.8772 1.477,0.3982 3.3,0.3982 C5.123,0.3982 6.601,1.8772 6.601,3.6992 C6.601,5.5212 5.123,7.0002 3.3,7.0002 C1.477,7.0002 0,5.5212 0,3.6992 M1.022,3.6992 C1.022,4.9572 2.043,5.9762 3.3,5.9762 C4.558,5.9762 5.577,4.9572 5.577,3.6992 C5.577,2.4412 4.558,1.4222 3.3,1.4222 C2.043,1.4222 1.022,2.4412 1.022,3.6992" id="Fill-68" fill="#373151" mask="url(#mask-4)"></path>
                </g>
                <mask id="mask-6" fill="white">
                    <use xlink:href="#path-5"></use>
                </mask>
                <g id="Clip-72"></g>
                <polygon id="Fill-71" fill="#373151" mask="url(#mask-6)" points="3 54 4 54 4 50 3 50"></polygon>
                <polygon id="Fill-73" fill="#373151" mask="url(#mask-6)" points="3 46 4 46 4 40 3 40"></polygon>
                <polygon id="Fill-74" fill="#373151" mask="url(#mask-6)" points="3 37 4 37 4 31 3 31"></polygon>
                <polygon id="Fill-75" fill="#373151" mask="url(#mask-6)" points="3 28 4 28 4 22 3 22"></polygon>
                <polygon id="Fill-76" fill="#373151" mask="url(#mask-6)" points="4 22 8 22 8 21 4 21"></polygon>
                <path d="M42,20.9990909 C42,19.3427273 43.3425239,18 44.9995455,18 C46.6565672,18 48,19.3427273 48,20.9990909 C48,22.6554545 46.6565672,24 44.9995455,24 C43.3425239,24 42,22.6554545 42,20.9990909 M42.9289502,20.9990909 C42.9289502,22.1427273 43.8569914,23.0690909 44.9995455,23.0690909 C46.1430086,23.0690909 47.0701409,22.1427273 47.0701409,20.9990909 C47.0701409,19.8572727 46.1430086,18.9290909 44.9995455,18.9290909 C43.8569914,18.9290909 42.9289502,19.8572727 42.9289502,20.9990909" id="Fill-77" fill="#373151" mask="url(#mask-6)"></path>
                <path d="M44.3845412,34 C43.6199582,34 43,33.3975875 43,32.6546434 L43,27.3444197 C43,26.6024125 43.6199582,26 44.3845412,26 L47.6164229,26 C48.3819701,26 49,26.6024125 49,27.3444197 L49,32.6546434 C49,33.3975875 48.3819701,34 47.6164229,34 L44.3845412,34 Z M47.5238631,27.3556623 L44.406717,27.3556623 C44.1897798,27.3556623 44.0123735,27.5280478 44.0123735,27.7397822 L44.0123735,32.2602178 C44.0123735,32.4719522 44.1897798,32.6443377 44.406717,32.6443377 L47.5238631,32.6443377 C47.7417644,32.6443377 47.9191708,32.4719522 47.9191708,32.2602178 L47.9191708,27.7397822 C47.9191708,27.5280478 47.7417644,27.3556623 47.5238631,27.3556623 L47.5238631,27.3556623 Z" id="Fill-78" fill="#373151" mask="url(#mask-6)"></path>
                <path d="M44.3840964,43 C43.6207229,43 43,42.3976581 43,41.6538642 L43,36.3470726 C43,35.6023419 43.6207229,35 44.3840964,35 L47.6149398,35 C48.3783133,35 49,35.6023419 49,36.3470726 L49,41.6538642 C49,42.3976581 48.3783133,43 47.6149398,43 L44.3840964,43 Z M47.5214458,36.3564403 L44.4072289,36.3564403 C44.1884337,36.3564403 44.0120482,36.5278689 44.0120482,36.7405152 L44.0120482,41.2604215 C44.0120482,41.4721311 44.1884337,41.6444965 44.4072289,41.6444965 L47.5214458,41.6444965 C47.740241,41.6444965 47.9175904,41.4721311 47.9175904,41.2604215 L47.9175904,36.7405152 C47.9175904,36.5278689 47.740241,36.3564403 47.5214458,36.3564403 L47.5214458,36.3564403 Z" id="Fill-79" fill="#373151" mask="url(#mask-6)"></path>
                <path d="M44.3840964,52 C43.6207229,52 43,51.3975875 43,50.6546434 L43,45.3444197 C43,44.6033493 43.6207229,44 44.3840964,44 L47.6149398,44 C48.3783133,44 49,44.6033493 49,45.3444197 L49,50.6546434 C49,51.3975875 48.3783133,52 47.6149398,52 L44.3840964,52 Z M47.5214458,45.357536 L44.4072289,45.357536 C44.1884337,45.357536 44.0120482,45.5299215 44.0120482,45.7416559 L44.0120482,50.2602178 C44.0120482,50.4719522 44.1884337,50.6462115 44.4072289,50.6462115 L47.5214458,50.6462115 C47.740241,50.6462115 47.9175904,50.4719522 47.9175904,50.2602178 L47.9175904,45.7416559 C47.9175904,45.5299215 47.740241,45.357536 47.5214458,45.357536 L47.5214458,45.357536 Z" id="Fill-80" fill="#373151" mask="url(#mask-6)"></path>
                <path d="M42,57 C42,55.3441381 43.3425239,54 44.9995455,54 C46.6565672,54 48,55.3441381 48,57 C48,58.6558619 46.6565672,60 44.9995455,60 C43.3425239,60 42,58.6558619 42,57 M42.9289502,57 C42.9289502,58.1432899 43.8569914,59.0693729 44.9995455,59.0693729 C46.1430086,59.0693729 47.0701409,58.1432899 47.0701409,57 C47.0701409,55.8567101 46.1430086,54.9306271 44.9995455,54.9306271 C43.8569914,54.9306271 42.9289502,55.8567101 42.9289502,57" id="Fill-81" fill="#373151" mask="url(#mask-6)"></path>
                <polygon id="Fill-82" fill="#373151" mask="url(#mask-6)" points="45 54 46 54 46 50 45 50"></polygon>
                <polygon id="Fill-83" fill="#373151" mask="url(#mask-6)" points="45 46 46 46 46 40 45 40"></polygon>
                <polygon id="Fill-84" fill="#373151" mask="url(#mask-6)" points="45 37 46 37 46 31 45 31"></polygon>
                <polygon id="Fill-85" fill="#373151" mask="url(#mask-6)" points="45 28 46 28 46 22 45 22"></polygon>
                <polygon id="Fill-86" fill="#373151" mask="url(#mask-6)" points="40 22 44 22 44 21 40 21"></polygon>
            </g>
        </g>
    </g>
</svg>