<svg xmlns="http://www.w3.org/2000/svg" id="Layer_1" data-name="Layer 1" viewBox="0 0 410.297 63.473"><defs><style>.cls-1{fill:#373251;}</style></defs><path d="M82.887 21.858c0 2.854 0 5.2.149 6.45.089.862.268 1.516 1.159 1.635a12.907 12.907 0 0 0 1.337.119.193.193 0 0 1 .238.179c0 .148-.148.238-.476.238-1.635 0-3.507-.089-3.656-.089s-2.021.089-2.913.089c-.327 0-.476-.06-.476-.238a.193.193 0 0 1 .238-.179 4.576 4.576 0 0 0 .892-.119c.595-.119.743-.773.862-1.635.149-1.249.149-3.6.149-6.45v-3.121a.172.172 0 0 0-.179-.178h-12.6a.157.157 0 0 0-.179.178v3.121c0 2.854 0 5.2.149 6.45.089.862.267 1.516 1.159 1.635a12.907 12.907 0 0 0 1.337.119.193.193 0 0 1 .238.179c0 .148-.148.238-.476.238-1.635 0-3.507-.089-3.656-.089s-2.022.088-2.913.088c-.327 0-.476-.06-.476-.238a.193.193 0 0 1 .238-.179 4.575 4.575 0 0 0 .892-.119c.594-.119.743-.773.862-1.635.149-1.249.149-3.6.149-6.45v-5.231c0-4.637 0-5.469-.06-6.42a1.46 1.46 0 0 0-1.278-1.694 5.541 5.541 0 0 0-1.01-.089.207.207 0 0 1-.238-.178c0-.178.148-.238.476-.238 1.337 0 3.21.089 3.359.089s2.021-.089 2.913-.089c.327 0 .476.06.476.238a.207.207 0 0 1-.238.178 4.413 4.413 0 0 0-.743.089c-.8.148-1.04.654-1.1 1.694-.059.951-.059 1.783-.059 6.42v.624a.156.156 0 0 0 .179.178h12.6a.156.156 0 0 0 .179-.178v-.624c0-4.637 0-5.469-.06-6.42a1.459 1.459 0 0 0-1.278-1.694 5.544 5.544 0 0 0-1.01-.089.207.207 0 0 1-.238-.178c0-.178.148-.238.476-.238 1.337 0 3.21.089 3.358.089s2.021-.089 2.913-.089c.327 0 .475.06.475.238a.207.207 0 0 1-.238.178 4.411 4.411 0 0 0-.743.089c-.8.148-1.04.654-1.1 1.694-.06.951-.06 1.783-.06 6.42v5.232zm16.521-10.849c5.886 0 10.344 3.6 10.344 9.482a10.123 10.123 0 0 1-10.493 10.314c-7.164 0-10.225-5.38-10.225-9.928a10.007 10.007 0 0 1 10.374-9.868zm.595 18.756c2.348 0 7.074-1.248 7.074-8.561 0-6.064-3.686-9.244-7.817-9.244-4.369 0-7.52 2.734-7.52 8.233-.001 5.885 3.536 9.572 8.262 9.572zm14.381-11.087c0-3.923 0-4.637-.059-5.439s-.208-1.278-1.07-1.4a8.392 8.392 0 0 0-.892-.06.252.252 0 0 1-.208-.208c0-.148.119-.208.416-.208 1.189 0 2.764.059 3 .059s1.873-.059 2.646-.059c.3 0 .446.059.446.208a.255.255 0 0 1-.238.208 3.048 3.048 0 0 0-.654.06c-.684.119-.832.565-.892 1.4-.06.8-.06 1.516-.06 5.439v3.537c0 3.656.8 5.172 1.932 6.183a5.094 5.094 0 0 0 3.894 1.368 5.368 5.368 0 0 0 4.045-1.788c1.218-1.456 1.486-3.537 1.486-6.123v-3.177c0-3.923-.03-4.637-.059-5.439s-.179-1.278-1.04-1.4a8.4 8.4 0 0 0-.892-.06.223.223 0 0 1-.208-.208c0-.148.119-.208.416-.208 1.159 0 2.675.059 2.824.059.178 0 1.427-.059 2.2-.059.3 0 .416.059.416.208a.223.223 0 0 1-.208.208 3.045 3.045 0 0 0-.654.06c-.714.148-.862.565-.922 1.4-.059.8-.029 1.516-.029 5.439v2.7c0 2.734-.357 5.8-2.438 7.58a7.915 7.915 0 0 1-5.469 1.843 8.162 8.162 0 0 1-5.439-1.783c-1.278-1.189-2.289-2.943-2.289-6.628v-3.712zm20.594 11.443c-.357-.178-.386-.268-.386-.951 0-1.249.119-2.259.148-2.675 0-.267.06-.416.208-.416a.24.24 0 0 1 .238.3 3.782 3.782 0 0 0 .089.921c.416 1.843 2.378 2.5 4.131 2.5 2.586 0 3.924-1.456 3.924-3.358 0-1.813-.981-2.675-3.3-4.4l-1.189-.892c-2.824-2.11-3.746-3.656-3.746-5.41 0-2.973 2.349-4.756 5.8-4.756a12.68 12.68 0 0 1 2.705.3 3.386 3.386 0 0 0 .921.119c.208 0 .268.03.268.178a26.733 26.733 0 0 0-.119 2.675c0 .386-.03.565-.208.565s-.208-.119-.238-.327a4.682 4.682 0 0 0-.386-1.249c-.179-.3-1.04-1.248-3.389-1.248-1.9 0-3.477.951-3.477 2.735 0 1.6.8 2.526 3.388 4.28l.743.505c3.181 2.17 4.28 3.923 4.28 6.093a4.926 4.926 0 0 1-2.437 4.31 8.016 8.016 0 0 1-4.161.892 9.607 9.607 0 0 1-3.807-.691zm16.881-11.443c0-3.923 0-4.637-.06-5.439-.06-.862-.208-1.278-1.07-1.4a8.392 8.392 0 0 0-.892-.06.253.253 0 0 1-.208-.208c0-.148.119-.208.416-.208 1.189 0 2.883.059 3.032.059.178 0 5.647.03 6.242 0 .505-.03.981-.119 1.189-.149a1.672 1.672 0 0 1 .357-.119c.089 0 .119.119.119.238 0 .178-.149.475-.208 1.189-.03.238-.089 1.367-.149 1.665a.32.32 0 0 1-.238.268c-.149 0-.208-.119-.208-.327a2.767 2.767 0 0 0-.149-.892c-.178-.416-.446-.595-1.873-.773-.446-.06-3.477-.089-3.775-.089-.119 0-.148.089-.148.267v6.867c0 .178 0 .267.148.267.327 0 3.775 0 4.37-.059a1.987 1.987 0 0 0 1.278-.357 1.025 1.025 0 0 1 .387-.327c.089 0 .149.059.149.208a13.792 13.792 0 0 0-.208 1.4c-.06.505-.119 1.456-.119 1.635 0 .208-.059.476-.238.476a.193.193 0 0 1-.178-.238 2.247 2.247 0 0 0-.119-.832c-.089-.356-.327-.654-1.338-.772-.713-.089-3.507-.119-3.953-.119a.156.156 0 0 0-.178.178v2.11c0 .862-.03 3.8 0 4.31.059 1.694.535 2.021 3.121 2.021a8.7 8.7 0 0 0 2.615-.268 1.917 1.917 0 0 0 1.19-1.754c.059-.3.119-.386.267-.386s.179.208.179.386a20.973 20.973 0 0 1-.357 2.437c-.178.654-.446.654-1.457.654-1.961 0-3.477-.059-4.548-.089-1.1-.06-1.783-.06-2.169-.06-.06 0-.565 0-1.13.03-.505.03-1.1.06-1.516.06-.268 0-.417-.06-.417-.209a.2.2 0 0 1 .209-.208 7.456 7.456 0 0 0 .8-.119c.505-.089.565-.595.684-1.337a51.466 51.466 0 0 0 .149-5.47v-4.457zm13.877 11.443c-.357-.178-.386-.268-.386-.951 0-1.249.119-2.259.148-2.675 0-.267.06-.416.208-.416a.24.24 0 0 1 .238.3 3.782 3.782 0 0 0 .089.921c.416 1.843 2.378 2.5 4.131 2.5 2.586 0 3.924-1.456 3.924-3.358 0-1.813-.981-2.675-3.3-4.4l-1.189-.892c-2.824-2.11-3.746-3.656-3.746-5.41 0-2.973 2.349-4.756 5.8-4.756a12.68 12.68 0 0 1 2.705.3 3.386 3.386 0 0 0 .921.119c.208 0 .268.03.268.178a26.756 26.756 0 0 0-.119 2.675c0 .386-.03.565-.208.565s-.208-.119-.238-.327a4.678 4.678 0 0 0-.386-1.249c-.179-.3-1.041-1.248-3.389-1.248-1.9 0-3.477.951-3.477 2.735 0 1.6.8 2.526 3.388 4.28l.743.505c3.181 2.17 4.28 3.923 4.28 6.093a4.926 4.926 0 0 1-2.437 4.31 8.016 8.016 0 0 1-4.161.892 9.607 9.607 0 0 1-3.807-.691zm30.296-15.869c4.9 0 8.613 2.995 8.613 7.895a8.43 8.43 0 0 1-8.737 8.588 8.069 8.069 0 0 1-8.514-8.267 8.333 8.333 0 0 1 8.638-8.216zm.5 15.617c1.955 0 5.89-1.04 5.89-7.128 0-5.049-3.069-7.7-6.509-7.7-3.638 0-6.262 2.277-6.262 6.855-.005 4.904 2.94 7.973 6.876 7.973zm12.416-9.232c0-3.267 0-3.861-.05-4.529a.958.958 0 0 0-.891-1.163 6.96 6.96 0 0 0-.742-.049.21.21 0 0 1-.173-.173c0-.124.1-.173.347-.173.99 0 2.351.049 2.475.049.421 0 5.148.025 5.643 0a4.494 4.494 0 0 0 .99-.1c.123-.025.223-.124.3-.124a.173.173 0 0 1 .149.2c0 .148-.1.4-.173.99-.025.2-.049 1.139-.1 1.386a.266.266 0 0 1-.2.223.211.211 0 0 1-.173-.248 2.306 2.306 0 0 0-.2-.792 1.638 1.638 0 0 0-1.485-.619l-3.564-.05c-.124 0-.173.05-.173.223v5.742c0 .124 0 .2.148.2l2.97-.025c.371 0 .693 0 .99-.025a1.336 1.336 0 0 0 1.015-.371.51.51 0 0 1 .272-.223c.1 0 .124.074.124.173a8.671 8.671 0 0 0-.2 1.163c-.049.421-.074 1.262-.074 1.411 0 .2-.049.421-.2.421a.159.159 0 0 1-.148-.2 3.017 3.017 0 0 0-.148-.767 1.251 1.251 0 0 0-1.114-.668c-.544-.074-3.119-.049-3.49-.049-.124 0-.148.049-.148.2v1.683c0 2.079 0 3.737.1 4.554a.992.992 0 0 0 .792 1.114 8.889 8.889 0 0 0 .99.1.168.168 0 0 1 .173.173c0 .1-.1.173-.347.173-1.213 0-2.623-.074-2.723-.074-.124 0-1.485.074-2.153.074-.223 0-.347-.049-.347-.173a.168.168 0 0 1 .173-.173 6.3 6.3 0 0 0 .668-.1c.421-.074.47-.5.569-1.114a42.869 42.869 0 0 0 .124-4.554v-3.716zm20.632-4.011c0-4.637 0-5.469-.06-6.42a1.46 1.46 0 0 0-1.278-1.694 5.541 5.541 0 0 0-1.01-.089.207.207 0 0 1-.238-.178c0-.178.149-.238.476-.238 1.337 0 3.121.089 3.359.089.654 0 2.378-.089 3.745-.089 3.716 0 5.053 1.248 5.528 1.694a5.162 5.162 0 0 1 1.486 3.537c0 4.221-3.091 7.074-7.312 7.074a4.4 4.4 0 0 1-.624-.03.281.281 0 0 1-.327-.208c0-.238.179-.268.8-.268a4.936 4.936 0 0 0 5.143-4.845 6.305 6.305 0 0 0-1.664-4.578 5.163 5.163 0 0 0-4.072-1.486 3.646 3.646 0 0 0-1.278.179.521.521 0 0 0-.238.564v12.218c0 2.854 0 5.2.149 6.45.089.862.268 1.516 1.159 1.635a12.939 12.939 0 0 0 1.338.119.194.194 0 0 1 .238.179c0 .148-.149.238-.476.238-1.635 0-3.508-.089-3.656-.089-.089 0-1.962.089-2.854.089-.327 0-.476-.06-.476-.238a.193.193 0 0 1 .238-.179 4.576 4.576 0 0 0 .892-.119c.594-.119.743-.773.862-1.635.149-1.249.149-3.6.149-6.45v-5.232zm20.595-4.755c.327-.832.446-.981.625-.981.268 0 .356.356.624.921.476 1.07 4.666 11.5 6.271 15.338.951 2.259 1.665 2.586 2.229 2.764a3.622 3.622 0 0 0 1.04.148.281.281 0 0 1 .327.208.563.563 0 0 1-.595.209c-.386 0-2.318 0-4.131-.06a1.237 1.237 0 0 1-.922-.178c0-.119.06-.119.179-.179a.474.474 0 0 0 .237-.684l-2.348-5.8a.205.205 0 0 0-.238-.149h-6.034a.276.276 0 0 0-.268.208l-1.486 4.042a5.237 5.237 0 0 0-.386 1.694.751.751 0 0 0 .892.684h.237c.208 0 .268.089.268.208 0 .149-.148.209-.386.209-.625 0-2.052-.089-2.349-.089-.268 0-1.575.089-2.645.089-.327 0-.5-.06-.5-.209a.229.229 0 0 1 .237-.208 7.278 7.278 0 0 0 .772-.059c1.189-.149 1.694-1.04 2.2-2.319zm2.913 10.523c.119 0 .119-.06.09-.179l-2.586-6.925q-.224-.58-.446 0l-2.438 6.925c-.029.119 0 .179.089.179h5.291zm11.351-3.716c0-3.923 0-4.637-.059-5.439-.06-.862-.208-1.278-1.07-1.4a8.385 8.385 0 0 0-.892-.06.253.253 0 0 1-.208-.208c0-.148.119-.208.416-.208 1.189 0 2.942.059 3.092.059.267 0 2.467-.059 3.269-.059a8.569 8.569 0 0 1 4.875 1.1 4.434 4.434 0 0 1 1.812 3.448c0 1.873-.772 3.686-3.21 5.767 2.14 2.675 3.953 4.964 5.469 6.539a4.934 4.934 0 0 0 3.837 1.845.23.23 0 0 1 .237.208c0 .149-.149.209-.624.209h-1.635a5.274 5.274 0 0 1-2.794-.505c-1.13-.595-2.081-1.813-3.567-3.716-1.1-1.367-2.259-3-2.823-3.686a.4.4 0 0 0-.357-.148l-3.329-.06a.168.168 0 0 0-.179.208v.594c0 2.438 0 4.4.119 5.44a1.188 1.188 0 0 0 1.04 1.337 9.547 9.547 0 0 0 1.159.119.185.185 0 0 1 .208.208c0 .119-.118.209-.416.209-1.427 0-3.091-.089-3.21-.089-.03 0-1.783.089-2.586.089-.268 0-.416-.06-.416-.209a.2.2 0 0 1 .208-.208 3.742 3.742 0 0 0 .8-.119c.5-.119.565-.595.684-1.337a51.673 51.673 0 0 0 .148-5.47v-4.458zm2.259 2.14a.373.373 0 0 0 .179.327 8.862 8.862 0 0 0 2.883.386 3.4 3.4 0 0 0 1.962-.446 4.51 4.51 0 0 0 1.575-3.864c0-3.15-1.724-4.964-4.518-4.964a11.379 11.379 0 0 0-1.873.149.322.322 0 0 0-.208.3v8.115zm19.793 2.377c0 3.716.06 5.231.535 5.677.416.417 1.427.595 3.477.595 1.367 0 2.526-.03 3.15-.773a3.089 3.089 0 0 0 .624-1.427.327.327 0 0 1 .268-.327c.119 0 .179.119.179.387a15.965 15.965 0 0 1-.387 2.526c-.178.595-.268.684-1.664.684-1.873 0-3.329-.029-4.548-.089-1.189-.03-2.081-.06-2.853-.06-.119 0-.565 0-1.07.03-.535.03-1.1.06-1.516.06-.268 0-.416-.06-.416-.209a.2.2 0 0 1 .208-.208 3.742 3.742 0 0 0 .8-.119c.5-.119.565-.595.684-1.337a51.639 51.639 0 0 0 .148-5.47v-4.457c0-3.923 0-4.637-.06-5.439-.06-.862-.208-1.278-1.07-1.4a8.383 8.383 0 0 0-.892-.06.253.253 0 0 1-.208-.208c0-.148.119-.208.416-.208 1.19 0 2.824.059 2.973.059.119 0 2.08-.059 2.883-.059.267 0 .416.059.416.208a.222.222 0 0 1-.208.178c-.178 0-.565.03-.861.06-.773.149-.922.535-.981 1.427-.029.8-.029 1.516-.029 5.439v4.518zm15.601-.059c0 2.437 0 4.429.119 5.47.089.743.178 1.218.951 1.337a10.582 10.582 0 0 0 1.189.119.2.2 0 0 1 .208.208c0 .119-.119.209-.416.209-1.456 0-3.15-.089-3.27-.089-.148 0-1.783.089-2.586.089-.268 0-.416-.06-.416-.209a.2.2 0 0 1 .208-.208 3.742 3.742 0 0 0 .8-.119c.5-.119.594-.595.684-1.337.118-1.04.148-3.032.148-5.47v-4.458c0-3.923 0-4.637-.06-5.439-.06-.862-.268-1.248-.832-1.367a4.686 4.686 0 0 0-.8-.089.223.223 0 0 1-.208-.208c0-.148.119-.208.416-.208.862 0 2.5.059 2.645.059.119 0 1.814-.059 2.615-.059.3 0 .416.059.416.208a.251.251 0 0 1-.208.208 2.907 2.907 0 0 0-.653.06c-.714.148-.862.505-.922 1.4-.029.8-.029 1.516-.029 5.439v4.458zm12.867-11.265c.327-.832.446-.981.625-.981.268 0 .356.356.624.921.476 1.07 4.667 11.5 6.272 15.338.951 2.259 1.665 2.586 2.229 2.764a3.622 3.622 0 0 0 1.04.148.281.281 0 0 1 .327.208.563.563 0 0 1-.595.209c-.386 0-2.318 0-4.132-.06a1.236 1.236 0 0 1-.921-.178c0-.119.06-.119.179-.179a.474.474 0 0 0 .237-.684l-2.349-5.8a.2.2 0 0 0-.237-.149h-6.034a.276.276 0 0 0-.268.208l-1.486 4.048a5.237 5.237 0 0 0-.386 1.694.751.751 0 0 0 .892.684h.237c.208 0 .268.089.268.208 0 .149-.148.209-.386.209-.625 0-2.052-.089-2.349-.089-.267 0-1.575.089-2.645.089-.327 0-.5-.06-.5-.209a.229.229 0 0 1 .237-.208 7.316 7.316 0 0 0 .773-.059c1.188-.149 1.693-1.04 2.2-2.319zm2.911 10.522c.119 0 .119-.06.09-.179l-2.586-6.925q-.224-.58-.446 0l-2.437 6.925c-.029.119 0 .179.089.179h5.29zm31.626 4.815c.089.892.268 2.259 1.338 2.616a5.514 5.514 0 0 0 1.694.238.181.181 0 0 1 .208.179.468.468 0 0 1-.535.238c-.595 0-3.508-.06-4.459-.149-.624-.06-.743-.148-.743-.268a.217.217 0 0 1 .179-.208.958.958 0 0 0 .119-.892l-1.25-12.784h-.058l-6.3 12.9c-.535 1.1-.684 1.337-.922 1.337s-.386-.238-.892-1.159c-.684-1.248-2.407-4.488-3.061-5.856-.773-1.6-2.883-5.855-3.329-6.9h-.119l-1.011 11.414c-.029.387-.029.862-.029 1.278a.706.706 0 0 0 .624.713 4.229 4.229 0 0 0 1.011.148.223.223 0 0 1 .208.179c0 .178-.179.238-.476.238-.981 0-2.229-.089-2.437-.089-.237 0-1.486.089-2.2.089-.268 0-.446-.06-.446-.238a.245.245 0 0 1 .268-.179 5.05 5.05 0 0 0 .773-.089c.861-.149.892-1.07 1.01-2.021l1.9-16.5a.42.42 0 0 1 .3-.446.6.6 0 0 1 .535.386l7.906 15.694 7.609-15.665a.577.577 0 0 1 .416-.416c.179 0 .327.208.387.684zm7.574-8.53c0-3.923 0-4.637-.06-5.439-.059-.862-.208-1.278-1.07-1.4a8.383 8.383 0 0 0-.892-.06.253.253 0 0 1-.208-.208c0-.148.119-.208.416-.208 1.19 0 2.884.059 3.032.059.178 0 5.647.03 6.242 0 .5-.03.98-.119 1.188-.149a1.687 1.687 0 0 1 .357-.119c.09 0 .119.119.119.238 0 .178-.148.475-.208 1.189-.029.238-.089 1.367-.148 1.665a.321.321 0 0 1-.238.268c-.149 0-.208-.119-.208-.327a2.762 2.762 0 0 0-.149-.892c-.179-.416-.445-.595-1.872-.773-.446-.06-3.479-.089-3.775-.089-.119 0-.149.089-.149.267v6.867c0 .178 0 .267.149.267.327 0 3.775 0 4.369-.059a1.986 1.986 0 0 0 1.278-.357 1.028 1.028 0 0 1 .387-.327c.089 0 .148.059.148.208a13.807 13.807 0 0 0-.208 1.4c-.06.505-.119 1.456-.119 1.635 0 .208-.06.476-.237.476a.193.193 0 0 1-.179-.238 2.24 2.24 0 0 0-.119-.832c-.089-.356-.326-.654-1.337-.772-.714-.089-3.508-.119-3.954-.119a.156.156 0 0 0-.178.178v2.11c0 .862-.03 3.8 0 4.31.06 1.694.535 2.021 3.121 2.021a8.7 8.7 0 0 0 2.615-.268 1.917 1.917 0 0 0 1.189-1.754c.06-.3.119-.386.268-.386s.178.208.178.386a20.974 20.974 0 0 1-.356 2.437c-.179.654-.446.654-1.456.654-1.962 0-3.478-.059-4.548-.089-1.1-.06-1.784-.06-2.17-.06-.06 0-.565 0-1.13.03-.5.03-1.1.06-1.516.06-.268 0-.416-.06-.416-.209a.2.2 0 0 1 .208-.208 7.489 7.489 0 0 0 .8-.119c.5-.089.564-.595.684-1.337a51.673 51.673 0 0 0 .148-5.47v-4.457zm17.177 8.352c.06 2.081.3 2.705 1.011 2.883a6.2 6.2 0 0 0 1.308.148.2.2 0 0 1 .208.208c0 .149-.178.209-.476.209-1.486 0-2.526-.089-2.764-.089s-1.338.089-2.527.089c-.268 0-.416-.03-.416-.209a.2.2 0 0 1 .208-.208 4.105 4.105 0 0 0 1.07-.148c.654-.178.743-.862.743-3.151V12.287c0-1.011.148-1.278.356-1.278a2.364 2.364 0 0 1 1.011.772c.416.416 4.221 4.459 8.264 8.62 2.586 2.675 5.38 5.677 6.183 6.51l-.268-12.663c-.03-1.635-.179-2.2-.981-2.348a8.355 8.355 0 0 0-1.277-.119.208.208 0 0 1-.209-.238c0-.148.209-.178.506-.178 1.189 0 2.438.059 2.734.059s1.159-.059 2.229-.059c.268 0 .476.03.476.178a.3.3 0 0 1-.3.238 2.96 2.96 0 0 0-.625.06c-.861.178-.921.684-.921 2.2l-.06 14.8c0 1.665-.029 1.813-.208 1.813-.268 0-.535-.208-1.991-1.546-.268-.238-4.043-3.953-6.808-6.836-3.031-3.18-5.975-6.272-6.776-7.164zm29.065-3.894c0 2.437 0 4.429.119 5.47.089.743.208 1.218 1.01 1.337a9.98 9.98 0 0 0 1.189.119.185.185 0 0 1 .208.208c0 .119-.119.209-.416.209-1.427 0-3.092-.089-3.24-.089-.119 0-1.932.089-2.705.089-.3 0-.416-.06-.416-.209a.181.181 0 0 1 .208-.178 3.476 3.476 0 0 0 .773-.119c.535-.119.684-.624.772-1.367.119-1.04.119-3.032.119-5.47V12.524l-3.775.059c-1.635.03-2.259.208-2.645.8a4.107 4.107 0 0 0-.416.8.25.25 0 0 1-.267.238.2.2 0 0 1-.178-.208c0-.268.534-2.526.564-2.734a1 1 0 0 1 .268-.476 9.065 9.065 0 0 0 1.159.3c.743.089 1.754.119 2.051.119h9.868a12.973 12.973 0 0 0 1.873-.119c.387-.06.624-.119.743-.119s.119.148.119.3c0 .772-.09 2.586-.09 2.883a.284.284 0 0 1-.237.327c-.119 0-.179-.089-.208-.446l-.03-.268c-.089-.773-.653-1.337-3.15-1.4l-3.269-.059v10.615zM63.395 60.578a.922.922 0 0 1-.665-1.134c0-1.8.157-3.868.2-4.415 0-.509.156-.86.43-.86.313 0 .352.313.352.548a6.17 6.17 0 0 0 .313 1.719c.742 2.462 3.321 3.283 5.471 3.283 2.97 0 4.768-1.876 4.768-4.221 0-1.446-.352-2.892-3.4-4.689l-1.994-1.177c-4.064-2.384-5.393-4.611-5.393-7.543 0-4.063 3.908-6.682 8.675-6.682a20.409 20.409 0 0 1 4.885.547.468.468 0 0 1 .469.43c0 .43-.117 1.368-.117 3.986 0 .7-.156 1.055-.43 1.055q-.352 0-.352-.586a3.757 3.757 0 0 0-.9-2.188 4.621 4.621 0 0 0-3.83-1.563c-2.462 0-4.689 1.29-4.689 3.556 0 1.484.547 2.657 3.634 4.377l1.407.781c4.533 2.5 5.94 5.041 5.94 8.05a7.1 7.1 0 0 1-3.439 6.214 10.027 10.027 0 0 1-5.745 1.367 14.623 14.623 0 0 1-5.59-.855zM107.314 46.7a.2.2 0 0 0 .2-.234v-.7c0-5.041-.039-6.252-.078-7.308a1.632 1.632 0 0 0-1.485-1.8 6.191 6.191 0 0 0-1.329-.117q-.587 0-.586-.352c0-.234.234-.312.743-.312 1.836 0 4.259.078 5.158.078.82 0 3.087-.078 4.416-.078.508 0 .743.078.743.313s-.234.352-.625.352a5.756 5.756 0 0 0-1.016.117c-.9.156-1.172.625-1.25 1.8-.078 1.055-.078 1.993-.078 7.034v5.861c0 3.048 0 5.666.156 7.112.117.938.313 1.564 1.368 1.72a12.457 12.457 0 0 0 1.758.117.479.479 0 0 1 .547.352c0 .234-.274.352-.7.352-2.228 0-4.494-.117-5.432-.117-.782 0-3.2.117-4.533.117-.469 0-.742-.117-.742-.352a.452.452 0 0 1 .547-.352 5.2 5.2 0 0 0 1.251-.117c.7-.156.9-.782 1.016-1.759.156-1.407.156-3.947.156-7v-2.54a.209.209 0 0 0-.2-.2H94.34a.2.2 0 0 0-.234.2v2.54c0 3.048.039 5.588.2 7.034.117.938.313 1.564 1.329 1.72a12.874 12.874 0 0 0 1.759.117.452.452 0 0 1 .547.352c0 .234-.273.352-.7.352-2.228 0-4.611-.117-5.588-.117-.781 0-3.048.117-4.415.117-.43 0-.665-.117-.665-.352 0-.156.117-.352.547-.352a5.069 5.069 0 0 0 1.211-.117c.7-.156.9-.782 1.016-1.759.156-1.407.156-4.025.156-7.073v-5.861c0-5.041 0-5.979-.039-7.034a1.632 1.632 0 0 0-1.485-1.8 6.332 6.332 0 0 0-1.368-.117c-.352 0-.586-.118-.586-.352s.273-.312.742-.312c1.837 0 4.1.078 5.041.078.821 0 3.2-.078 4.572-.078.469 0 .7.078.7.313s-.2.352-.626.352a5.038 5.038 0 0 0-.977.117c-.937.156-1.211.625-1.289 1.8-.078 1.055-.078 2.267-.078 7.308v.7a.206.206 0 0 0 .234.234h12.974zm15.821 1.72c0-5.666 3.986-13.013 14.419-13.013 8.675 0 14.068 4.806 14.068 12.427s-5.549 13.6-14.419 13.6c-10.004-.001-14.068-7.114-14.068-13.014zm23.368.625c0-7.347-4.415-11.879-9.965-11.879-3.83 0-8.323 2.032-8.323 10.239 0 6.838 3.908 12.231 10.394 12.231 2.424 0 7.894-1.134 7.894-10.591zm15.431-3.556c0-5.041 0-5.979-.04-7.034a1.632 1.632 0 0 0-1.485-1.8 6.33 6.33 0 0 0-1.368-.117c-.352 0-.586-.118-.586-.352s.273-.312.781-.312c1.8 0 3.986.078 4.963.078 1.407 0 4.143-.078 5.705-.078 4.3 0 5.862 1.407 6.409 1.876a5.76 5.76 0 0 1 1.719 3.985c0 4.689-3.751 8.051-8.636 8.051a8.843 8.843 0 0 1-1.016-.039.394.394 0 0 1-.43-.353c0-.273.391-.43 1.133-.43 1.915 0 4.611-1.993 4.611-5.392a6.185 6.185 0 0 0-2.032-4.924 5.169 5.169 0 0 0-3.438-1.251 5.409 5.409 0 0 0-1.485.156.577.577 0 0 0-.273.626v13.169c0 3.048 0 5.666.156 7.112.117.938.313 1.564 1.329 1.72a13.305 13.305 0 0 0 1.759.117.452.452 0 0 1 .547.352c0 .234-.273.352-.625.352-2.306 0-4.728-.117-5.627-.117-.781 0-2.97.117-4.337.117-.43 0-.665-.117-.665-.352 0-.156.117-.352.547-.352a5.069 5.069 0 0 0 1.211-.117c.7-.156.9-.782 1.016-1.759.157-1.407.157-4.025.157-7.073v-5.861zM33.888 28.641a1.023 1.023 0 1 0 1.023 1.021 1.023 1.023 0 0 0-1.023-1.021zm-.023 7.992a1.023 1.023 0 1 0 1.023 1.023 1.024 1.024 0 0 0-1.024-1.023zM25 29.663a1.023 1.023 0 1 0 1.023-1.021A1.024 1.024 0 0 0 25 29.663zm1.023 6.971a1.023 1.023 0 1 0 1.022 1.023 1.024 1.024 0 0 0-1.022-1.024zM25 45.666a1.023 1.023 0 1 0 1.023-1.024A1.023 1.023 0 0 0 25 45.665zm8.888-1.024a1.023 1.023 0 1 0 1.023 1.024 1.025 1.025 0 0 0-1.023-1.024zm6.887-14.964a1.023 1.023 0 1 0 1.024-1.023 1.025 1.025 0 0 0-1.024 1.023zm1 6.969a1.023 1.023 0 1 0 1.022 1.025 1.024 1.024 0 0 0-1.022-1.021zm-1 9.034a1.023 1.023 0 1 0 1.024-1.023 1.025 1.025 0 0 0-1.024 1.027zM17.136 29.668a1.023 1.023 0 1 0 1.022-1.023 1.022 1.022 0 0 0-1.022 1.023zm-7.864 0a1.024 1.024 0 1 0 1.024-1.023 1.023 1.023 0 0 0-1.026 1.023zm1.024 6.963a1.023 1.023 0 1 0 1.024 1.023 1.023 1.023 0 0 0-1.024-1.023zm7.839 0a1.023 1.023 0 1 0 1.023 1.023 1.023 1.023 0 0 0-1.023-1.023zm-7.839 8.008a1.023 1.023 0 1 0 1.024 1.023 1.025 1.025 0 0 0-1.024-1.022zm7.862 0a1.023 1.023 0 1 0 1.024 1.023 1.024 1.024 0 0 0-1.024-1.022zm-6.427-21.52v4.994h4.7V23.12h-4.7zm0 8.07v4.989h4.7V31.19h-4.7zm0 8.033v4.956h4.7v-4.955h-4.7zm7.669-16.1v4.994h5.031V23.12H19.4zm.037 8.07v5.029h4.994V31.19h-4.994zm0 8.033v4.993h4.956v-4.993h-4.956zm8.07-16.066v4.957h4.883v-4.959h-4.882zm0 8v5.066h4.883v-5.072h-4.882zm0 8.033v4.986h4.883v-4.993h-4.882zM35.54 23.12v4.994h4.667V23.12H35.54zm.036 8.07v4.988h4.631V31.19h-4.631zm0 8v4.988h4.631v-4.993h-4.631zM9.27 21.661a1.024 1.024 0 1 0 1.024-1.021 1.025 1.025 0 0 0-1.024 1.021zm7.84 0a1.023 1.023 0 1 0 1.023-1.021 1.024 1.024 0 0 0-1.022 1.021zm7.889-.006a1.023 1.023 0 1 0 1.023-1.021A1.023 1.023 0 0 0 25 21.655zm7.84 0a1.023 1.023 0 1 0 1.024-1.021 1.023 1.023 0 0 0-1.023 1.021zm8.936-1.006a1.024 1.024 0 1 0 1.022 1.023 1.024 1.024 0 0 0-1.022-1.023zM10.64 19.84h30.653v-.832a43.227 43.227 0 0 0-30.661.006zm8.845-12.362a1.642 1.642 0 0 0-2.412.434s-.434.434-.627 2.412c0 0 1.545.459 1.157 2.557 0 0 3.933 3.135 6.081-.266 0 0 1.253-1.254 1.494-5.715 0 0-1.856-.6-3.4 2 0 0-.966 1.883-1.254-.023 0 0-.1-4.27-.725-5.234a.439.439 0 0 1 .361-.676.892.892 0 0 1 .411.482 3.428 3.428 0 0 0 4.199 1.69s.894-3.232-4-4.078A.912.912 0 0 1 21.37 0a10.81 10.81 0 0 0 3.907.627 14.679 14.679 0 0 0 5.161-.555s.942-.217.8 1.037c0 0-4.63.506-3.955 4.053a3.716 3.716 0 0 0 4.187-1.784.67.67 0 0 1 .557-.41s.578.217.046.941a20.38 20.38 0 0 0-.626 5.018.563.563 0 0 1-.219.7s-.385.412-.818-.506c0 0-1.423-2.748-3.546-2.217 0 0 .072 4.8 2.194 6.559 0 0 1.809 2.027 5.33-.6 0 0-.408-1.9 1.158-2.531 0 0-.071-4.631-3.062-2.822 0 0 .387-5.4 3.858-.289 0 0 .242-4.537 2.92-5.307 0 0 1.23 2.17-.483 6.15 0 0 6.031-3.256 3.138 2.484 0 0-1.812-3.232-3.812.41 0 0 .965 1.734-.337 2.242 0 0 0 4.824 5.4 1.93a6.736 6.736 0 0 0 3.016-2.459.864.864 0 0 0 .121-1.254 1.122 1.122 0 0 0-1.568-.17c-.1.074-1.475.934-1.809 1.133 0 0-1.033.295-.315-.674 0 0 .2-.2.389-.428.422-.512.928-1.744.816-4.734 0 0-.047-.555.338-.555a.417.417 0 0 1 .483.387c.072.457.193 3.762 2.991 3.859 0 0 2.339-2.267-.338-5.307a.722.722 0 0 1-.337-.869.581.581 0 0 1 .868-.121l3.747 2.178-8.034 13.562v40.237h-1.52l-3.329-7.737h1.447v-5h-4.631V52.1h1.592l-3.11 7.742-3.258-7.664h1.664v-5.064H27.47v4.994h1.735l-3.256 7.815-3.257-7.67h1.665v-5.139H19.37v5.064h1.811l-3.185 7.672-3.262-7.672h1.591v-5h-4.63V52.1h1.519l-3.328 7.815H8.37v-39.87L.27 6.151s3.257-1.9 3.643-2.074 1.856-.555.845.771-1.882 2.582-.893 4.656a1.007 1.007 0 0 0 1.664.41c1.134-.676 1.519-1.135 1.81-3.209 0 0 0-.916.579-.7 0 0 .266-.17.266.82s-.024 3.16.747 4.342l.481.58s.676 1.107-.5.529c0 0-2.075-1.711-2.871-1.182a1.048 1.048 0 0 0-.1 1.736 7.669 7.669 0 0 0 4.148 2.822s4.029 1.689 4.126-2.461c0 0-1.183-.361-.315-2.193 0 0-1.591-3.691-3.834-.434 0 0-1.737-3.281.193-3.451a5.857 5.857 0 0 1 2.99 1.039s-1.616-3.957-.507-6.248c0 0 2.727.578 2.872 5.451 0 0 3.159-5.379 3.954.121h-.083z" class="cls-1"/><circle cx="11.08" cy="13.64" r="1.024" class="cls-1"/><circle cx="20.632" cy="11.759" r="1.023" class="cls-1"/><circle cx="31.379" cy="11.795" r="1.023" class="cls-1"/><circle cx="40.93" cy="13.604" r="1.023" class="cls-1"/><path d="M32.191 3.709a5.7 5.7 0 0 0-.286.846c-.054.287-.582-.076-.582-.076l.182-.543.369-.387zM8.057 6.065l-.355.137-.212-.084a.341.341 0 0 1 .567-.053zM1.022 21.456A2.277 2.277 0 1 0 3.3 19.178a2.278 2.278 0 0 0-2.278 2.278zm-1.022 0a3.3 3.3 0 1 1 3.3 3.3 3.3 3.3 0 0 1-3.3-3.3zm1.611 6.441a.41.41 0 0 0-.409.41v4.824a.41.41 0 0 0 .409.41h3.233a.41.41 0 0 0 .409-.41v-4.824a.41.41 0 0 0-.409-.41H1.611zm3.255 7.092H1.515a1.435 1.435 0 0 1-1.434-1.435v-5.669a1.435 1.435 0 0 1 1.435-1.436H4.87a1.436 1.436 0 0 1 1.438 1.436v5.668a1.436 1.436 0 0 1-1.438 1.436zm-3.291 3.039a.409.409 0 0 0-.409.41v4.825a.409.409 0 0 0 .409.41h3.233a.41.41 0 0 0 .409-.41v-4.825a.41.41 0 0 0-.409-.41H1.575zm3.256 7.092H1.48a1.435 1.435 0 0 1-1.436-1.437v-5.665a1.435 1.435 0 0 1 1.436-1.44h3.351a1.437 1.437 0 0 1 1.439 1.44v5.66a1.437 1.437 0 0 1-1.439 1.442zm-3.256 2.969a.409.409 0 0 0-.409.41v4.822a.411.411 0 0 0 .409.412h3.233a.412.412 0 0 0 .409-.412v-4.822a.41.41 0 0 0-.409-.41H1.575zm3.256 7.09H1.48a1.434 1.434 0 0 1-1.436-1.436v-5.665a1.435 1.435 0 0 1 1.436-1.436h3.351a1.438 1.438 0 0 1 1.439 1.436v5.668a1.436 1.436 0 0 1-1.439 1.432zm-3.809 4.994a2.277 2.277 0 1 0 2.277-2.277 2.278 2.278 0 0 0-2.277 2.277zm-1.022 0a3.3 3.3 0 1 1 3.3 3.3 3.3 3.3 0 0 1-3.3-3.3z" class="cls-1"/><path d="M2.649 52.754h1.085v4.342H2.649zm0-10.384h1.085v6.73H2.649zm0-9.843h1.085v6.586H2.649zm0-10.023h1.085v6.477H2.649zm1.628-1.592h4.27V22h-4.27zm42.264.544a2.278 2.278 0 1 0 2.277-2.278 2.278 2.278 0 0 0-2.277 2.278zm-1.023 0a3.3 3.3 0 1 1 3.3 3.3 3.3 3.3 0 0 1-3.299-3.3zm4.989 6.441H47.27a.41.41 0 0 0-.409.41v4.824a.41.41 0 0 0 .409.41h3.232a.41.41 0 0 0 .41-.41v-4.824a.41.41 0 0 0-.405-.41zm-3.256 7.092a1.435 1.435 0 0 1-1.436-1.435v-5.669a1.435 1.435 0 0 1 1.436-1.436h3.351a1.434 1.434 0 0 1 1.436 1.436v5.668a1.434 1.434 0 0 1-1.436 1.435h-3.351zm3.291 3.039h-3.23a.41.41 0 0 0-.41.41v4.825a.41.41 0 0 0 .41.41h3.231a.41.41 0 0 0 .411-.41v-4.825a.41.41 0 0 0-.412-.41zm-3.255 7.092a1.436 1.436 0 0 1-1.436-1.437v-5.665a1.436 1.436 0 0 1 1.436-1.438h3.352a1.438 1.438 0 0 1 1.438 1.438v5.66a1.438 1.438 0 0 1-1.437 1.438h-3.353zm3.255 2.969h-3.23a.41.41 0 0 0-.41.41v4.822a.411.411 0 0 0 .41.412h3.231a.412.412 0 0 0 .411-.412v-4.822a.41.41 0 0 0-.412-.41zm-3.255 7.09a1.436 1.436 0 0 1-1.436-1.436v-5.665a1.437 1.437 0 0 1 1.436-1.436h3.352a1.438 1.438 0 0 1 1.438 1.436v5.668a1.437 1.437 0 0 1-1.437 1.436h-3.353zm-.746 4.994a2.278 2.278 0 1 0 2.277-2.277 2.278 2.278 0 0 0-2.277 2.277zm-1.023 0a3.3 3.3 0 1 1 3.3 3.3 3.3 3.3 0 0 1-3.299-3.3z" class="cls-1"/><path d="M48.385 52.754h1.084v4.342h-1.084zm0-10.384h1.084v6.73h-1.084zm0-9.843h1.084v6.586h-1.084zm0-10.023h1.084v6.477h-1.084zm-5.102-1.592h4.559V22h-4.559z" class="cls-1"/></svg>
